<?xml version="1.0" encoding="UTF-8" standalone="no"?>
<!DOCTYPE svg PUBLIC "-//W3C//DTD SVG 1.1//EN" "http://www.w3.org/Graphics/SVG/1.1/DTD/svg11.dtd">
<svg width="18px" height="18px" viewBox="0 0 6 6" version="1.1" 
   xmlns="http://www.w3.org/2000/svg" 
   xmlns:xlink="http://www.w3.org/1999/xlink" xml:space="preserve" style="fill-rule:evenodd;clip-rule:evenodd;stroke-linejoin:round;stroke-miterlimit:1.41421;">
   <g transform="matrix(1.33333,0,0,1.33333,0,0)">
      <g>
         <g transform="matrix(0.428766,0,0,0.428766,0.131203,0.177632)">
            <circle cx="4.942" cy="5" r="5" style="fill:rgb(106,105,105);"/>
         </g>
         <g transform="matrix(0.476406,0,0,0.476406,-0.132032,-0.0605714)">
            <path d="M4.788,0.205C4.858,0.202 4.929,0.2 5,0.2C5.071,0.2 5.142,0.202 5.212,0.205C6.153,1.069 7.353,1.648 8.615,1.844C8.709,1.951 8.798,2.062 8.882,2.177C8.792,3.452 9.089,4.751 9.723,5.861C9.698,6.001 9.666,6.138 9.629,6.273C8.576,6.998 7.744,8.041 7.272,9.229C7.148,9.295 7.021,9.357 6.89,9.413C5.667,9.041 4.333,9.041 3.11,9.413C2.979,9.357 2.852,9.295 2.728,9.229C2.256,8.041 1.424,6.998 0.371,6.273C0.334,6.138 0.302,6.001 0.277,5.861C0.911,4.751 1.208,3.452 1.118,2.177C1.202,2.062 1.291,1.951 1.385,1.844C2.647,1.648 3.847,1.069 4.788,0.205Z" style="fill:rgb(16,16,16);"/>
         </g>
         <g transform="matrix(0.0178423,-5.48533e-20,9.36387e-20,0.0304581,-0.158708,-0.324425)">
            <path d="M145.832,21C147.581,21 149,22.419 149,24.168L144.5,33.671L144.852,75.393C144.852,79.684 139.29,79.373 135,79.373C135,79.373 126.128,79.824 126.128,75.533L125.5,33.671L121,24.168C121,22.419 122.419,21 124.168,21C124.168,21 128.816,19.513 135,19.423C140.308,19.346 145.832,21 145.832,21Z" style="fill:rgb(235,235,235);"/>
         </g>
      </g>
   </g>
</svg>