<?xml version="1.0" encoding="UTF-8" standalone="no"?>
<!-- Created with Inkscape (http://www.inkscape.org/) -->

<svg
   xmlns:dc="http://purl.org/dc/elements/1.1/"
   xmlns:cc="http://creativecommons.org/ns#"
   xmlns:rdf="http://www.w3.org/1999/02/22-rdf-syntax-ns#"
   xmlns:svg="http://www.w3.org/2000/svg"
   xmlns="http://www.w3.org/2000/svg"
   xmlns:sodipodi="http://sodipodi.sourceforge.net/DTD/sodipodi-0.dtd"
   xmlns:inkscape="http://www.inkscape.org/namespaces/inkscape"
   width="149.88928"
   height="380"
   viewBox="0 0 39.658205 100.54167"
   version="1.1"
   id="svg9749"
   inkscape:version="0.92.2 5c3e80d, 2017-08-06"
   sodipodi:docname="Lateralus.svg"
   inkscape:export-filename="/home/leonardo/Development/VultArtwork/Modules/Lateralus-render.png"
   inkscape:export-xdpi="96"
   inkscape:export-ydpi="96">
  <defs
     id="defs9743" />
  <sodipodi:namedview
     id="base"
     pagecolor="#ffffff"
     bordercolor="#666666"
     borderopacity="1.0"
     inkscape:pageopacity="0.0"
     inkscape:pageshadow="2"
     inkscape:zoom="2.8284272"
     inkscape:cx="23.224284"
     inkscape:cy="91.846859"
     inkscape:document-units="mm"
     inkscape:current-layer="layer1"
     showgrid="false"
     units="px"
     inkscape:window-width="1680"
     inkscape:window-height="988"
     inkscape:window-x="0"
     inkscape:window-y="34"
     inkscape:window-maximized="1"
     showguides="true"
     inkscape:guide-bbox="true">
    <sodipodi:guide
       position="-10.757598,80.073951"
       orientation="0,1"
       id="guide933"
       inkscape:locked="false" />
    <sodipodi:guide
       position="3.4882344,84.950103"
       orientation="1,0"
       id="guide935"
       inkscape:locked="false" />
    <sodipodi:guide
       position="36.78786,84.950103"
       orientation="1,0"
       id="guide937"
       inkscape:locked="false" />
    <sodipodi:guide
       position="-15.902536,11.973675"
       orientation="0,1"
       id="guide939"
       inkscape:locked="false" />
  </sodipodi:namedview>
  <metadata
     id="metadata9746">
    <rdf:RDF>
      <cc:Work
         rdf:about="">
        <dc:format>image/svg+xml</dc:format>
        <dc:type
           rdf:resource="http://purl.org/dc/dcmitype/StillImage" />
        <dc:title />
      </cc:Work>
    </rdf:RDF>
  </metadata>
  <g
     inkscape:label="Layer 1"
     inkscape:groupmode="layer"
     id="layer1"
     transform="translate(0,-196.45833)">
    <rect
       style="fill:#808080;fill-opacity:1;stroke:none;stroke-width:0.54256618;stroke-miterlimit:4;stroke-dasharray:none;stroke-opacity:1"
       id="rect9931"
       width="39.584042"
       height="100.45829"
       x="0.053925231"
       y="196.51166" />
    <rect
       style="fill:#333333;stroke-width:0.22742687"
       id="rect8093"
       width="33.299625"
       height="8.7606611"
       x="3.4882345"
       y="203.28923"
       rx="2.7123952" />
    <g
       id="g8091"
       transform="matrix(0.01096736,0,0,0.01096736,8.2447216,207.01729)">
      <path
         id="path4"
         d="m 210.28218,78.870045 c 0,-125.517 -101.752,-227.268005 -227.270998,-227.268005 -125.514002,0 -227.267002,101.751005 -227.267002,227.268005 0,125.515995 101.752,227.267995 227.267002,227.267995 125.518998,0 227.270998,-101.752 227.270998,-227.267995 z"
         stroke-miterlimit="10"
         style="fill:#757575;stroke:#353535;stroke-width:17;stroke-miterlimit:10"
         inkscape:connector-curvature="0" />
      <g
         id="g40"
         transform="translate(-426.82482,-542.57496)">
        <polygon
           id="polygon6"
           points="293.899,691.309 310.528,726.941 333.707,762.107 357.002,759.965 372.393,735.184 342.799,668.57 281.111,604.987 "
           style="fill:#2b2b2b" />
        <polygon
           id="polygon8"
           points="523.865,691.514 507.235,727.145 484.06,762.313 460.762,760.17 445.37,735.387 474.967,668.775 536.652,605.193 "
           style="fill:#262626" />
        <path
           id="path10"
           d="M 499.238,664.078"
           inkscape:connector-curvature="0"
           style="fill:#017755" />
        <polygon
           id="polygon12"
           points="342.799,668.57 314.328,652.395 257.223,571.1 255.625,549.52 287.596,491.973 337.948,452.81 409.884,434.427 409.884,808.75 372.316,734.951 "
           style="fill:#424242" />
        <polygon
           id="polygon14"
           points="476.877,668.707 505.35,652.529 562.451,571.234 564.05,549.655 532.081,492.108 481.727,452.944 409.795,434.562 409.795,808.887 447.359,735.086 "
           style="fill:#333333" />
        <polyline
           id="polyline16"
           points="361.886,616.429 409.846,569.542 409.846,603.771 361.886,651.598 361.886,616.429  "
           style="fill:#4c4c4c" />
        <polygon
           id="polygon18"
           points="409.881,603.732 361.924,651.559 372.393,735.184 409.884,808.75 "
           style="fill:#5b5b5b" />
        <polygon
           id="polygon20"
           points="372.393,735.184 409.878,717.512 409.884,808.75 "
           style="fill:#333333" />
        <polygon
           id="polygon22"
           points="285.996,565.237 307.578,615.989 361.924,651.559 361.924,616.39 327.158,572.432 286.039,539.303 "
           style="fill:#ffffff" />
        <polyline
           id="polyline24"
           points="457.816,616.448 409.859,569.561 409.859,603.79 457.816,651.616 457.816,616.448  "
           style="fill:#2d2d2d" />
        <polygon
           id="polygon26"
           points="409.804,603.732 457.758,651.559 447.289,735.184 409.801,808.75 "
           style="fill:#353535" />
        <polygon
           id="polygon28"
           points="447.289,735.184 409.807,717.512 409.801,808.75 "
           style="fill:#191919" />
        <polygon
           id="polygon30"
           points="533.686,565.238 512.108,615.991 457.758,651.559 457.758,616.391 492.523,572.433 533.645,539.303 "
           style="fill:#ffffff" />
        <polyline
           id="polyline32"
           points="338.399,452.22 409.824,569.549 409.67,434.003  "
           style="fill:#383838" />
        <polyline
           id="polyline34"
           points="481.271,452.232 409.846,569.561 410,434.016  "
           style="fill:#2d2d2d" />
        <polygon
           id="polygon36"
           points="361.958,651.596 372.406,735.27 342.815,668.578 "
           style="fill:#333333" />
        <polygon
           id="polygon38"
           points="457.831,652.007 447.383,735.682 476.975,668.989 "
           style="fill:#1c1c1c" />
      </g>
    </g>
    <g
       aria-label="lateralus"
       style="font-style:normal;font-weight:normal;font-size:3.96875095px;line-height:1.25;font-family:sans-serif;letter-spacing:0px;word-spacing:0px;fill:#666666;fill-opacity:1;stroke:none;stroke-width:0.09921876"
       id="text7967">
      <path
         d="m 18.662384,207.86595 v -2.84091 h 0.426331 v 2.84091 z"
         style="font-style:normal;font-variant:normal;font-weight:bold;font-stretch:normal;font-family:Umpush;-inkscape-font-specification:Umpush;fill:#666666;stroke-width:0.09921876"
         id="path892" />
      <path
         d="m 21.257188,207.0036 q 0,0.43408 0.01744,0.5833 0.01938,0.14728 0.09302,0.27905 h -0.461212 q -0.03488,-0.0969 -0.04263,-0.18603 -0.147278,0.12402 -0.306183,0.16859 -0.156967,0.0426 -0.38176,0.0426 -0.197662,0 -0.343002,-0.0562 -0.14534,-0.0562 -0.220917,-0.14728 -0.07364,-0.0911 -0.106583,-0.18604 -0.03294,-0.095 -0.03294,-0.19572 0,-0.2965 0.207352,-0.4554 0.207352,-0.16084 0.602677,-0.21123 0.323623,-0.0388 0.550354,-0.12015 -0.0097,-0.20541 -0.108521,-0.29649 -0.09883,-0.0911 -0.313934,-0.0911 -0.186035,0 -0.306183,0.0891 -0.120148,0.0872 -0.158905,0.21511 l -0.412766,-0.0581 q 0.06783,-0.32362 0.294556,-0.47865 0.22673,-0.15503 0.633682,-0.15503 0.213166,0 0.35463,0.0349 0.141464,0.0329 0.244171,0.12015 0.104645,0.0853 0.151154,0.23835 0.04651,0.15116 0.04651,0.3837 z m -1.358445,0.26549 q 0,0.0872 0.06589,0.1434 0.06589,0.0543 0.143402,0.0736 0.07945,0.0174 0.164718,0.0174 0.279053,0 0.41858,-0.11821 0.139526,-0.12015 0.139526,-0.37982 v -0.0988 q -0.112396,0.0407 -0.259674,0.0678 -0.147278,0.0252 -0.255799,0.0388 -0.10852,0.0136 -0.209289,0.0388 -0.100769,0.0232 -0.15503,0.0756 -0.05232,0.0523 -0.05232,0.14147 z"
         style="font-style:normal;font-variant:normal;font-weight:bold;font-stretch:normal;font-family:Umpush;-inkscape-font-specification:Umpush;fill:#666666;stroke-width:0.09921876"
         id="path894" />
      <path
         d="m 22.561372,207.48807 0.05038,0.37401 q -0.139526,0.0291 -0.286804,0.0291 -0.08333,0 -0.151154,-0.0116 -0.06589,-0.01 -0.116272,-0.0252 -0.04845,-0.0155 -0.0872,-0.0484 -0.03876,-0.0329 -0.06395,-0.0581 -0.02325,-0.0271 -0.04069,-0.0775 -0.01744,-0.0523 -0.02713,-0.0853 -0.0078,-0.0349 -0.01163,-0.10077 -0.0039,-0.0678 -0.0058,-0.10464 0,-0.0388 0,-0.11627 v -1.06777 H 21.57306 v -0.38757 h 0.248047 v -0.71895 h 0.42633 v 0.71895 h 0.253861 v 0.38757 h -0.253861 v 1.0949 q 0,0.21316 0.20929,0.21316 l 0.01163,-0.002 q 0.01163,-0.002 0.03682,-0.006 0.02713,-0.004 0.0562,-0.008 z"
         style="font-style:normal;font-variant:normal;font-weight:bold;font-stretch:normal;font-family:Umpush;-inkscape-font-specification:Umpush;fill:#666666;stroke-width:0.09921876"
         id="path896" />
      <path
         d="m 23.766725,207.50357 q 0.106583,0 0.189911,-0.0213 0.08333,-0.0232 0.129837,-0.0543 0.04651,-0.0329 0.07945,-0.0756 0.03294,-0.0426 0.04457,-0.0717 0.01163,-0.0291 0.01744,-0.0601 h 0.441834 q -0.06201,0.31587 -0.298432,0.49416 -0.234482,0.17634 -0.606552,0.17634 -0.476715,0 -0.728638,-0.27324 -0.251923,-0.27323 -0.251923,-0.76933 0,-0.50966 0.249985,-0.80615 0.251923,-0.29843 0.711197,-0.29843 0.439896,0 0.687943,0.29068 0.249985,0.29068 0.249985,0.78677 0,0.0543 -0.0039,0.12402 h -1.457276 q 0.01744,0.24611 0.158905,0.40308 0.143403,0.15503 0.385636,0.15503 z m 0.478653,-0.94568 q -0.04263,-0.42633 -0.498032,-0.42633 -0.220917,0 -0.362381,0.12402 -0.139526,0.12209 -0.151153,0.30231 z"
         style="font-style:normal;font-variant:normal;font-weight:bold;font-stretch:normal;font-family:Umpush;-inkscape-font-specification:Umpush;fill:#666666;stroke-width:0.09921876"
         id="path898" />
      <path
         d="m 25.105791,207.86595 v -2.05801 h 0.42633 v 0.22285 q 0.100769,-0.16859 0.197663,-0.22673 0.09883,-0.0601 0.242233,-0.0601 0.05038,0 0.100769,0.0174 0.05038,0.0155 0.07751,0.031 0.02713,0.0155 0.07364,0.0465 l -0.120148,0.3682 q -0.0155,-0.008 -0.04263,-0.0291 -0.02713,-0.0232 -0.05426,-0.0349 -0.02713,-0.0116 -0.06395,-0.0116 -0.09495,0 -0.166656,0.0271 -0.0717,0.0252 -0.116272,0.0756 -0.04263,0.0484 -0.06976,0.1027 -0.02713,0.0523 -0.03876,0.1279 -0.01163,0.0756 -0.0155,0.12984 -0.0039,0.0543 -0.0039,0.1279 v 1.14334 z"
         style="font-style:normal;font-variant:normal;font-weight:bold;font-stretch:normal;font-family:Umpush;-inkscape-font-specification:Umpush;fill:#666666;stroke-width:0.09921876"
         id="path900" />
      <path
         d="m 28.101733,207.0036 q 0,0.43408 0.01744,0.5833 0.01938,0.14728 0.09302,0.27905 h -0.461212 q -0.03488,-0.0969 -0.04263,-0.18603 -0.147278,0.12402 -0.306183,0.16859 -0.156967,0.0426 -0.38176,0.0426 -0.197662,0 -0.343002,-0.0562 -0.14534,-0.0562 -0.220917,-0.14728 -0.07364,-0.0911 -0.106583,-0.18604 -0.03294,-0.095 -0.03294,-0.19572 0,-0.2965 0.207351,-0.4554 0.207352,-0.16084 0.602677,-0.21123 0.323624,-0.0388 0.550354,-0.12015 -0.0097,-0.20541 -0.108521,-0.29649 -0.09883,-0.0911 -0.313934,-0.0911 -0.186035,0 -0.306183,0.0891 -0.120148,0.0872 -0.158905,0.21511 l -0.412766,-0.0581 q 0.06783,-0.32362 0.294556,-0.47865 0.226731,-0.15503 0.633683,-0.15503 0.213165,0 0.354629,0.0349 0.141464,0.0329 0.244171,0.12015 0.104645,0.0853 0.151154,0.23835 0.04651,0.15116 0.04651,0.3837 z m -1.358445,0.26549 q 0,0.0872 0.06589,0.1434 0.06589,0.0543 0.143402,0.0736 0.07945,0.0174 0.164718,0.0174 0.279053,0 0.41858,-0.11821 0.139526,-0.12015 0.139526,-0.37982 v -0.0988 q -0.112396,0.0407 -0.259674,0.0678 -0.147278,0.0252 -0.255798,0.0388 -0.108521,0.0136 -0.20929,0.0388 -0.100769,0.0232 -0.155029,0.0756 -0.05232,0.0523 -0.05232,0.14147 z"
         style="font-style:normal;font-variant:normal;font-weight:bold;font-stretch:normal;font-family:Umpush;-inkscape-font-specification:Umpush;fill:#666666;stroke-width:0.09921876"
         id="path902" />
      <path
         d="m 28.599764,207.86595 v -2.84091 h 0.426331 v 2.84091 z"
         style="font-style:normal;font-variant:normal;font-weight:bold;font-stretch:normal;font-family:Umpush;-inkscape-font-specification:Umpush;fill:#666666;stroke-width:0.09921876"
         id="path904" />
      <path
         d="m 30.301212,207.50357 q 0.211227,0 0.313934,-0.11821 0.102707,-0.12015 0.102707,-0.30037 v -1.27705 h 0.426331 v 2.05801 h -0.426331 v -0.0659 q -0.07752,0.0465 -0.203476,0.0678 -0.125961,0.0233 -0.207352,0.0233 -0.193786,0 -0.34494,-0.0484 -0.149216,-0.0485 -0.242233,-0.1279 -0.09108,-0.0795 -0.149216,-0.18991 -0.05814,-0.11046 -0.08139,-0.22092 -0.02132,-0.11046 -0.02132,-0.23642 v -1.25961 h 0.426331 v 1.26736 q 0,0.12015 0.03876,0.20929 0.03876,0.0872 0.100769,0.13371 0.06395,0.0446 0.129837,0.0659 0.06782,0.0194 0.137589,0.0194 z"
         style="font-style:normal;font-variant:normal;font-weight:bold;font-stretch:normal;font-family:Umpush;-inkscape-font-specification:Umpush;fill:#666666;stroke-width:0.09921876"
         id="path906" />
      <path
         d="m 33.306842,207.23614 q 0,0.30037 -0.236419,0.47866 -0.234482,0.17828 -0.592988,0.17828 -0.201538,0 -0.358505,-0.0484 -0.156967,-0.0485 -0.249985,-0.12209 -0.09302,-0.0736 -0.155029,-0.17441 -0.06201,-0.10077 -0.0872,-0.18991 -0.02326,-0.0891 -0.02907,-0.18603 h 0.426331 q 0.01938,0.16278 0.13565,0.24804 0.11821,0.0853 0.315872,0.0853 0.193787,0 0.298432,-0.0717 0.106583,-0.0736 0.106583,-0.16085 0,-0.0581 -0.01938,-0.10076 -0.01938,-0.0426 -0.04651,-0.0698 -0.02713,-0.0271 -0.08527,-0.0465 -0.0562,-0.0213 -0.104645,-0.0329 -0.04651,-0.0116 -0.13565,-0.0271 -0.120148,-0.0213 -0.201539,-0.0388 -0.07945,-0.0194 -0.176345,-0.0465 -0.09496,-0.0291 -0.156968,-0.0601 -0.06007,-0.0329 -0.122085,-0.0795 -0.06201,-0.0485 -0.09689,-0.10659 -0.03488,-0.0581 -0.05814,-0.13758 -0.02132,-0.0795 -0.02132,-0.17829 0,-0.27711 0.211227,-0.43989 0.213166,-0.16472 0.546479,-0.16472 0.164718,0 0.296493,0.0291 0.133713,0.0291 0.218979,0.0814 0.0872,0.0504 0.147278,0.11239 0.06201,0.0601 0.09302,0.13565 0.03101,0.0756 0.04457,0.14147 0.01356,0.0659 0.0155,0.13565 h -0.426331 q -0.01938,-0.24805 -0.364319,-0.24805 -0.186035,0 -0.271301,0.064 -0.08527,0.0639 -0.08527,0.14728 0,0.0523 0.01938,0.093 0.02132,0.0407 0.05232,0.0678 0.03101,0.0252 0.08527,0.0465 0.0562,0.0213 0.106582,0.0329 0.05232,0.0116 0.131775,0.0271 0.465088,0.0853 0.647248,0.21511 0.182159,0.12983 0.182159,0.41082 z"
         style="font-style:normal;font-variant:normal;font-weight:bold;font-stretch:normal;font-family:Umpush;-inkscape-font-specification:Umpush;fill:#666666;stroke-width:0.09921876"
         id="path908" />
    </g>
    <g
       transform="matrix(0.01764484,0,0,0.01764484,7.0310908,190.3478)"
       id="g50"
       style="fill:#666666">
      <path
         style="fill:#666666"
         inkscape:connector-curvature="0"
         d="m 224.699,869.111 h 27.948 l 26.026,86.945 26.911,-86.945 h 27.806 l -36.174,108.69 c -3.38,10.021 -9.436,15.027 -18.173,15.027 -8.854,0 -14.971,-5.059 -18.345,-15.181 z"
         id="path42" />
      <path
         style="fill:#666666"
         inkscape:connector-curvature="0"
         d="m 335.484,961.026 v -91.915 h 26.211 v 91.041 c 0.464,3.263 3.495,4.893 9.087,4.893 h 17.824 c 5.357,0 8.328,-1.512 8.912,-4.543 l 0.175,-0.874 v -90.517 h 26.211 v 91.74 c 0,8.038 -0.873,13.747 -2.621,17.125 -4.66,8.972 -12.873,13.455 -24.639,13.455 h -33.9 c -12.118,0 -20.388,-4.601 -24.814,-13.805 -1.632,-3.377 -2.446,-8.911 -2.446,-16.6 z"
         id="path44" />
      <path
         style="fill:#666666"
         inkscape:connector-curvature="0"
         d="m 435.961,961.551 v -92.439 h 26.212 v 90.342 c 0,3.73 2.211,5.592 6.64,5.592 h 46.657 l -0.175,26.387 h -48.754 c -1.747,0 -3.263,-0.058 -4.543,-0.175 -9.437,-0.813 -16.137,-3.582 -20.096,-8.3 -3.962,-4.72 -5.941,-11.854 -5.941,-21.407 z"
         id="path46" />
      <path
         style="fill:#666666"
         inkscape:connector-curvature="0"
         d="m 516.341,895.497 v -26.386 h 78.635 v 26.386 H 568.59 v 95.935 h -26.212 v -95.935 z"
         id="path48" />
    </g>
    <g
       aria-label="diode ladder filter"
       style="font-style:normal;font-weight:normal;font-size:2.38262916px;line-height:1.25;font-family:sans-serif;letter-spacing:0px;word-spacing:0px;fill:#cccccc;fill-opacity:1;stroke:none;stroke-width:0.05956574"
       id="text7967-9-5">
      <path
         d="m 12.295228,209.97142 v -0.11867 q -0.08376,0.071 -0.176836,0.11285 -0.09307,0.0419 -0.211738,0.0419 -0.230351,0 -0.352508,-0.16637 -0.122156,-0.16636 -0.122156,-0.47001 0,-0.31063 0.13379,-0.48281 0.134954,-0.17218 0.378103,-0.17218 0.08609,0 0.176836,0.0361 0.09074,0.0349 0.150077,0.0896 v -0.60264 h 0.300156 v 1.73229 z m -0.02443,-0.88185 q -0.0477,-0.0431 -0.118666,-0.0756 -0.0698,-0.0337 -0.143097,-0.0337 -0.120993,0 -0.194287,0.1047 -0.07329,0.10355 -0.07329,0.28155 0,0.17567 0.05933,0.27572 0.0605,0.10005 0.186143,0.10005 0.07446,0 0.151241,-0.0337 0.07795,-0.0349 0.132626,-0.0849 z"
         style="font-style:normal;font-variant:normal;font-weight:bold;font-stretch:normal;font-family:Vemana2000;-inkscape-font-specification:Vemana2000;fill:#cccccc;stroke-width:0.05956574"
         id="path911" />
      <path
         d="m 13.225942,208.41829 q 0,0.0849 -0.04188,0.11867 -0.04188,0.0337 -0.127973,0.0337 -0.0954,0 -0.1303,-0.0396 -0.03374,-0.0396 -0.03374,-0.11285 0,-0.0814 0.03723,-0.11634 0.03723,-0.0361 0.12681,-0.0361 0.09075,0 0.1303,0.0349 0.03956,0.0337 0.03956,0.1175 z m -0.317606,1.55313 v -1.2204 h 0.300155 v 1.2204 z"
         style="font-style:normal;font-variant:normal;font-weight:bold;font-stretch:normal;font-family:Vemana2000;-inkscape-font-specification:Vemana2000;fill:#cccccc;stroke-width:0.05956574"
         id="path913" />
      <path
         d="m 14.654589,209.36413 q 0,0.30481 -0.14077,0.47466 -0.140771,0.1687 -0.443253,0.1687 -0.58635,0 -0.58635,-0.64336 0,-0.30946 0.14077,-0.47816 0.140771,-0.16985 0.44558,-0.16985 0.302482,0 0.443253,0.16985 0.14077,0.1687 0.14077,0.47816 z m -0.310626,0 q 0,-0.20127 -0.06282,-0.29318 -0.06282,-0.0931 -0.210574,-0.0931 -0.146588,0 -0.211738,0.0954 -0.06515,0.0942 -0.06515,0.29085 0,0.19545 0.06399,0.28852 0.06515,0.0919 0.212901,0.0919 0.145424,0 0.209411,-0.0908 0.06399,-0.0919 0.06399,-0.28968 z"
         style="font-style:normal;font-variant:normal;font-weight:bold;font-stretch:normal;font-family:Vemana2000;-inkscape-font-specification:Vemana2000;fill:#cccccc;stroke-width:0.05956574"
         id="path915" />
      <path
         d="m 15.734218,209.97142 v -0.11867 q -0.08376,0.071 -0.176836,0.11285 -0.09307,0.0419 -0.211737,0.0419 -0.230352,0 -0.352509,-0.16637 -0.122156,-0.16636 -0.122156,-0.47001 0,-0.31063 0.13379,-0.48281 0.134954,-0.17218 0.378103,-0.17218 0.08609,0 0.176836,0.0361 0.09075,0.0349 0.150078,0.0896 v -0.60264 h 0.300155 v 1.73229 z m -0.02443,-0.88185 q -0.0477,-0.0431 -0.118667,-0.0756 -0.0698,-0.0337 -0.143097,-0.0337 -0.120993,0 -0.194287,0.1047 -0.07329,0.10355 -0.07329,0.28155 0,0.17567 0.05933,0.27572 0.0605,0.10005 0.186143,0.10005 0.07446,0 0.151241,-0.0337 0.07795,-0.0349 0.132627,-0.0849 z"
         style="font-style:normal;font-variant:normal;font-weight:bold;font-stretch:normal;font-family:Vemana2000;-inkscape-font-specification:Vemana2000;fill:#cccccc;stroke-width:0.05956574"
         id="path917" />
      <path
         d="m 16.595129,209.43975 q 0.0081,0.16287 0.07911,0.23384 0.07097,0.071 0.223371,0.071 0.08842,0 0.154731,-0.0221 0.06748,-0.0221 0.117503,-0.0849 l 0.223372,0.15938 q -0.07329,0.10587 -0.190797,0.15822 -0.116339,0.0524 -0.31877,0.0524 -0.301318,0 -0.450233,-0.15823 -0.147751,-0.15822 -0.147751,-0.47815 0,-0.65499 0.58635,-0.65499 0.260601,0 0.396718,0.14775 0.13728,0.14659 0.13728,0.42813 v 0.14775 z m 0.513056,-0.20708 q 0,-0.27806 -0.243149,-0.27806 -0.08027,0 -0.131463,0.0279 -0.05119,0.0267 -0.0826,0.0814 -0.03025,0.0535 -0.0477,0.1687 z"
         style="font-style:normal;font-variant:normal;font-weight:bold;font-stretch:normal;font-family:Vemana2000;-inkscape-font-specification:Vemana2000;fill:#cccccc;stroke-width:0.05956574"
         id="path919" />
      <path
         d="m 18.250637,209.97142 v -1.73229 h 0.300156 v 1.73229 z"
         style="font-style:normal;font-variant:normal;font-weight:bold;font-stretch:normal;font-family:Vemana2000;-inkscape-font-specification:Vemana2000;fill:#cccccc;stroke-width:0.05956574"
         id="path921" />
      <path
         d="m 19.608317,209.97142 v -0.12681 q -0.177999,0.16288 -0.381593,0.16288 -0.20243,0 -0.305972,-0.10587 -0.103542,-0.10704 -0.103542,-0.2734 0,-0.1303 0.05235,-0.21523 0.05352,-0.0849 0.157058,-0.13263 0.104705,-0.0489 0.300155,-0.0686 l 0.25711,-0.0244 v -0.0547 q 0,-0.10237 -0.06166,-0.1396 -0.06166,-0.0384 -0.180326,-0.0384 -0.09773,0 -0.168692,0.0326 -0.0698,0.0326 -0.103542,0.0931 l -0.233842,-0.15008 q 0.06166,-0.10354 0.193123,-0.15822 0.131464,-0.0558 0.317607,-0.0558 0.285031,0 0.410677,0.10005 0.12681,0.0989 0.12681,0.32575 v 0.8295 z m -0.02443,-0.56657 -0.152405,0.014 q -0.161711,0.014 -0.233842,0.0617 -0.07097,0.0477 -0.07097,0.1431 0,0.0838 0.04654,0.11517 0.04654,0.0302 0.12332,0.0302 0.05468,0 0.132627,-0.0337 0.07911,-0.0349 0.154731,-0.0977 z"
         style="font-style:normal;font-variant:normal;font-weight:bold;font-stretch:normal;font-family:Vemana2000;-inkscape-font-specification:Vemana2000;fill:#cccccc;stroke-width:0.05956574"
         id="path923" />
      <path
         d="m 21.016022,209.97142 v -0.11867 q -0.08376,0.071 -0.176835,0.11285 -0.09307,0.0419 -0.211738,0.0419 -0.230352,0 -0.352508,-0.16637 -0.122156,-0.16636 -0.122156,-0.47001 0,-0.31063 0.13379,-0.48281 0.134954,-0.17218 0.378103,-0.17218 0.08609,0 0.176835,0.0361 0.09075,0.0349 0.150078,0.0896 v -0.60264 h 0.300156 v 1.73229 z m -0.02443,-0.88185 q -0.0477,-0.0431 -0.118666,-0.0756 -0.0698,-0.0337 -0.143097,-0.0337 -0.120993,0 -0.194287,0.1047 -0.07329,0.10355 -0.07329,0.28155 0,0.17567 0.05933,0.27572 0.0605,0.10005 0.186143,0.10005 0.07446,0 0.151241,-0.0337 0.07795,-0.0349 0.132627,-0.0849 z"
         style="font-style:normal;font-variant:normal;font-weight:bold;font-stretch:normal;font-family:Vemana2000;-inkscape-font-specification:Vemana2000;fill:#cccccc;stroke-width:0.05956574"
         id="path925" />
      <path
         d="m 22.430709,209.97142 v -0.11867 q -0.08376,0.071 -0.176836,0.11285 -0.09307,0.0419 -0.211738,0.0419 -0.230352,0 -0.352508,-0.16637 -0.122156,-0.16636 -0.122156,-0.47001 0,-0.31063 0.13379,-0.48281 0.134954,-0.17218 0.378103,-0.17218 0.08609,0 0.176836,0.0361 0.09074,0.0349 0.150077,0.0896 v -0.60264 h 0.300156 v 1.73229 z m -0.02443,-0.88185 q -0.0477,-0.0431 -0.118666,-0.0756 -0.0698,-0.0337 -0.143097,-0.0337 -0.120993,0 -0.194287,0.1047 -0.07329,0.10355 -0.07329,0.28155 0,0.17567 0.05933,0.27572 0.0605,0.10005 0.186142,0.10005 0.07446,0 0.151242,-0.0337 0.07795,-0.0349 0.132626,-0.0849 z"
         style="font-style:normal;font-variant:normal;font-weight:bold;font-stretch:normal;font-family:Vemana2000;-inkscape-font-specification:Vemana2000;fill:#cccccc;stroke-width:0.05956574"
         id="path927" />
      <path
         d="m 23.29162,209.43975 q 0.0081,0.16287 0.07911,0.23384 0.07097,0.071 0.223372,0.071 0.08842,0 0.154731,-0.0221 0.06748,-0.0221 0.117503,-0.0849 l 0.223371,0.15938 q -0.07329,0.10587 -0.190796,0.15822 -0.116339,0.0524 -0.31877,0.0524 -0.301319,0 -0.450233,-0.15823 -0.147751,-0.15822 -0.147751,-0.47815 0,-0.65499 0.58635,-0.65499 0.2606,0 0.396717,0.14775 0.137281,0.14659 0.137281,0.42813 v 0.14775 z m 0.513056,-0.20708 q 0,-0.27806 -0.243149,-0.27806 -0.08027,0 -0.131464,0.0279 -0.05119,0.0267 -0.0826,0.0814 -0.03025,0.0535 -0.0477,0.1687 z"
         style="font-style:normal;font-variant:normal;font-weight:bold;font-stretch:normal;font-family:Vemana2000;-inkscape-font-specification:Vemana2000;fill:#cccccc;stroke-width:0.05956574"
         id="path929" />
      <path
         d="m 25.111167,209.0442 q -0.04654,-0.0233 -0.12332,-0.0233 -0.08376,0 -0.159385,0.0407 -0.07446,0.0396 -0.153568,0.11634 v 0.79343 h -0.300155 v -1.2204 h 0.300155 v 0.17451 q 0.07678,-0.0838 0.165202,-0.13844 0.08842,-0.0547 0.197777,-0.0547 0.09307,0 0.132627,0.0244 z"
         style="font-style:normal;font-variant:normal;font-weight:bold;font-stretch:normal;font-family:Vemana2000;-inkscape-font-specification:Vemana2000;fill:#cccccc;stroke-width:0.05956574"
         id="path931" />
      <path
         d="m 26.567735,208.49391 q -0.08376,-0.0279 -0.161711,-0.0279 -0.08842,0 -0.122157,0.0372 -0.03258,0.0361 -0.03258,0.12913 v 0.11867 h 0.247803 v 0.2385 h -0.247803 v 0.9819 h -0.300155 v -0.9819 h -0.154731 v -0.2385 h 0.154731 v -0.11867 q 0,-0.22686 0.111686,-0.32807 0.112849,-0.10122 0.338547,-0.10122 0.105869,0 0.224535,0.0291 z m 0.440926,-0.0756 q 0,0.0849 -0.04188,0.11867 -0.04188,0.0337 -0.127973,0.0337 -0.0954,0 -0.1303,-0.0396 -0.03374,-0.0396 -0.03374,-0.11285 0,-0.0814 0.03723,-0.11634 0.03723,-0.0361 0.12681,-0.0361 0.09074,0 0.1303,0.0349 0.03956,0.0337 0.03956,0.1175 z m -0.317606,1.55313 v -1.2204 h 0.300155 v 1.2204 z"
         style="font-style:normal;font-variant:normal;font-weight:bold;font-stretch:normal;font-family:Vemana2000;-inkscape-font-specification:Vemana2000;fill:#cccccc;stroke-width:0.05956574"
         id="path933" />
      <path
         d="m 27.329757,209.97142 v -1.73229 h 0.300156 v 1.73229 z"
         style="font-style:normal;font-variant:normal;font-weight:bold;font-stretch:normal;font-family:Vemana2000;-inkscape-font-specification:Vemana2000;fill:#cccccc;stroke-width:0.05956574"
         id="path935" />
      <path
         d="m 28.642064,209.97142 q -0.120993,0.0361 -0.254783,0.0361 -0.211738,0 -0.304809,-0.0954 -0.09307,-0.0954 -0.09307,-0.30947 v -0.6131 h -0.154731 v -0.2385 H 27.9894 v -0.33971 h 0.300156 v 0.33971 h 0.283868 v 0.2385 h -0.283868 v 0.57471 q 0,0.11402 0.0349,0.15473 0.03607,0.0407 0.101215,0.0407 0.0826,0 0.164038,-0.0337 z"
         style="font-style:normal;font-variant:normal;font-weight:bold;font-stretch:normal;font-family:Vemana2000;-inkscape-font-specification:Vemana2000;fill:#cccccc;stroke-width:0.05956574"
         id="path937" />
      <path
         d="m 29.052743,209.43975 q 0.0081,0.16287 0.07911,0.23384 0.07097,0.071 0.223372,0.071 0.08842,0 0.154731,-0.0221 0.06748,-0.0221 0.117503,-0.0849 l 0.223371,0.15938 q -0.07329,0.10587 -0.190796,0.15822 -0.11634,0.0524 -0.31877,0.0524 -0.301319,0 -0.450233,-0.15823 -0.147751,-0.15822 -0.147751,-0.47815 0,-0.65499 0.58635,-0.65499 0.2606,0 0.396717,0.14775 0.13728,0.14659 0.13728,0.42813 v 0.14775 z m 0.513057,-0.20708 q 0,-0.27806 -0.243149,-0.27806 -0.08028,0 -0.131464,0.0279 -0.05119,0.0267 -0.0826,0.0814 -0.03025,0.0535 -0.0477,0.1687 z"
         style="font-style:normal;font-variant:normal;font-weight:bold;font-stretch:normal;font-family:Vemana2000;-inkscape-font-specification:Vemana2000;fill:#cccccc;stroke-width:0.05956574"
         id="path939" />
      <path
         d="m 30.87229,209.0442 q -0.04654,-0.0233 -0.12332,-0.0233 -0.08376,0 -0.159385,0.0407 -0.07446,0.0396 -0.153568,0.11634 v 0.79343 h -0.300155 v -1.2204 h 0.300155 v 0.17451 q 0.07678,-0.0838 0.165202,-0.13844 0.08842,-0.0547 0.197777,-0.0547 0.09307,0 0.132627,0.0244 z"
         style="font-style:normal;font-variant:normal;font-weight:bold;font-stretch:normal;font-family:Vemana2000;-inkscape-font-specification:Vemana2000;fill:#cccccc;stroke-width:0.05956574"
         id="path941" />
    </g>
    <rect
       rx="4.5635505"
       y="242.32312"
       x="4.1171346"
       height="18.439972"
       width="32.141556"
       id="rect9305-9"
       style="display:inline;fill:#333333;stroke:none;stroke-width:0.65775919;stroke-miterlimit:4;stroke-dasharray:none;stroke-opacity:1" />
    <g
       id="text9293-4"
       style="font-style:normal;font-weight:normal;font-size:7.34615898px;line-height:1.25;font-family:sans-serif;letter-spacing:0px;word-spacing:0px;display:inline;fill:#cccccc;fill-opacity:1;stroke:none;stroke-width:0.18365398"
       aria-label="RESONANCE"
       transform="translate(0.11713394,-0.58675583)">
      <path
         id="path993"
         style="font-style:normal;font-variant:normal;font-weight:bold;font-stretch:normal;font-size:2.4487195px;font-family:Waree;-inkscape-font-specification:'Waree Bold';fill:#cccccc;stroke-width:0.18365398"
         d="m 8.1774248,259.09101 q 0,-0.12555 -0.065762,-0.17576 -0.065762,-0.0514 -0.2044586,-0.0514 h -0.193697 v 0.45794 h 0.1936975 q 0.149458,0 0.2092412,-0.0562 0.060979,-0.0562 0.060979,-0.17457 z m 0.4603305,-0.0682 q 0,0.35033 -0.3431555,0.45794 0.1040228,0.0239 0.1769583,0.10641 0.074131,0.0825 0.1434796,0.2212 l 0.2498938,0.50696 H 8.3747093 l -0.2176108,-0.44359 q -0.060979,-0.12555 -0.1291317,-0.17816 -0.066957,-0.0538 -0.1841322,-0.0538 H 7.7135072 v 0.67555 H 7.2531766 v -1.78513 H 7.956227 q 0.1925018,0 0.3276118,0.0347 0.1351101,0.0347 0.2116325,0.10163 0.076522,0.067 0.1088055,0.15424 0.033479,0.0861 0.033479,0.20207 z"
         inkscape:connector-curvature="0" />
      <path
         id="path995"
         style="font-style:normal;font-variant:normal;font-weight:bold;font-stretch:normal;font-size:2.4487195px;font-family:Waree;-inkscape-font-specification:'Waree Bold';fill:#cccccc;stroke-width:0.18365398"
         d="m 9.1375428,258.53024 h 1.2422942 v 0.34794 H 9.5978734 v 0.3324 h 0.7353336 v 0.34793 H 9.5978734 v 0.40892 h 0.8082686 v 0.34794 H 9.1375428 Z"
         inkscape:connector-curvature="0" />
      <path
         id="path997"
         style="font-style:normal;font-variant:normal;font-weight:bold;font-stretch:normal;font-size:2.4487195px;font-family:Waree;-inkscape-font-specification:'Waree Bold';fill:#cccccc;stroke-width:0.18365398"
         d="m 11.42963,258.49796 q 0.296525,0 0.624137,0.0885 v 0.37783 q -0.296525,-0.13272 -0.551201,-0.13272 -0.174567,0 -0.248698,0.049 -0.07413,0.0478 -0.07413,0.1375 0,0.0753 0.05739,0.11479 0.05739,0.0383 0.188915,0.0658 l 0.196089,0.0395 q 0.28696,0.0574 0.417287,0.17815 0.131523,0.11957 0.131523,0.35033 0,0.30609 -0.181741,0.44479 -0.181741,0.13869 -0.528483,0.13869 -0.338373,0 -0.682724,-0.12793 v -0.38859 q 0.346742,0.18293 0.638484,0.18293 0.09446,0 0.159023,-0.0179 0.06576,-0.0191 0.09685,-0.0502 0.03109,-0.0323 0.04304,-0.0622 0.01196,-0.0299 0.01196,-0.0634 0,-0.0897 -0.06217,-0.13392 -0.06098,-0.0442 -0.209241,-0.0765 l -0.178154,-0.0395 q -0.254676,-0.0562 -0.385004,-0.17696 -0.130327,-0.12076 -0.130327,-0.34435 0,-0.2762 0.176958,-0.41489 0.176958,-0.1387 0.490222,-0.1387 z"
         inkscape:connector-curvature="0" />
      <path
         id="path999"
         style="font-style:normal;font-variant:normal;font-weight:bold;font-stretch:normal;font-size:2.4487195px;font-family:Waree;-inkscape-font-specification:'Waree Bold';fill:#cccccc;stroke-width:0.18365398"
         d="m 13.809001,259.66134 q 0.0263,-0.10641 0.0263,-0.23674 0,-0.13033 -0.0263,-0.23674 -0.0263,-0.10642 -0.07891,-0.18653 -0.05261,-0.0813 -0.138697,-0.12554 -0.08609,-0.0442 -0.199676,-0.0442 -0.149458,0 -0.25109,0.0789 -0.100435,0.0777 -0.145871,0.20805 -0.04544,0.13033 -0.04544,0.30609 0,0.26902 0.110001,0.43044 0.111197,0.16141 0.332395,0.16141 0.113588,0 0.199676,-0.0442 0.08609,-0.0442 0.138697,-0.12435 0.05261,-0.0813 0.07891,-0.18652 z m -1.091641,0.44479 q -0.243915,-0.24392 -0.243915,-0.68153 0,-0.43761 0.243915,-0.68153 0.245111,-0.24511 0.674355,-0.24511 0.430439,0 0.674354,0.24392 0.243915,0.24391 0.243915,0.68272 0,0.43761 -0.245111,0.68153 -0.243915,0.24391 -0.673158,0.24391 -0.429244,0 -0.674355,-0.24391 z"
         inkscape:connector-curvature="0" />
      <path
         id="path1001"
         style="font-style:normal;font-variant:normal;font-weight:bold;font-stretch:normal;font-size:2.4487195px;font-family:Waree;-inkscape-font-specification:'Waree Bold';fill:#cccccc;stroke-width:0.18365398"
         d="m 14.656727,258.53024 h 0.514135 l 0.649246,1.22436 v -1.22436 h 0.436417 v 1.78513 H 15.74239 l -0.649246,-1.22436 v 1.22436 h -0.436417 z"
         inkscape:connector-curvature="0" />
      <path
         id="path1003"
         style="font-style:normal;font-variant:normal;font-weight:bold;font-stretch:normal;font-size:2.4487195px;font-family:Waree;-inkscape-font-specification:'Waree Bold';fill:#cccccc;stroke-width:0.18365398"
         d="m 17.791757,259.99015 h -0.71979 l -0.113588,0.32522 h -0.462722 l 0.661202,-1.78513 h 0.54881 l 0.661202,1.78513 h -0.462722 z m -0.605006,-0.3312 h 0.489027 l -0.243916,-0.71023 z"
         inkscape:connector-curvature="0" />
      <path
         id="path1005"
         style="font-style:normal;font-variant:normal;font-weight:bold;font-stretch:normal;font-size:2.4487195px;font-family:Waree;-inkscape-font-specification:'Waree Bold';fill:#cccccc;stroke-width:0.18365398"
         d="m 18.602418,258.53024 h 0.514135 l 0.649246,1.22436 v -1.22436 h 0.436417 v 1.78513 h -0.514135 l -0.649246,-1.22436 v 1.22436 h -0.436417 z"
         inkscape:connector-curvature="0" />
      <path
         id="path1007"
         style="font-style:normal;font-variant:normal;font-weight:bold;font-stretch:normal;font-size:2.4487195px;font-family:Waree;-inkscape-font-specification:'Waree Bold';fill:#cccccc;stroke-width:0.18365398"
         d="m 21.555707,260.01645 q 0.267829,0 0.514136,-0.16859 v 0.36946 q -0.254677,0.13272 -0.551201,0.13272 -0.448374,0 -0.707833,-0.2475 -0.259459,-0.2487 -0.259459,-0.67794 0,-0.42924 0.258263,-0.67794 0.259459,-0.2487 0.709029,-0.2487 0.296524,0 0.551201,0.13272 v 0.36946 q -0.248698,-0.16859 -0.514136,-0.16859 -0.251089,0 -0.389786,0.16022 -0.138697,0.15902 -0.138697,0.43283 0,0.27381 0.138697,0.43283 0.138697,0.15902 0.389786,0.15902 z"
         inkscape:connector-curvature="0" />
      <path
         id="path1009"
         style="font-style:normal;font-variant:normal;font-weight:bold;font-stretch:normal;font-size:2.4487195px;font-family:Waree;-inkscape-font-specification:'Waree Bold';fill:#cccccc;stroke-width:0.18365398"
         d="m 22.452455,258.53024 h 1.242294 v 0.34794 h -0.781964 v 0.3324 h 0.735333 v 0.34793 h -0.735333 v 0.40892 h 0.808269 v 0.34794 h -1.268599 z"
         inkscape:connector-curvature="0" />
    </g>
    <path
       sodipodi:open="true"
       transform="scale(1,-1)"
       d="m 18.226896,-252.75405 a 6.0800848,6.0800848 0 0 1 -1.357304,7.69766 6.0800848,6.0800848 0 0 1 -7.8164064,0 6.0800848,6.0800848 0 0 1 -1.357305,-7.69766"
       sodipodi:end="3.6651914"
       sodipodi:start="5.7595865"
       sodipodi:ry="6.0800848"
       sodipodi:rx="6.0800848"
       sodipodi:cy="-249.714"
       sodipodi:cx="12.961389"
       sodipodi:type="arc"
       id="path8216-1"
       style="display:inline;fill:none;stroke:#cccccc;stroke-width:0.52916664;stroke-miterlimit:4;stroke-dasharray:none;stroke-opacity:1" />
    <rect
       rx="4.5635505"
       y="216.81233"
       x="4.1171346"
       height="22.930101"
       width="32.141556"
       id="rect9305"
       style="display:inline;fill:#333333;stroke:none;stroke-width:0.73348248;stroke-miterlimit:4;stroke-dasharray:none;stroke-opacity:1" />
    <g
       id="text9293"
       style="font-style:normal;font-weight:normal;font-size:7.34615898px;line-height:1.25;font-family:sans-serif;letter-spacing:0px;word-spacing:0px;display:inline;fill:#cccccc;fill-opacity:1;stroke:none;stroke-width:0.18365398"
       aria-label="CUTOFF"
       transform="translate(0.11713394,-0.58675583)">
      <path
         id="path980"
         style="font-style:normal;font-variant:normal;font-weight:bold;font-stretch:normal;font-size:2.4487195px;font-family:Waree;-inkscape-font-specification:'Waree Bold';fill:#cccccc;stroke-width:0.18365398"
         d="m 9.3850767,238.43439 q 0.2678287,0 0.5141355,-0.16859 v 0.36946 q -0.2546764,0.13272 -0.5512011,0.13272 -0.4483739,0 -0.7078329,-0.2475 -0.2594591,-0.2487 -0.2594591,-0.67794 0,-0.42925 0.2582634,-0.67794 0.259459,-0.2487 0.7090286,-0.2487 0.2965247,0 0.5512011,0.13272 v 0.36946 q -0.2486981,-0.16859 -0.5141355,-0.16859 -0.2510894,0 -0.3897864,0.16022 -0.138697,0.15902 -0.138697,0.43283 0,0.2738 0.138697,0.43283 0.138697,0.15902 0.3897864,0.15902 z"
         inkscape:connector-curvature="0" />
      <path
         id="path982"
         style="font-style:normal;font-variant:normal;font-weight:bold;font-stretch:normal;font-size:2.4487195px;font-family:Waree;-inkscape-font-specification:'Waree Bold';fill:#cccccc;stroke-width:0.18365398"
         d="m 11.050636,238.76798 q -0.386199,0 -0.577505,-0.18413 -0.191306,-0.18533 -0.191306,-0.56555 v -1.07012 h 0.46033 v 1.07012 q 0,0.21044 0.06935,0.31087 0.06935,0.10044 0.239132,0.10044 0.174567,0 0.241524,-0.10283 0.06815,-0.10283 0.06815,-0.30848 v -1.07012 h 0.460331 v 1.07012 q 0,0.38142 -0.191306,0.56555 -0.191307,0.18413 -0.578702,0.18413 z"
         inkscape:connector-curvature="0" />
      <path
         id="path984"
         style="font-style:normal;font-variant:normal;font-weight:bold;font-stretch:normal;font-size:2.4487195px;font-family:Waree;-inkscape-font-specification:'Waree Bold';fill:#cccccc;stroke-width:0.18365398"
         d="m 12.058581,236.94818 h 1.645233 v 0.34794 h -0.591853 v 1.43719 H 12.65163 v -1.43719 h -0.593049 z"
         inkscape:connector-curvature="0" />
      <path
         id="path986"
         style="font-style:normal;font-variant:normal;font-weight:bold;font-stretch:normal;font-size:2.4487195px;font-family:Waree;-inkscape-font-specification:'Waree Bold';fill:#cccccc;stroke-width:0.18365398"
         d="m 15.130241,238.07928 q 0.02631,-0.10642 0.02631,-0.23674 0,-0.13033 -0.02631,-0.23674 -0.0263,-0.10642 -0.07891,-0.18653 -0.05261,-0.0813 -0.138697,-0.12554 -0.08609,-0.0442 -0.199675,-0.0442 -0.149458,0 -0.25109,0.0789 -0.100436,0.0777 -0.145871,0.20805 -0.04543,0.13032 -0.04543,0.30609 0,0.26902 0.110001,0.43044 0.111197,0.16141 0.332395,0.16141 0.113588,0 0.199675,-0.0442 0.08609,-0.0442 0.138697,-0.12435 0.05261,-0.0813 0.07891,-0.18652 z m -1.091641,0.44479 q -0.243915,-0.24392 -0.243915,-0.68153 0,-0.43762 0.243915,-0.68153 0.245111,-0.24511 0.674355,-0.24511 0.430439,0 0.674354,0.24391 0.243915,0.24392 0.243915,0.68273 0,0.43761 -0.245111,0.68153 -0.243915,0.24391 -0.673158,0.24391 -0.429244,0 -0.674355,-0.24391 z"
         inkscape:connector-curvature="0" />
      <path
         id="path988"
         style="font-style:normal;font-variant:normal;font-weight:bold;font-stretch:normal;font-size:2.4487195px;font-family:Waree;-inkscape-font-specification:'Waree Bold';fill:#cccccc;stroke-width:0.18365398"
         d="m 15.977967,236.94818 h 1.242295 v 0.34794 h -0.781964 v 0.33239 h 0.735333 v 0.34794 h -0.735333 v 0.75686 h -0.460331 z"
         inkscape:connector-curvature="0" />
      <path
         id="path990"
         style="font-style:normal;font-variant:normal;font-weight:bold;font-stretch:normal;font-size:2.4487195px;font-family:Waree;-inkscape-font-specification:'Waree Bold';fill:#cccccc;stroke-width:0.18365398"
         d="m 17.651896,236.94818 h 1.242295 v 0.34794 h -0.781964 v 0.33239 h 0.735333 v 0.34794 h -0.735333 v 0.75686 h -0.460331 z"
         inkscape:connector-curvature="0" />
    </g>
    <path
       transform="scale(1,-1)"
       d="m 31.533756,-249.36149 a 2.8319819,2.8319819 0 0 1 -0.632205,3.58542 2.8319819,2.8319819 0 0 1 -3.640726,0 2.8319819,2.8319819 0 0 1 -0.632205,-3.58542 l 2.452568,1.41599 z"
       sodipodi:end="3.6651914"
       sodipodi:start="5.7595865"
       sodipodi:ry="2.8319819"
       sodipodi:rx="2.8319819"
       sodipodi:cy="-247.9455"
       sodipodi:cx="29.081188"
       sodipodi:type="arc"
       id="path8216-1-5-0-2"
       style="display:inline;fill:none;stroke:#cccccc;stroke-width:0.26458338;stroke-miterlimit:4;stroke-dasharray:none;stroke-opacity:1" />
    <path
       sodipodi:nodetypes="cc"
       inkscape:connector-curvature="0"
       id="path9630-2-6-1"
       d="m 31.441115,249.65997 0.006,1.10261"
       style="display:inline;fill:#cccccc;fill-opacity:1;stroke:#cccccc;stroke-width:0.26458338;stroke-linecap:butt;stroke-linejoin:miter;stroke-miterlimit:4;stroke-dasharray:none;stroke-opacity:1" />
    <path
       inkscape:transform-center-y="0.22178906"
       inkscape:transform-center-x="-1.0162854"
       sodipodi:nodetypes="cc"
       inkscape:connector-curvature="0"
       id="path9630-1-1-4-7"
       d="m 31.995415,250.20337 -1.102617,0.005"
       style="display:inline;fill:#cccccc;fill-opacity:1;stroke:#cccccc;stroke-width:0.26458338;stroke-linecap:butt;stroke-linejoin:miter;stroke-miterlimit:4;stroke-dasharray:none;stroke-opacity:1" />
    <path
       inkscape:transform-center-y="0.22178906"
       inkscape:transform-center-x="-1.0162854"
       sodipodi:nodetypes="cc"
       inkscape:connector-curvature="0"
       id="path9630-1-6-9-9-2"
       d="m 27.417069,250.17206 -1.102618,0.005"
       style="display:inline;fill:#cccccc;fill-opacity:1;stroke:#cccccc;stroke-width:0.26458338;stroke-linecap:butt;stroke-linejoin:miter;stroke-miterlimit:4;stroke-dasharray:none;stroke-opacity:1" />
    <path
       inkscape:connector-curvature="0"
       id="path9948-9-9-4"
       d="m 29.081179,247.94622 -0.0058,-3.32557"
       style="fill:none;stroke:#cccccc;stroke-width:0.28634623;stroke-linecap:butt;stroke-linejoin:miter;stroke-miterlimit:4;stroke-dasharray:none;stroke-opacity:1" />
    <path
       sodipodi:open="true"
       transform="scale(1,-1)"
       d="m 22.250267,-231.98946 a 8.741395,8.741395 0 0 1 -1.951409,11.067 8.741395,8.741395 0 0 1 -11.2377208,0 8.741395,8.741395 0 0 1 -1.95141,-11.067"
       sodipodi:end="3.6651914"
       sodipodi:start="5.7595865"
       sodipodi:ry="8.741395"
       sodipodi:rx="8.741395"
       sodipodi:cy="-227.61876"
       sodipodi:cx="14.679997"
       sodipodi:type="arc"
       id="path8216"
       style="display:inline;fill:none;stroke:#cccccc;stroke-width:0.52916664;stroke-miterlimit:10;stroke-dasharray:none;stroke-opacity:1" />
    <path
       transform="scale(1,-1)"
       d="m 31.621205,-226.09443 a 2.8319821,2.8319821 0 0 1 -0.632206,3.58542 2.8319821,2.8319821 0 0 1 -3.640726,0 2.8319821,2.8319821 0 0 1 -0.632205,-3.58542 l 2.452568,1.41599 z"
       sodipodi:end="3.6651914"
       sodipodi:start="5.7595865"
       sodipodi:ry="2.8319821"
       sodipodi:rx="2.8319821"
       sodipodi:cy="-224.67844"
       sodipodi:cx="29.168636"
       sodipodi:type="arc"
       id="path8216-1-5-0-2-2"
       style="display:inline;fill:none;stroke:#cccccc;stroke-width:0.26458341;stroke-miterlimit:4;stroke-dasharray:none;stroke-opacity:1" />
    <path
       sodipodi:nodetypes="cc"
       inkscape:connector-curvature="0"
       id="path9630-2-6-1-7"
       d="m 31.52856,226.39303 0.006,1.10261"
       style="display:inline;fill:#cccccc;fill-opacity:1;stroke:#cccccc;stroke-width:0.26458341;stroke-linecap:butt;stroke-linejoin:miter;stroke-miterlimit:4;stroke-dasharray:none;stroke-opacity:1" />
    <path
       inkscape:transform-center-y="0.22178906"
       inkscape:transform-center-x="-1.0162854"
       sodipodi:nodetypes="cc"
       inkscape:connector-curvature="0"
       id="path9630-1-1-4-7-0"
       d="m 32.082862,226.93643 -1.102619,0.005"
       style="display:inline;fill:#cccccc;fill-opacity:1;stroke:#cccccc;stroke-width:0.26458341;stroke-linecap:butt;stroke-linejoin:miter;stroke-miterlimit:4;stroke-dasharray:none;stroke-opacity:1" />
    <path
       inkscape:transform-center-y="0.22178906"
       inkscape:transform-center-x="-1.0162854"
       sodipodi:nodetypes="cc"
       inkscape:connector-curvature="0"
       id="path9630-1-6-9-9-2-9"
       d="m 27.504515,226.90512 -1.102618,0.005"
       style="display:inline;fill:#cccccc;fill-opacity:1;stroke:#cccccc;stroke-width:0.26458341;stroke-linecap:butt;stroke-linejoin:miter;stroke-miterlimit:4;stroke-dasharray:none;stroke-opacity:1" />
    <path
       inkscape:connector-curvature="0"
       id="path9948-9-9-4-3"
       d="m 29.168625,224.67928 -0.0058,-3.32557"
       style="fill:none;stroke:#cccccc;stroke-width:0.28634623;stroke-linecap:butt;stroke-linejoin:miter;stroke-miterlimit:4;stroke-dasharray:none;stroke-opacity:1" />
    <rect
       rx="4.5635505"
       y="263.40915"
       x="4.1171346"
       height="15.000389"
       width="32.141556"
       id="rect9305-9-8"
       style="display:inline;fill:#333333;stroke:none;stroke-width:0.59325045;stroke-miterlimit:4;stroke-dasharray:none;stroke-opacity:1" />
    <circle
       r="0.92604166"
       cy="255.06972"
       cx="8.3610086"
       id="path9488-2-9"
       style="display:inline;fill:none;stroke:#cccccc;stroke-width:0.52916664;stroke-miterlimit:4;stroke-dasharray:none;stroke-opacity:1" />
    <circle
       r="0.92604166"
       cy="254.94203"
       cx="17.802425"
       id="path9488-2-6-0"
       style="display:inline;fill:#cccccc;fill-opacity:1;stroke:#cccccc;stroke-width:0.52916664;stroke-miterlimit:4;stroke-dasharray:none;stroke-opacity:1" />
    <circle
       r="0.92604166"
       cy="234.2086"
       cx="8.1409159"
       id="path9488-2-9-7"
       style="display:inline;fill:none;stroke:#cccccc;stroke-width:0.52916664;stroke-miterlimit:4;stroke-dasharray:none;stroke-opacity:1" />
    <circle
       r="0.92604166"
       cy="234.08092"
       cx="21.81567"
       id="path9488-2-6-0-8"
       style="display:inline;fill:#cccccc;fill-opacity:1;stroke:#cccccc;stroke-width:0.52916664;stroke-miterlimit:4;stroke-dasharray:none;stroke-opacity:1" />
    <g
       aria-label="INPUT"
       style="font-style:normal;font-weight:normal;font-size:7.3461585px;line-height:1.25;font-family:sans-serif;letter-spacing:0px;word-spacing:0px;display:inline;fill:#1a1a1a;fill-opacity:1;stroke:none;stroke-width:0.18365398"
       id="text9293-3-6">
      <path
         d="m 16.301548,289.18021 h 0.460331 v 1.78512 h -0.460331 z"
         style="font-style:normal;font-variant:normal;font-weight:bold;font-stretch:normal;font-size:2.4487195px;font-family:Waree;-inkscape-font-specification:'Waree Bold';fill:#1a1a1a;stroke-width:0.18365398"
         id="path962" />
      <path
         d="m 17.215035,289.18021 h 0.514136 l 0.649245,1.22436 v -1.22436 h 0.436417 v 1.78512 h -0.514135 l -0.649246,-1.22436 v 1.22436 h -0.436417 z"
         style="font-style:normal;font-variant:normal;font-weight:bold;font-stretch:normal;font-size:2.4487195px;font-family:Waree;-inkscape-font-specification:'Waree Bold';fill:#1a1a1a;stroke-width:0.18365398"
         id="path964" />
      <path
         d="m 20.548546,289.32608 q 0.187719,0.14587 0.187719,0.43641 0,0.29055 -0.187719,0.43762 -0.187719,0.14587 -0.517723,0.14587 h -0.303698 v 0.61935 h -0.460331 v -1.78512 h 0.764029 q 0.331199,0 0.517723,0.14587 z m -0.28696,0.43641 q 0,-0.12195 -0.07413,-0.18532 -0.07294,-0.0634 -0.205654,-0.0634 h -0.254676 v 0.49859 h 0.254676 q 0.132719,0 0.205654,-0.0634 0.07413,-0.0646 0.07413,-0.18653 z"
         style="font-style:normal;font-variant:normal;font-weight:bold;font-stretch:normal;font-size:2.4487195px;font-family:Waree;-inkscape-font-specification:'Waree Bold';fill:#1a1a1a;stroke-width:0.18365398"
         id="path966" />
      <path
         d="m 21.829102,291.00001 q -0.3862,0 -0.577506,-0.18414 -0.191306,-0.18532 -0.191306,-0.56554 v -1.07012 h 0.46033 v 1.07012 q 0,0.21043 0.06935,0.31087 0.06935,0.10043 0.239133,0.10043 0.174567,0 0.241524,-0.10282 0.06815,-0.10283 0.06815,-0.30848 v -1.07012 h 0.46033 v 1.07012 q 0,0.38141 -0.191306,0.56554 -0.191306,0.18414 -0.578701,0.18414 z"
         style="font-style:normal;font-variant:normal;font-weight:bold;font-stretch:normal;font-size:2.4487195px;font-family:Waree;-inkscape-font-specification:'Waree Bold';fill:#1a1a1a;stroke-width:0.18365398"
         id="path968" />
      <path
         d="m 22.837046,289.18021 h 1.645234 v 0.34793 h -0.591854 v 1.43719 h -0.460331 v -1.43719 h -0.593049 z"
         style="font-style:normal;font-variant:normal;font-weight:bold;font-stretch:normal;font-size:2.4487195px;font-family:Waree;-inkscape-font-specification:'Waree Bold';fill:#1a1a1a;stroke-width:0.18365398"
         id="path970" />
    </g>
    <g
       aria-label="24 dB"
       style="font-style:normal;font-weight:normal;font-size:10.58333302px;line-height:1.25;font-family:sans-serif;letter-spacing:0px;word-spacing:0px;fill:#cccccc;fill-opacity:1;stroke:none;stroke-width:0.26458332"
       id="text1444">
      <path
         d="m 24.579403,275.9498 v -0.36587 q 0.252697,-0.21239 0.460437,-0.40618 0.207739,-0.19378 0.32091,-0.32091 0.113172,-0.12867 0.175183,-0.24494 0.06356,-0.11783 0.06356,-0.2465 0,-0.10077 -0.07596,-0.15968 -0.07596,-0.0589 -0.20929,-0.0589 -0.144177,0 -0.235644,0.0667 -0.09147,0.0667 -0.151929,0.15813 l -0.353467,-0.24805 q 0.131775,-0.19688 0.311609,-0.2806 0.181385,-0.0837 0.451135,-0.0837 0.331763,0 0.522449,0.15503 0.192237,0.15503 0.192237,0.43564 0,0.20619 -0.07597,0.36276 -0.07441,0.15503 -0.21394,0.30231 -0.137976,0.14573 -0.345716,0.32246 -0.206189,0.17674 -0.254248,0.21239 h 0.959632 v 0.39998 z"
         style="font-weight:bold;font-size:3.17499995px;fill:#cccccc;stroke-width:0.26458332"
         id="path953" />
      <path
         d="m 27.875325,275.59478 v 0.35502 h -0.418579 v -0.35502 h -1.077453 v -0.40307 l 1.047998,-1.38752 h 0.448034 v 1.41542 h 0.26355 v 0.37517 z m -0.418579,-1.21698 -0.651123,0.84181 h 0.651123 z"
         style="font-weight:bold;font-size:3.17499995px;fill:#cccccc;stroke-width:0.26458332"
         id="path955" />
      <path
         d="m 30.321688,275.9498 v -0.15813 q -0.111622,0.0946 -0.235645,0.15038 -0.124023,0.0558 -0.282153,0.0558 -0.306958,0 -0.469739,-0.22169 -0.162781,-0.2217 -0.162781,-0.62632 0,-0.41393 0.178284,-0.64337 0.179834,-0.22945 0.503845,-0.22945 0.114722,0 0.235645,0.0481 0.120922,0.0465 0.199987,0.11937 v -0.80305 h 0.399976 v 2.30839 z m -0.03256,-1.17512 q -0.06356,-0.0574 -0.158129,-0.10077 -0.09302,-0.045 -0.190686,-0.045 -0.161231,0 -0.258899,0.13953 -0.09767,0.13797 -0.09767,0.37517 0,0.23409 0.07906,0.36742 0.08062,0.13332 0.248047,0.13332 0.09922,0 0.201538,-0.045 0.10387,-0.0465 0.176733,-0.11317 z"
         style="font-weight:bold;font-size:3.17499995px;fill:#cccccc;stroke-width:0.26458332"
         id="path957" />
      <path
         d="m 32.789754,275.32813 q 0,0.32246 -0.221692,0.47284 -0.221692,0.14883 -0.615466,0.14883 h -0.806153 v -2.14561 h 0.758094 q 0.412378,0 0.590661,0.12093 0.178284,0.11937 0.178284,0.37982 0,0.19999 -0.09767,0.32401 -0.09612,0.12402 -0.302307,0.16588 0.269751,0.0372 0.392224,0.17053 0.124024,0.13333 0.124024,0.36277 z m -0.558106,-0.92707 q 0,-0.12248 -0.08992,-0.16899 -0.08992,-0.0481 -0.279052,-0.0481 h -0.279053 v 0.46044 h 0.26665 q 0.193787,0 0.286805,-0.0543 0.09457,-0.0543 0.09457,-0.18913 z m 0.111622,0.88831 q 0,-0.14417 -0.09767,-0.20308 -0.09767,-0.0605 -0.365869,-0.0605 h -0.296106 v 0.53641 h 0.221692 q 0.255798,0 0.351916,-0.0248 0.09767,-0.0248 0.141077,-0.0837 0.04496,-0.0589 0.04496,-0.16433 z"
         style="font-weight:bold;font-size:3.17499995px;fill:#cccccc;stroke-width:0.26458332"
         id="path959" />
    </g>
    <g
       aria-label="12 dB"
       style="font-style:normal;font-weight:normal;font-size:10.58333302px;line-height:1.25;font-family:sans-serif;letter-spacing:0px;word-spacing:0px;fill:#cccccc;fill-opacity:1;stroke:none;stroke-width:0.26458332"
       id="text1444-3">
      <path
         d="m 8.9868168,275.9895 v -1.43867 H 8.4659183 v -0.29456 q 0.2232422,-0.0139 0.3364136,-0.0527 0.1147217,-0.0403 0.1813843,-0.12402 0.068213,-0.0837 0.1069702,-0.23564 h 0.333313 v 2.1456 z"
         style="font-weight:bold;font-size:3.17499995px;fill:#cccccc;stroke-width:0.26458332"
         id="path944" />
      <path
         d="m 10.230152,275.9895 v -0.36587 q 0.252697,-0.21239 0.460437,-0.40617 0.207739,-0.19379 0.32091,-0.32091 0.113172,-0.12868 0.175183,-0.24495 0.06356,-0.11782 0.06356,-0.2465 0,-0.10077 -0.07597,-0.15968 -0.07596,-0.0589 -0.209289,-0.0589 -0.144178,0 -0.235645,0.0667 -0.09147,0.0667 -0.151929,0.15813 l -0.353466,-0.24804 q 0.131774,-0.19689 0.311608,-0.28061 0.181385,-0.0837 0.451136,-0.0837 0.331762,0 0.522448,0.15503 0.192237,0.15503 0.192237,0.43563 0,0.20619 -0.07597,0.36277 -0.07441,0.15503 -0.21394,0.30231 -0.137976,0.14572 -0.345715,0.32246 -0.206189,0.17673 -0.254248,0.21239 h 0.959631 v 0.39997 z"
         style="font-weight:bold;font-size:3.17499995px;fill:#cccccc;stroke-width:0.26458332"
         id="path946" />
      <path
         d="m 13.988062,275.9895 v -0.15813 q -0.111621,0.0946 -0.235645,0.15038 -0.124023,0.0558 -0.282153,0.0558 -0.306958,0 -0.469739,-0.22169 -0.162781,-0.22169 -0.162781,-0.62632 0,-0.41393 0.178284,-0.64337 0.179834,-0.22944 0.503845,-0.22944 0.114722,0 0.235645,0.0481 0.120923,0.0465 0.199988,0.11938 v -0.80305 h 0.399975 v 2.30838 z m -0.03256,-1.17512 q -0.06356,-0.0574 -0.15813,-0.10077 -0.09302,-0.045 -0.190686,-0.045 -0.161231,0 -0.258899,0.13953 -0.09767,0.13797 -0.09767,0.37517 0,0.23409 0.07906,0.36742 0.08062,0.13332 0.248047,0.13332 0.09922,0 0.201538,-0.045 0.10387,-0.0465 0.176734,-0.11318 z"
         style="font-weight:bold;font-size:3.17499995px;fill:#cccccc;stroke-width:0.26458332"
         id="path948" />
      <path
         d="m 16.456128,275.36783 q 0,0.32247 -0.221692,0.47284 -0.221692,0.14883 -0.615466,0.14883 h -0.806152 v -2.1456 h 0.758093 q 0.412378,0 0.590661,0.12092 0.178284,0.11937 0.178284,0.37982 0,0.19999 -0.09767,0.32401 -0.09612,0.12403 -0.302307,0.16588 0.269751,0.0372 0.392224,0.17054 0.124023,0.13332 0.124023,0.36276 z m -0.558105,-0.92707 q 0,-0.12247 -0.08992,-0.16898 -0.08992,-0.0481 -0.279053,-0.0481 H 15.25 v 0.46044 h 0.266651 q 0.193786,0 0.286804,-0.0543 0.09457,-0.0543 0.09457,-0.18914 z m 0.111621,0.88832 q 0,-0.14418 -0.09767,-0.20309 -0.09767,-0.0605 -0.365869,-0.0605 H 15.25 v 0.5364 h 0.221692 q 0.255798,0 0.351917,-0.0248 0.09767,-0.0248 0.141076,-0.0837 0.04496,-0.0589 0.04496,-0.16433 z"
         style="font-weight:bold;font-size:3.17499995px;fill:#cccccc;stroke-width:0.26458332"
         id="path950" />
    </g>
  </g>
</svg>
