<?xml version="1.0" encoding="UTF-8" standalone="no"?>
<!-- Created with Inkscape (http://www.inkscape.org/) -->

<svg
   xmlns:dc="http://purl.org/dc/elements/1.1/"
   xmlns:cc="http://creativecommons.org/ns#"
   xmlns:rdf="http://www.w3.org/1999/02/22-rdf-syntax-ns#"
   xmlns:svg="http://www.w3.org/2000/svg"
   xmlns="http://www.w3.org/2000/svg"
   xmlns:sodipodi="http://sodipodi.sourceforge.net/DTD/sodipodi-0.dtd"
   xmlns:inkscape="http://www.inkscape.org/namespaces/inkscape"
   width="149.88928"
   height="380"
   viewBox="0 0 39.658205 100.54167"
   version="1.1"
   id="svg9749"
   inkscape:version="0.92.2 5c3e80d, 2017-08-06"
   sodipodi:docname="Rescomb.svg"
   inkscape:export-filename="/home/leonardo/Development/VultArtwork/Rescomb-render.png"
   inkscape:export-xdpi="96"
   inkscape:export-ydpi="96">
  <defs
     id="defs9743" />
  <sodipodi:namedview
     id="base"
     pagecolor="#ffffff"
     bordercolor="#666666"
     borderopacity="1.0"
     inkscape:pageopacity="0.0"
     inkscape:pageshadow="2"
     inkscape:zoom="1.4142136"
     inkscape:cx="-40.187901"
     inkscape:cy="164.78123"
     inkscape:document-units="mm"
     inkscape:current-layer="layer1"
     showgrid="false"
     units="px"
     inkscape:window-width="1680"
     inkscape:window-height="988"
     inkscape:window-x="0"
     inkscape:window-y="34"
     inkscape:window-maximized="1" />
  <metadata
     id="metadata9746">
    <rdf:RDF>
      <cc:Work
         rdf:about="">
        <dc:format>image/svg+xml</dc:format>
        <dc:type
           rdf:resource="http://purl.org/dc/dcmitype/StillImage" />
        <dc:title></dc:title>
      </cc:Work>
    </rdf:RDF>
  </metadata>
  <g
     inkscape:label="Layer 1"
     inkscape:groupmode="layer"
     id="layer1"
     transform="translate(0,-196.45833)">
    <rect
       style="fill:#808080;fill-opacity:1;stroke:none;stroke-width:0.54256618;stroke-miterlimit:4;stroke-dasharray:none;stroke-opacity:1"
       id="rect9931"
       width="39.584042"
       height="100.45829"
       x="0.053925231"
       y="196.51166" />
    <rect
       style="fill:#333333;stroke-width:0.22742687"
       id="rect8093"
       width="33.299625"
       height="8.7606611"
       x="3.4882345"
       y="203.28923"
       rx="2.7123952" />
    <g
       id="g8091"
       transform="matrix(0.01096736,0,0,0.01096736,8.2447216,207.01729)">
      <path
         id="path4"
         d="m 210.28218,78.870045 c 0,-125.517 -101.752,-227.268005 -227.270998,-227.268005 -125.514002,0 -227.267002,101.751005 -227.267002,227.268005 0,125.515995 101.752,227.267995 227.267002,227.267995 125.518998,0 227.270998,-101.752 227.270998,-227.267995 z"
         stroke-miterlimit="10"
         style="fill:#757575;stroke:#353535;stroke-width:17;stroke-miterlimit:10"
         inkscape:connector-curvature="0" />
      <g
         id="g40"
         transform="translate(-426.82482,-542.57496)">
        <polygon
           id="polygon6"
           points="293.899,691.309 310.528,726.941 333.707,762.107 357.002,759.965 372.393,735.184 342.799,668.57 281.111,604.987 "
           style="fill:#2b2b2b" />
        <polygon
           id="polygon8"
           points="523.865,691.514 507.235,727.145 484.06,762.313 460.762,760.17 445.37,735.387 474.967,668.775 536.652,605.193 "
           style="fill:#262626" />
        <path
           id="path10"
           d="M 499.238,664.078"
           inkscape:connector-curvature="0"
           style="fill:#017755" />
        <polygon
           id="polygon12"
           points="342.799,668.57 314.328,652.395 257.223,571.1 255.625,549.52 287.596,491.973 337.948,452.81 409.884,434.427 409.884,808.75 372.316,734.951 "
           style="fill:#424242" />
        <polygon
           id="polygon14"
           points="476.877,668.707 505.35,652.529 562.451,571.234 564.05,549.655 532.081,492.108 481.727,452.944 409.795,434.562 409.795,808.887 447.359,735.086 "
           style="fill:#333333" />
        <polyline
           id="polyline16"
           points="361.886,616.429 409.846,569.542 409.846,603.771 361.886,651.598 361.886,616.429  "
           style="fill:#4c4c4c" />
        <polygon
           id="polygon18"
           points="409.881,603.732 361.924,651.559 372.393,735.184 409.884,808.75 "
           style="fill:#5b5b5b" />
        <polygon
           id="polygon20"
           points="372.393,735.184 409.878,717.512 409.884,808.75 "
           style="fill:#333333" />
        <polygon
           id="polygon22"
           points="285.996,565.237 307.578,615.989 361.924,651.559 361.924,616.39 327.158,572.432 286.039,539.303 "
           style="fill:#ffffff" />
        <polyline
           id="polyline24"
           points="457.816,616.448 409.859,569.561 409.859,603.79 457.816,651.616 457.816,616.448  "
           style="fill:#2d2d2d" />
        <polygon
           id="polygon26"
           points="409.804,603.732 457.758,651.559 447.289,735.184 409.801,808.75 "
           style="fill:#353535" />
        <polygon
           id="polygon28"
           points="447.289,735.184 409.807,717.512 409.801,808.75 "
           style="fill:#191919" />
        <polygon
           id="polygon30"
           points="533.686,565.238 512.108,615.991 457.758,651.559 457.758,616.391 492.523,572.433 533.645,539.303 "
           style="fill:#ffffff" />
        <polyline
           id="polyline32"
           points="338.399,452.22 409.824,569.549 409.67,434.003  "
           style="fill:#383838" />
        <polyline
           id="polyline34"
           points="481.271,452.232 409.846,569.561 410,434.016  "
           style="fill:#2d2d2d" />
        <polygon
           id="polygon36"
           points="361.958,651.596 372.406,735.27 342.815,668.578 "
           style="fill:#333333" />
        <polygon
           id="polygon38"
           points="457.831,652.007 447.383,735.682 476.975,668.989 "
           style="fill:#1c1c1c" />
      </g>
    </g>
    <g
       aria-label="rescomb"
       style="font-style:normal;font-weight:normal;font-size:3.96875095px;line-height:1.25;font-family:sans-serif;letter-spacing:0px;word-spacing:0px;fill:#666666;fill-opacity:1;stroke:none;stroke-width:0.09921876"
       id="text7967">
      <path
         d="m 18.703079,207.86595 v -2.05801 h 0.426331 v 0.22285 q 0.100769,-0.16859 0.197662,-0.22673 0.09883,-0.0601 0.242234,-0.0601 0.05038,0 0.100769,0.0174 0.05038,0.0155 0.07751,0.031 0.02713,0.0155 0.07364,0.0465 l -0.120147,0.3682 q -0.0155,-0.008 -0.04263,-0.0291 -0.02713,-0.0232 -0.05426,-0.0349 -0.02713,-0.0116 -0.06395,-0.0116 -0.09496,0 -0.166657,0.0271 -0.0717,0.0252 -0.116272,0.0756 -0.04263,0.0484 -0.06976,0.1027 -0.02713,0.0523 -0.03876,0.1279 -0.01163,0.0756 -0.0155,0.12984 -0.0039,0.0543 -0.0039,0.1279 v 1.14334 z"
         style="font-style:normal;font-variant:normal;font-weight:bold;font-stretch:normal;font-family:Umpush;-inkscape-font-specification:Umpush;fill:#666666;stroke-width:0.09921876"
         id="path1039" />
      <path
         d="m 20.898682,207.50357 q 0.106583,0 0.189911,-0.0213 0.08333,-0.0232 0.129837,-0.0543 0.04651,-0.0329 0.07945,-0.0756 0.03294,-0.0426 0.04457,-0.0717 0.01163,-0.0291 0.01744,-0.0601 h 0.441833 q -0.06201,0.31587 -0.298431,0.49416 -0.234482,0.17634 -0.606553,0.17634 -0.476715,0 -0.728637,-0.27324 -0.251923,-0.27323 -0.251923,-0.76933 0,-0.50966 0.249985,-0.80615 0.251922,-0.29843 0.711197,-0.29843 0.439895,0 0.687942,0.29068 0.249985,0.29068 0.249985,0.78677 0,0.0543 -0.0039,0.12402 h -1.457275 q 0.01744,0.24611 0.158905,0.40308 0.143402,0.15503 0.385635,0.15503 z m 0.478653,-0.94568 q -0.04263,-0.42633 -0.498031,-0.42633 -0.220917,0 -0.362381,0.12402 -0.139527,0.12209 -0.151154,0.30231 z"
         style="font-style:normal;font-variant:normal;font-weight:bold;font-stretch:normal;font-family:Umpush;-inkscape-font-specification:Umpush;fill:#666666;stroke-width:0.09921876"
         id="path1041" />
      <path
         d="m 23.811296,207.23614 q 0,0.30037 -0.23642,0.47866 -0.234482,0.17828 -0.592987,0.17828 -0.201538,0 -0.358505,-0.0484 -0.156968,-0.0485 -0.249985,-0.12209 -0.09302,-0.0736 -0.155029,-0.17441 -0.06201,-0.10077 -0.0872,-0.18991 -0.02325,-0.0891 -0.02907,-0.18603 h 0.42633 q 0.01938,0.16278 0.135651,0.24804 0.11821,0.0853 0.315872,0.0853 0.193787,0 0.298432,-0.0717 0.106582,-0.0736 0.106582,-0.16085 0,-0.0581 -0.01938,-0.10076 -0.01938,-0.0426 -0.04651,-0.0698 -0.02713,-0.0271 -0.08527,-0.0465 -0.0562,-0.0213 -0.104645,-0.0329 -0.04651,-0.0116 -0.135651,-0.0271 -0.120148,-0.0213 -0.201538,-0.0388 -0.07945,-0.0194 -0.176346,-0.0465 -0.09496,-0.0291 -0.156967,-0.0601 -0.06007,-0.0329 -0.122086,-0.0795 -0.06201,-0.0485 -0.09689,-0.10659 -0.03488,-0.0581 -0.05814,-0.13758 -0.02132,-0.0795 -0.02132,-0.17829 0,-0.27711 0.211227,-0.43989 0.213165,-0.16472 0.546478,-0.16472 0.164719,0 0.296494,0.0291 0.133713,0.0291 0.218979,0.0814 0.0872,0.0504 0.147278,0.11239 0.06201,0.0601 0.09302,0.13565 0.03101,0.0756 0.04457,0.14147 0.01356,0.0659 0.0155,0.13565 h -0.42633 q -0.01938,-0.24805 -0.364319,-0.24805 -0.186036,0 -0.271302,0.064 -0.08527,0.0639 -0.08527,0.14728 0,0.0523 0.01938,0.093 0.02132,0.0407 0.05232,0.0678 0.03101,0.0252 0.08527,0.0465 0.0562,0.0213 0.106583,0.0329 0.05232,0.0116 0.131775,0.0271 0.465088,0.0853 0.647247,0.21511 0.18216,0.12983 0.18216,0.41082 z"
         style="font-style:normal;font-variant:normal;font-weight:bold;font-stretch:normal;font-family:Umpush;-inkscape-font-specification:Umpush;fill:#666666;stroke-width:0.09921876"
         id="path1043" />
      <path
         d="m 25.051531,207.50357 q 0.207351,0 0.31781,-0.10271 0.112396,-0.10464 0.116272,-0.31587 h 0.42633 q -0.0058,0.18991 -0.06589,0.33719 -0.05814,0.14728 -0.14534,0.23448 -0.0872,0.0853 -0.203476,0.14147 -0.116272,0.0543 -0.222855,0.0736 -0.106582,0.0194 -0.218979,0.0194 -0.424392,0 -0.680191,-0.2868 -0.255798,-0.2868 -0.255798,-0.76546 0,-0.50191 0.242233,-0.7984 0.242233,-0.29649 0.695694,-0.29649 0.377884,0 0.614304,0.21704 0.23642,0.2151 0.23642,0.55617 h -0.422455 q -0.0019,-0.16666 -0.125962,-0.27518 -0.122085,-0.11046 -0.288742,-0.11046 -0.147278,0 -0.255798,0.0659 -0.106583,0.064 -0.162781,0.17247 -0.0562,0.10658 -0.08139,0.22092 -0.02519,0.11433 -0.02519,0.23835 0,0.30425 0.129837,0.49028 0.129838,0.1841 0.375947,0.1841 z"
         style="font-style:normal;font-variant:normal;font-weight:bold;font-stretch:normal;font-family:Umpush;-inkscape-font-specification:Umpush;fill:#666666;stroke-width:0.09921876"
         id="path1045" />
      <path
         d="m 27.760668,207.61209 q -0.248047,0.27905 -0.715073,0.27905 -0.467025,0 -0.71701,-0.27905 -0.248047,-0.27905 -0.248047,-0.79452 0,-0.51548 0.248047,-0.79453 0.249985,-0.27905 0.71701,-0.27905 0.467026,0 0.715073,0.27905 0.248047,0.27905 0.248047,0.79453 0,0.51547 -0.248047,0.79452 z m -0.715073,-1.48053 q -0.538727,0 -0.538727,0.68601 0,0.686 0.538727,0.686 0.53679,0 0.53679,-0.686 0,-0.68601 -0.53679,-0.68601 z"
         style="font-style:normal;font-variant:normal;font-weight:bold;font-stretch:normal;font-family:Umpush;-inkscape-font-specification:Umpush;fill:#666666;stroke-width:0.09921876"
         id="path1047" />
      <path
         d="m 29.278017,206.13156 q -0.125961,0 -0.215103,0.0504 -0.0872,0.0484 -0.133713,0.13565 -0.04457,0.0872 -0.06395,0.18409 -0.01938,0.095 -0.01938,0.21123 v 1.15303 h -0.426331 v -2.05801 h 0.426331 v 0.13952 q 0.08527,-0.093 0.217041,-0.14727 0.131775,-0.0562 0.292618,-0.0562 0.418579,0 0.546478,0.26742 0.08139,-0.13371 0.275177,-0.1996 0.193787,-0.0678 0.393387,-0.0678 0.147278,0 0.259675,0.0407 0.114334,0.0407 0.184097,0.10659 0.06976,0.0659 0.114334,0.16084 0.04457,0.093 0.06007,0.18991 0.01744,0.0969 0.01744,0.21123 v 1.4127 h -0.426331 v -1.3817 q 0,-0.16472 -0.07558,-0.25773 -0.07558,-0.095 -0.211227,-0.095 -0.09108,0 -0.170533,0.0233 -0.07751,0.0213 -0.147277,0.0717 -0.06783,0.0504 -0.108521,0.14146 -0.04069,0.0911 -0.04069,0.21704 v 1.28093 h -0.426331 v -1.42239 q 0,-0.16472 -0.09108,-0.23836 -0.08914,-0.0736 -0.230606,-0.0736 z"
         style="font-style:normal;font-variant:normal;font-weight:bold;font-stretch:normal;font-family:Umpush;-inkscape-font-specification:Umpush;fill:#666666;stroke-width:0.09921876"
         id="path1049" />
      <path
         d="m 32.622775,207.89114 q -0.100769,0 -0.193786,-0.0233 -0.09108,-0.0232 -0.153092,-0.0601 -0.06201,-0.0368 -0.09495,-0.0601 -0.03101,-0.0232 -0.05232,-0.0446 v 0.16278 h -0.401138 v -2.84091 h 0.426331 v 0.92242 q 0.248047,-0.20347 0.486404,-0.20347 0.271301,0 0.470902,0.13952 0.1996,0.13953 0.300369,0.37595 0.100769,0.23642 0.100769,0.54066 0,0.32169 -0.100769,0.56586 -0.09883,0.24224 -0.302307,0.3837 -0.203476,0.14146 -0.486405,0.14146 z m -0.0097,-1.75958 q -0.205414,0 -0.333313,0.18991 -0.125961,0.18797 -0.125961,0.48059 0,0.16666 0.03101,0.2965 0.03101,0.1279 0.07558,0.20347 0.04651,0.0736 0.108521,0.12209 0.06201,0.0465 0.11821,0.064 0.0562,0.0155 0.112396,0.0155 0.228668,0 0.356567,-0.18216 0.129837,-0.18216 0.129837,-0.50578 0,-0.31975 -0.114334,-0.50191 -0.114334,-0.18216 -0.358505,-0.18216 z"
         style="font-style:normal;font-variant:normal;font-weight:bold;font-stretch:normal;font-family:Umpush;-inkscape-font-specification:Umpush;fill:#666666;stroke-width:0.09921876"
         id="path1051" />
    </g>
    <g
       transform="matrix(0.01764484,0,0,0.01764484,7.0310908,190.3478)"
       id="g50"
       style="fill:#666666">
      <path
         style="fill:#666666"
         inkscape:connector-curvature="0"
         d="m 224.699,869.111 h 27.948 l 26.026,86.945 26.911,-86.945 h 27.806 l -36.174,108.69 c -3.38,10.021 -9.436,15.027 -18.173,15.027 -8.854,0 -14.971,-5.059 -18.345,-15.181 z"
         id="path42" />
      <path
         style="fill:#666666"
         inkscape:connector-curvature="0"
         d="m 335.484,961.026 v -91.915 h 26.211 v 91.041 c 0.464,3.263 3.495,4.893 9.087,4.893 h 17.824 c 5.357,0 8.328,-1.512 8.912,-4.543 l 0.175,-0.874 v -90.517 h 26.211 v 91.74 c 0,8.038 -0.873,13.747 -2.621,17.125 -4.66,8.972 -12.873,13.455 -24.639,13.455 h -33.9 c -12.118,0 -20.388,-4.601 -24.814,-13.805 -1.632,-3.377 -2.446,-8.911 -2.446,-16.6 z"
         id="path44" />
      <path
         style="fill:#666666"
         inkscape:connector-curvature="0"
         d="m 435.961,961.551 v -92.439 h 26.212 v 90.342 c 0,3.73 2.211,5.592 6.64,5.592 h 46.657 l -0.175,26.387 h -48.754 c -1.747,0 -3.263,-0.058 -4.543,-0.175 -9.437,-0.813 -16.137,-3.582 -20.096,-8.3 -3.962,-4.72 -5.941,-11.854 -5.941,-21.407 z"
         id="path46" />
      <path
         style="fill:#666666"
         inkscape:connector-curvature="0"
         d="m 516.341,895.497 v -26.386 h 78.635 v 26.386 H 568.59 v 95.935 h -26.212 v -95.935 z"
         id="path48" />
    </g>
    <g
       aria-label="resonant comb filter"
       style="font-style:normal;font-weight:normal;font-size:2.38262916px;line-height:1.25;font-family:sans-serif;letter-spacing:0px;word-spacing:0px;fill:#cccccc;fill-opacity:1;stroke:none;stroke-width:0.05956574"
       id="text7967-9-5">
      <path
         d="m 11.981544,209.0442 q -0.04653,-0.0233 -0.123319,-0.0233 -0.08376,0 -0.159385,0.0407 -0.07446,0.0396 -0.153568,0.11634 v 0.79343 h -0.300155 v -1.2204 h 0.300155 v 0.17451 q 0.07678,-0.0838 0.165202,-0.13844 0.08842,-0.0547 0.197777,-0.0547 0.09307,0 0.132627,0.0244 z"
         style="font-style:normal;font-variant:normal;font-weight:bold;font-stretch:normal;font-family:Vemana2000;-inkscape-font-specification:Vemana2000;fill:#cccccc;stroke-width:0.05956574"
         id="path1054" />
      <path
         d="m 12.423634,209.43975 q 0.0081,0.16287 0.07911,0.23384 0.07097,0.071 0.223371,0.071 0.08842,0 0.154731,-0.0221 0.06748,-0.0221 0.117503,-0.0849 l 0.223372,0.15938 q -0.07329,0.10587 -0.190797,0.15822 -0.116339,0.0524 -0.31877,0.0524 -0.301318,0 -0.450233,-0.15823 -0.147751,-0.15822 -0.147751,-0.47815 0,-0.65499 0.58635,-0.65499 0.2606,0 0.396717,0.14775 0.137281,0.14659 0.137281,0.42813 v 0.14775 z m 0.513056,-0.20708 q 0,-0.27806 -0.243149,-0.27806 -0.08027,0 -0.131463,0.0279 -0.05119,0.0267 -0.0826,0.0814 -0.03025,0.0535 -0.0477,0.1687 z"
         style="font-style:normal;font-variant:normal;font-weight:bold;font-stretch:normal;font-family:Vemana2000;-inkscape-font-specification:Vemana2000;fill:#cccccc;stroke-width:0.05956574"
         id="path1056" />
      <path
         d="m 14.438631,209.62357 q 0,0.12099 -0.06166,0.20708 -0.0605,0.0861 -0.173346,0.13146 -0.111685,0.0454 -0.255946,0.0454 -0.382756,0 -0.5212,-0.21291 l 0.223371,-0.15705 q 0.05468,0.0745 0.125647,0.10005 0.07213,0.0244 0.153568,0.0244 0.214064,0 0.214064,-0.12448 0,-0.0547 -0.0605,-0.0838 -0.0605,-0.0303 -0.189633,-0.0617 -0.243149,-0.0535 -0.342037,-0.15124 -0.09889,-0.0977 -0.09889,-0.25362 0,-0.16171 0.12332,-0.26642 0.124483,-0.1047 0.365306,-0.1047 0.164038,0 0.288521,0.0524 0.125646,0.0523 0.193123,0.15706 l -0.224535,0.15938 q -0.08027,-0.12331 -0.261763,-0.12331 -0.09307,0 -0.140771,0.0326 -0.0477,0.0314 -0.0477,0.0814 0,0.0477 0.04305,0.0768 0.04304,0.0279 0.169855,0.0593 0.208248,0.0512 0.296665,0.10238 0.08958,0.05 0.134954,0.12565 0.04654,0.0745 0.04654,0.18382 z"
         style="font-style:normal;font-variant:normal;font-weight:bold;font-stretch:normal;font-family:Vemana2000;-inkscape-font-specification:Vemana2000;fill:#cccccc;stroke-width:0.05956574"
         id="path1058" />
      <path
         d="m 15.811435,209.36413 q 0,0.30481 -0.140771,0.47466 -0.14077,0.1687 -0.443253,0.1687 -0.58635,0 -0.58635,-0.64336 0,-0.30946 0.140771,-0.47816 0.14077,-0.16985 0.445579,-0.16985 0.302483,0 0.443253,0.16985 0.140771,0.1687 0.140771,0.47816 z m -0.310626,0 q 0,-0.20127 -0.06282,-0.29318 -0.06282,-0.0931 -0.210574,-0.0931 -0.146587,0 -0.211737,0.0954 -0.06515,0.0942 -0.06515,0.29085 0,0.19545 0.06399,0.28852 0.06515,0.0919 0.212901,0.0919 0.145424,0 0.209411,-0.0908 0.06399,-0.0919 0.06399,-0.28968 z"
         style="font-style:normal;font-variant:normal;font-weight:bold;font-stretch:normal;font-family:Vemana2000;-inkscape-font-specification:Vemana2000;fill:#cccccc;stroke-width:0.05956574"
         id="path1060" />
      <path
         d="m 16.875939,209.97142 v -0.67244 q 0,-0.1908 -0.0349,-0.25478 -0.03374,-0.064 -0.129137,-0.064 -0.13379,0 -0.32226,0.17684 v 0.81437 h -0.300155 v -1.2204 h 0.300155 v 0.15822 q 0.0954,-0.0954 0.203594,-0.14426 0.108195,-0.0489 0.211737,-0.0489 0.187307,0 0.279215,0.10238 0.09191,0.10238 0.09191,0.33855 v 0.81437 z"
         style="font-style:normal;font-variant:normal;font-weight:bold;font-stretch:normal;font-family:Vemana2000;-inkscape-font-specification:Vemana2000;fill:#cccccc;stroke-width:0.05956574"
         id="path1062" />
      <path
         d="m 18.224312,209.97142 v -0.12681 q -0.177999,0.16288 -0.381593,0.16288 -0.20243,0 -0.305972,-0.10587 -0.103542,-0.10704 -0.103542,-0.2734 0,-0.1303 0.05235,-0.21523 0.05352,-0.0849 0.157059,-0.13263 0.104705,-0.0489 0.300155,-0.0686 l 0.25711,-0.0244 v -0.0547 q 0,-0.10237 -0.06166,-0.1396 -0.06166,-0.0384 -0.180326,-0.0384 -0.09773,0 -0.168692,0.0326 -0.0698,0.0326 -0.103542,0.0931 l -0.233842,-0.15008 q 0.06166,-0.10354 0.193123,-0.15822 0.131464,-0.0558 0.317607,-0.0558 0.285031,0 0.410677,0.10005 0.12681,0.0989 0.12681,0.32575 v 0.8295 z m -0.02443,-0.56657 -0.152405,0.014 q -0.161711,0.014 -0.233842,0.0617 -0.07097,0.0477 -0.07097,0.1431 0,0.0838 0.04654,0.11517 0.04654,0.0302 0.12332,0.0302 0.05468,0 0.132627,-0.0337 0.07911,-0.0349 0.154731,-0.0977 z"
         style="font-style:normal;font-variant:normal;font-weight:bold;font-stretch:normal;font-family:Vemana2000;-inkscape-font-specification:Vemana2000;fill:#cccccc;stroke-width:0.05956574"
         id="path1064" />
      <path
         d="m 19.616894,209.97142 v -0.67244 q 0,-0.1908 -0.0349,-0.25478 -0.03374,-0.064 -0.129137,-0.064 -0.13379,0 -0.32226,0.17684 v 0.81437 H 18.83044 v -1.2204 h 0.300155 v 0.15822 q 0.0954,-0.0954 0.203594,-0.14426 0.108196,-0.0489 0.211738,-0.0489 0.187306,0 0.279214,0.10238 0.09191,0.10238 0.09191,0.33855 v 0.81437 z"
         style="font-style:normal;font-variant:normal;font-weight:bold;font-stretch:normal;font-family:Vemana2000;-inkscape-font-specification:Vemana2000;fill:#cccccc;stroke-width:0.05956574"
         id="path1066" />
      <path
         d="m 20.919894,209.97142 q -0.120993,0.0361 -0.254783,0.0361 -0.211737,0 -0.304809,-0.0954 -0.09307,-0.0954 -0.09307,-0.30947 v -0.6131 h -0.154732 v -0.2385 h 0.154732 v -0.33971 h 0.300155 v 0.33971 h 0.283868 v 0.2385 h -0.283868 v 0.57471 q 0,0.11402 0.0349,0.15473 0.03606,0.0407 0.101215,0.0407 0.0826,0 0.164038,-0.0337 z"
         style="font-style:normal;font-variant:normal;font-weight:bold;font-stretch:normal;font-family:Vemana2000;-inkscape-font-specification:Vemana2000;fill:#cccccc;stroke-width:0.05956574"
         id="path1068" />
      <path
         d="m 22.687088,209.79691 q -0.0698,0.10354 -0.183816,0.15706 -0.114013,0.0535 -0.288522,0.0535 -0.295501,0 -0.446743,-0.16055 -0.151241,-0.16171 -0.151241,-0.47816 0,-0.3083 0.146588,-0.48048 0.146587,-0.17218 0.439762,-0.17218 0.157059,0 0.279215,0.0512 0.123319,0.0512 0.187306,0.15822 l -0.223371,0.15938 q -0.04072,-0.0547 -0.0954,-0.0803 -0.05468,-0.0268 -0.14077,-0.0268 -0.153568,0 -0.218718,0.0942 -0.06515,0.0942 -0.06515,0.29201 0,0.19778 0.06631,0.28968 0.06748,0.0908 0.229189,0.0908 0.0698,0 0.127973,-0.0198 0.05817,-0.0198 0.110522,-0.0873 z"
         style="font-style:normal;font-variant:normal;font-weight:bold;font-stretch:normal;font-family:Vemana2000;-inkscape-font-specification:Vemana2000;fill:#cccccc;stroke-width:0.05956574"
         id="path1070" />
      <path
         d="m 24.020337,209.36413 q 0,0.30481 -0.140771,0.47466 -0.14077,0.1687 -0.443252,0.1687 -0.58635,0 -0.58635,-0.64336 0,-0.30946 0.14077,-0.47816 0.140771,-0.16985 0.44558,-0.16985 0.302482,0 0.443252,0.16985 0.140771,0.1687 0.140771,0.47816 z m -0.310626,0 q 0,-0.20127 -0.06282,-0.29318 -0.06282,-0.0931 -0.210574,-0.0931 -0.146588,0 -0.211738,0.0954 -0.06515,0.0942 -0.06515,0.29085 0,0.19545 0.06399,0.28852 0.06515,0.0919 0.212901,0.0919 0.145424,0 0.20941,-0.0908 0.06399,-0.0919 0.06399,-0.28968 z"
         style="font-style:normal;font-variant:normal;font-weight:bold;font-stretch:normal;font-family:Vemana2000;-inkscape-font-specification:Vemana2000;fill:#cccccc;stroke-width:0.05956574"
         id="path1072" />
      <path
         d="m 25.752629,209.97142 v -0.71898 q 0,-0.10819 -0.0128,-0.16869 -0.0128,-0.0605 -0.03956,-0.0814 -0.02559,-0.0221 -0.08609,-0.0221 -0.06864,0 -0.145425,0.0512 -0.07678,0.0512 -0.143097,0.12565 v 0.81437 h -0.300155 v -0.71898 q 0,-0.11866 -0.01047,-0.17102 -0.01047,-0.0535 -0.03723,-0.0768 -0.02676,-0.0244 -0.09074,-0.0244 -0.05584,0 -0.129137,0.043 -0.07329,0.0419 -0.159385,0.1338 v 0.81437 h -0.300155 v -1.2204 h 0.300155 v 0.15822 q 0.08376,-0.0907 0.175673,-0.14193 0.09191,-0.0512 0.203593,-0.0512 0.152405,0 0.224535,0.0524 0.07329,0.0523 0.100052,0.15473 0.104706,-0.1047 0.19545,-0.15589 0.09191,-0.0512 0.214065,-0.0512 0.177999,0 0.259436,0.10121 0.08144,0.10122 0.08144,0.33972 v 0.81437 z"
         style="font-style:normal;font-variant:normal;font-weight:bold;font-stretch:normal;font-family:Vemana2000;-inkscape-font-specification:Vemana2000;fill:#cccccc;stroke-width:0.05956574"
         id="path1074" />
      <path
         d="m 27.522151,209.3525 q 0,0.30364 -0.127974,0.47931 -0.12681,0.17568 -0.362978,0.17568 -0.09307,0 -0.203594,-0.0419 -0.109359,-0.043 -0.174509,-0.10819 l -0.04072,0.11401 h -0.229188 v -1.73229 h 0.300155 v 0.60962 q 0.165202,-0.13263 0.365305,-0.13263 0.245476,0 0.359489,0.16985 0.114013,0.1687 0.114013,0.46653 z m -0.309463,0.005 q 0,-0.18847 -0.05933,-0.28271 -0.05933,-0.0942 -0.190797,-0.0942 -0.07329,0 -0.148914,0.0349 -0.07446,0.0337 -0.1303,0.0838 v 0.53399 q 0.05003,0.043 0.120993,0.0768 0.07213,0.0326 0.139607,0.0326 0.129137,0 0.19894,-0.0977 0.0698,-0.0989 0.0698,-0.28736 z"
         style="font-style:normal;font-variant:normal;font-weight:bold;font-stretch:normal;font-family:Vemana2000;-inkscape-font-specification:Vemana2000;fill:#cccccc;stroke-width:0.05956574"
         id="path1076" />
      <path
         d="m 29.01362,208.49391 q -0.08376,-0.0279 -0.161712,-0.0279 -0.08842,0 -0.122156,0.0372 -0.03258,0.0361 -0.03258,0.12913 v 0.11867 h 0.247803 v 0.2385 h -0.247803 v 0.9819 h -0.300155 v -0.9819 H 28.24229 v -0.2385 h 0.154732 v -0.11867 q 0,-0.22686 0.111685,-0.32807 0.112849,-0.10122 0.338548,-0.10122 0.105868,0 0.224535,0.0291 z m 0.440926,-0.0756 q 0,0.0849 -0.04188,0.11867 -0.04188,0.0337 -0.127974,0.0337 -0.0954,0 -0.1303,-0.0396 -0.03374,-0.0396 -0.03374,-0.11285 0,-0.0814 0.03723,-0.11634 0.03723,-0.0361 0.126809,-0.0361 0.09074,0 0.130301,0.0349 0.03956,0.0337 0.03956,0.1175 z m -0.317606,1.55313 v -1.2204 h 0.300155 v 1.2204 z"
         style="font-style:normal;font-variant:normal;font-weight:bold;font-stretch:normal;font-family:Vemana2000;-inkscape-font-specification:Vemana2000;fill:#cccccc;stroke-width:0.05956574"
         id="path1078" />
      <path
         d="m 29.775642,209.97142 v -1.73229 h 0.300155 v 1.73229 z"
         style="font-style:normal;font-variant:normal;font-weight:bold;font-stretch:normal;font-family:Vemana2000;-inkscape-font-specification:Vemana2000;fill:#cccccc;stroke-width:0.05956574"
         id="path1080" />
      <path
         d="m 31.087951,209.97142 q -0.120993,0.0361 -0.254783,0.0361 -0.211738,0 -0.304809,-0.0954 -0.09307,-0.0954 -0.09307,-0.30947 v -0.6131 h -0.154731 v -0.2385 h 0.154731 v -0.33971 h 0.300156 v 0.33971 h 0.283867 v 0.2385 h -0.283867 v 0.57471 q 0,0.11402 0.0349,0.15473 0.03607,0.0407 0.101216,0.0407 0.0826,0 0.164038,-0.0337 z"
         style="font-style:normal;font-variant:normal;font-weight:bold;font-stretch:normal;font-family:Vemana2000;-inkscape-font-specification:Vemana2000;fill:#cccccc;stroke-width:0.05956574"
         id="path1082" />
      <path
         d="m 31.498628,209.43975 q 0.0081,0.16287 0.07911,0.23384 0.07097,0.071 0.223371,0.071 0.08842,0 0.154732,-0.0221 0.06748,-0.0221 0.117502,-0.0849 l 0.223372,0.15938 q -0.07329,0.10587 -0.190797,0.15822 -0.116339,0.0524 -0.318769,0.0524 -0.301319,0 -0.450234,-0.15823 -0.147751,-0.15822 -0.147751,-0.47815 0,-0.65499 0.586351,-0.65499 0.2606,0 0.396717,0.14775 0.13728,0.14659 0.13728,0.42813 v 0.14775 z m 0.513056,-0.20708 q 0,-0.27806 -0.243149,-0.27806 -0.08027,0 -0.131463,0.0279 -0.05119,0.0267 -0.0826,0.0814 -0.03025,0.0535 -0.0477,0.1687 z"
         style="font-style:normal;font-variant:normal;font-weight:bold;font-stretch:normal;font-family:Vemana2000;-inkscape-font-specification:Vemana2000;fill:#cccccc;stroke-width:0.05956574"
         id="path1084" />
      <path
         d="m 33.318174,209.0442 q -0.04653,-0.0233 -0.123319,-0.0233 -0.08376,0 -0.159385,0.0407 -0.07446,0.0396 -0.153568,0.11634 v 0.79343 h -0.300156 v -1.2204 h 0.300156 v 0.17451 q 0.07678,-0.0838 0.165202,-0.13844 0.08842,-0.0547 0.197777,-0.0547 0.09307,0 0.132626,0.0244 z"
         style="font-style:normal;font-variant:normal;font-weight:bold;font-stretch:normal;font-family:Vemana2000;-inkscape-font-specification:Vemana2000;fill:#cccccc;stroke-width:0.05956574"
         id="path1086" />
    </g>
    <g
       aria-label="INPUT"
       style="font-style:normal;font-weight:normal;font-size:7.3461585px;line-height:1.25;font-family:sans-serif;letter-spacing:0px;word-spacing:0px;display:inline;fill:#1a1a1a;fill-opacity:1;stroke:none;stroke-width:0.18365398"
       id="text9293-3-6">
      <path
         d="m 7.3057217,289.18021 h 0.4603306 v 1.78512 H 7.3057217 Z"
         style="font-style:normal;font-variant:normal;font-weight:bold;font-stretch:normal;font-size:2.4487195px;font-family:Waree;-inkscape-font-specification:'Waree Bold';fill:#1a1a1a;stroke-width:0.18365398"
         id="path1089" />
      <path
         d="m 8.2192088,289.18021 h 0.5141355 l 0.6492454,1.22436 v -1.22436 H 9.819007 v 1.78512 H 9.3048716 l -0.6492455,-1.22436 v 1.22436 H 8.2192088 Z"
         style="font-style:normal;font-variant:normal;font-weight:bold;font-stretch:normal;font-size:2.4487195px;font-family:Waree;-inkscape-font-specification:'Waree Bold';fill:#1a1a1a;stroke-width:0.18365398"
         id="path1091" />
      <path
         d="m 11.55272,289.32608 q 0.187719,0.14587 0.187719,0.43641 0,0.29055 -0.187719,0.43762 -0.18772,0.14587 -0.517723,0.14587 h -0.303699 v 0.61935 h -0.46033 v -1.78512 h 0.764029 q 0.331199,0 0.517723,0.14587 z m -0.28696,0.43641 q 0,-0.12195 -0.07413,-0.18532 -0.07294,-0.0634 -0.205654,-0.0634 h -0.254677 v 0.49859 h 0.254677 q 0.132719,0 0.205654,-0.0634 0.07413,-0.0646 0.07413,-0.18653 z"
         style="font-style:normal;font-variant:normal;font-weight:bold;font-stretch:normal;font-size:2.4487195px;font-family:Waree;-inkscape-font-specification:'Waree Bold';fill:#1a1a1a;stroke-width:0.18365398"
         id="path1093" />
      <path
         d="m 12.833275,291.00001 q -0.386199,0 -0.577505,-0.18414 -0.191306,-0.18532 -0.191306,-0.56554 v -1.07012 h 0.46033 v 1.07012 q 0,0.21043 0.06935,0.31087 0.06935,0.10043 0.239132,0.10043 0.174567,0 0.241524,-0.10282 0.06815,-0.10283 0.06815,-0.30848 v -1.07012 h 0.460331 v 1.07012 q 0,0.38141 -0.191306,0.56554 -0.191307,0.18414 -0.578702,0.18414 z"
         style="font-style:normal;font-variant:normal;font-weight:bold;font-stretch:normal;font-size:2.4487195px;font-family:Waree;-inkscape-font-specification:'Waree Bold';fill:#1a1a1a;stroke-width:0.18365398"
         id="path1095" />
      <path
         d="m 13.84122,289.18021 h 1.645233 v 0.34793 H 14.8946 v 1.43719 h -0.460331 v -1.43719 H 13.84122 Z"
         style="font-style:normal;font-variant:normal;font-weight:bold;font-stretch:normal;font-size:2.4487195px;font-family:Waree;-inkscape-font-specification:'Waree Bold';fill:#1a1a1a;stroke-width:0.18365398"
         id="path1097" />
    </g>
    <g
       aria-label="OUTPUT"
       style="font-style:normal;font-weight:normal;font-size:7.3461585px;line-height:1.25;font-family:sans-serif;letter-spacing:0px;word-spacing:0px;display:inline;fill:#1a1a1a;fill-opacity:1;stroke:none;stroke-width:0.18365398"
       id="text9293-3-6-0">
      <path
         d="m 24.146016,290.3113 q 0.0263,-0.10641 0.0263,-0.23674 0,-0.13032 -0.0263,-0.23674 -0.02631,-0.10641 -0.07891,-0.18652 -0.05261,-0.0813 -0.138697,-0.12555 -0.08609,-0.0442 -0.199676,-0.0442 -0.149458,0 -0.25109,0.0789 -0.100435,0.0777 -0.145871,0.20804 -0.04544,0.13033 -0.04544,0.30609 0,0.26903 0.110001,0.43044 0.111197,0.16142 0.332395,0.16142 0.113588,0 0.199676,-0.0442 0.08609,-0.0442 0.138697,-0.12435 0.05261,-0.0813 0.07891,-0.18653 z m -1.091642,0.44479 q -0.243915,-0.24391 -0.243915,-0.68153 0,-0.43761 0.243915,-0.68153 0.245112,-0.24511 0.674355,-0.24511 0.430439,0 0.674354,0.24392 0.243916,0.24391 0.243916,0.68272 0,0.43762 -0.245111,0.68153 -0.243916,0.24392 -0.673159,0.24392 -0.429243,0 -0.674355,-0.24392 z"
         style="font-style:normal;font-variant:normal;font-weight:bold;font-stretch:normal;font-size:2.4487195px;font-family:Waree;-inkscape-font-specification:'Waree Bold';fill:#1a1a1a;stroke-width:0.18365398"
         id="path1100" />
      <path
         d="m 25.762553,291.00001 q -0.386199,0 -0.577506,-0.18414 -0.191306,-0.18532 -0.191306,-0.56554 v -1.07012 h 0.460331 v 1.07012 q 0,0.21043 0.06935,0.31087 0.06935,0.10043 0.239133,0.10043 0.174567,0 0.241524,-0.10282 0.06815,-0.10283 0.06815,-0.30848 v -1.07012 h 0.460331 v 1.07012 q 0,0.38141 -0.191307,0.56554 -0.191306,0.18414 -0.578701,0.18414 z"
         style="font-style:normal;font-variant:normal;font-weight:bold;font-stretch:normal;font-size:2.4487195px;font-family:Waree;-inkscape-font-specification:'Waree Bold';fill:#1a1a1a;stroke-width:0.18365398"
         id="path1102" />
      <path
         d="m 26.770498,289.18021 h 1.645233 v 0.34793 h -0.591853 v 1.43719 h -0.460331 v -1.43719 h -0.593049 z"
         style="font-style:normal;font-variant:normal;font-weight:bold;font-stretch:normal;font-size:2.4487195px;font-family:Waree;-inkscape-font-specification:'Waree Bold';fill:#1a1a1a;stroke-width:0.18365398"
         id="path1104" />
      <path
         d="m 29.934224,289.32608 q 0.187719,0.14587 0.187719,0.43641 0,0.29055 -0.187719,0.43762 -0.187719,0.14587 -0.517722,0.14587 h -0.303699 v 0.61935 h -0.460331 v -1.78512 h 0.76403 q 0.331199,0 0.517722,0.14587 z m -0.286959,0.43641 q 0,-0.12195 -0.07413,-0.18532 -0.07294,-0.0634 -0.205655,-0.0634 h -0.254676 v 0.49859 h 0.254676 q 0.132719,0 0.205655,-0.0634 0.07413,-0.0646 0.07413,-0.18653 z"
         style="font-style:normal;font-variant:normal;font-weight:bold;font-stretch:normal;font-size:2.4487195px;font-family:Waree;-inkscape-font-specification:'Waree Bold';fill:#1a1a1a;stroke-width:0.18365398"
         id="path1106" />
      <path
         d="m 31.21478,291.00001 q -0.386199,0 -0.577506,-0.18414 -0.191306,-0.18532 -0.191306,-0.56554 v -1.07012 h 0.460331 v 1.07012 q 0,0.21043 0.06935,0.31087 0.06935,0.10043 0.239133,0.10043 0.174567,0 0.241524,-0.10282 0.06815,-0.10283 0.06815,-0.30848 v -1.07012 h 0.46033 v 1.07012 q 0,0.38141 -0.191306,0.56554 -0.191306,0.18414 -0.578701,0.18414 z"
         style="font-style:normal;font-variant:normal;font-weight:bold;font-stretch:normal;font-size:2.4487195px;font-family:Waree;-inkscape-font-specification:'Waree Bold';fill:#1a1a1a;stroke-width:0.18365398"
         id="path1108" />
      <path
         d="m 32.222724,289.18021 h 1.645234 v 0.34793 h -0.591854 v 1.43719 h -0.46033 v -1.43719 h -0.59305 z"
         style="font-style:normal;font-variant:normal;font-weight:bold;font-stretch:normal;font-size:2.4487195px;font-family:Waree;-inkscape-font-specification:'Waree Bold';fill:#1a1a1a;stroke-width:0.18365398"
         id="path1110" />
    </g>
    <rect
       style="display:inline;fill:#333333;stroke:none;stroke-width:0.65775913;stroke-miterlimit:4;stroke-dasharray:none;stroke-opacity:1"
       id="rect9305-9"
       width="32.141556"
       height="18.439972"
       x="4"
       y="236.56003"
       rx="4.56355" />
    <g
       aria-label="COMB"
       style="font-style:normal;font-weight:normal;font-size:7.34615898px;line-height:1.25;font-family:sans-serif;letter-spacing:0px;word-spacing:0px;display:inline;fill:#cccccc;fill-opacity:1;stroke:none;stroke-width:0.18365398"
       id="text9293-4">
      <path
         d="m 9.7422068,253.6664 q 0.2678282,0 0.5141352,-0.16859 v 0.36946 q -0.254676,0.13272 -0.5512008,0.13272 -0.4483739,0 -0.707833,-0.2475 -0.259459,-0.2487 -0.259459,-0.67794 0,-0.42925 0.2582634,-0.67794 0.259459,-0.2487 0.7090286,-0.2487 0.2965248,0 0.5512008,0.13272 v 0.36946 q -0.248698,-0.16859 -0.5141352,-0.16859 -0.2510894,0 -0.3897864,0.16022 -0.138697,0.15902 -0.138697,0.43283 0,0.2738 0.138697,0.43283 0.138697,0.15902 0.3897864,0.15902 z"
         style="font-style:normal;font-variant:normal;font-weight:bold;font-stretch:normal;font-size:2.4487195px;font-family:Waree;-inkscape-font-specification:'Waree Bold';fill:#cccccc;stroke-width:0.18365398"
         id="path932" />
      <path
         d="m 11.871684,253.31129 q 0.02631,-0.10642 0.02631,-0.23674 0,-0.13033 -0.02631,-0.23674 -0.02631,-0.10642 -0.07891,-0.18653 -0.05261,-0.0813 -0.138697,-0.12554 -0.08609,-0.0442 -0.199676,-0.0442 -0.149458,0 -0.251089,0.0789 -0.100436,0.0777 -0.145871,0.20805 -0.04543,0.13032 -0.04543,0.30609 0,0.26902 0.110001,0.43044 0.111197,0.16141 0.332394,0.16141 0.113588,0 0.199676,-0.0442 0.08609,-0.0442 0.138697,-0.12435 0.05261,-0.0813 0.07891,-0.18652 z m -1.091641,0.44479 q -0.243916,-0.24392 -0.243916,-0.68153 0,-0.43762 0.243916,-0.68153 0.245111,-0.24511 0.674354,-0.24511 0.430439,0 0.674355,0.24391 0.243915,0.24392 0.243915,0.68273 0,0.43761 -0.245111,0.68153 -0.243915,0.24391 -0.673159,0.24391 -0.429243,0 -0.674354,-0.24391 z"
         style="font-style:normal;font-variant:normal;font-weight:bold;font-stretch:normal;font-size:2.4487195px;font-family:Waree;-inkscape-font-specification:'Waree Bold';fill:#cccccc;stroke-width:0.18365398"
         id="path934" />
      <path
         d="m 12.71941,252.18019 h 0.585875 l 0.406526,0.95534 0.408917,-0.95534 h 0.584679 v 1.78513 h -0.435221 v -1.30567 l -0.411309,0.96251 h -0.291742 l -0.411308,-0.96251 v 1.30567 H 12.71941 Z"
         style="font-style:normal;font-variant:normal;font-weight:bold;font-stretch:normal;font-size:2.4487195px;font-family:Waree;-inkscape-font-specification:'Waree Bold';fill:#cccccc;stroke-width:0.18365398"
         id="path936" />
      <path
         d="m 16.094768,252.68237 q 0,-0.0323 -0.0084,-0.0598 -0.0072,-0.0287 -0.0287,-0.0598 -0.02033,-0.0323 -0.06815,-0.0502 -0.04663,-0.0191 -0.115979,-0.0191 h -0.254677 v 0.37783 h 0.254677 q 0.221197,0 0.221197,-0.18891 z m 0.07294,0.73414 q 0,-0.23196 -0.27859,-0.23196 h -0.27022 v 0.4675 h 0.27022 q 0.27859,0 0.27859,-0.23554 z m 0.387395,-0.76403 q 0,0.13511 -0.06337,0.22478 -0.06217,0.0897 -0.174567,0.13272 0.144675,0.0418 0.227176,0.15663 0.0837,0.11479 0.0837,0.28696 0,0.11957 -0.03826,0.21044 -0.03707,0.0909 -0.118371,0.16022 -0.08011,0.0693 -0.218806,0.10522 -0.138697,0.0359 -0.330003,0.0359 h -0.764029 v -1.78513 h 0.691093 q 0.204459,0 0.344351,0.0335 0.141089,0.0323 0.218807,0.098 0.07772,0.0646 0.110001,0.14707 0.03228,0.0813 0.03228,0.1937 z"
         style="font-style:normal;font-variant:normal;font-weight:bold;font-stretch:normal;font-size:2.4487195px;font-family:Waree;-inkscape-font-specification:'Waree Bold';fill:#cccccc;stroke-width:0.18365398"
         id="path938" />
    </g>
    <path
       style="display:inline;fill:none;stroke:#cccccc;stroke-width:0.52916664;stroke-miterlimit:4;stroke-dasharray:none;stroke-opacity:1"
       id="path8216-1"
       sodipodi:type="arc"
       sodipodi:cx="12.844255"
       sodipodi:cy="-243.95091"
       sodipodi:rx="6.0800848"
       sodipodi:ry="6.0800848"
       sodipodi:start="5.7595865"
       sodipodi:end="3.6651914"
       d="m 18.109763,-246.99096 a 6.0800848,6.0800848 0 0 1 -1.357304,7.69766 6.0800848,6.0800848 0 0 1 -7.8164066,0 6.0800848,6.0800848 0 0 1 -1.3573049,-7.69765"
       transform="scale(1,-1)"
       sodipodi:open="true" />
    <path
       style="display:inline;fill:#cccccc;fill-opacity:1;stroke:#cccccc;stroke-width:0.52916664;stroke-linecap:butt;stroke-linejoin:miter;stroke-miterlimit:4;stroke-dasharray:none;stroke-opacity:1"
       d="m 17.910861,247.63131 0.0129,2.36724"
       id="path9630"
       inkscape:connector-curvature="0"
       sodipodi:nodetypes="cc" />
    <path
       style="display:inline;fill:#cccccc;fill-opacity:1;stroke:#cccccc;stroke-width:0.52916664;stroke-linecap:butt;stroke-linejoin:miter;stroke-miterlimit:4;stroke-dasharray:none;stroke-opacity:1"
       d="m 19.100911,248.79795 -2.36725,0.011"
       id="path9630-1"
       inkscape:connector-curvature="0"
       sodipodi:nodetypes="cc"
       inkscape:transform-center-x="-1.0162854"
       inkscape:transform-center-y="0.22178906" />
    <path
       style="display:inline;fill:#cccccc;fill-opacity:1;stroke:#cccccc;stroke-width:0.52916664;stroke-linecap:butt;stroke-linejoin:miter;stroke-miterlimit:4;stroke-dasharray:none;stroke-opacity:1"
       d="m 9.2714924,248.73073 -2.36725,0.011"
       id="path9630-1-6"
       inkscape:connector-curvature="0"
       sodipodi:nodetypes="cc"
       inkscape:transform-center-x="-1.0162854"
       inkscape:transform-center-y="0.22178906" />
    <path
       style="fill:none;stroke:#cccccc;stroke-width:0.55796188;stroke-linecap:butt;stroke-linejoin:miter;stroke-miterlimit:4;stroke-dasharray:none;stroke-opacity:1"
       d="m 12.84424,243.95157 -0.01232,-6.76835"
       id="path9948"
       inkscape:connector-curvature="0" />
    <rect
       style="display:inline;fill:#333333;stroke:none;stroke-width:0.65775913;stroke-miterlimit:4;stroke-dasharray:none;stroke-opacity:1"
       id="rect9305"
       width="32.141556"
       height="18.439972"
       x="4"
       y="216.56003"
       rx="4.56355" />
    <g
       aria-label="TUNE"
       style="font-style:normal;font-weight:normal;font-size:7.34615898px;line-height:1.25;font-family:sans-serif;letter-spacing:0px;word-spacing:0px;display:inline;fill:#cccccc;fill-opacity:1;stroke:none;stroke-width:0.18365398"
       id="text9293">
      <path
         d="m 9.3932499,232.18019 h 1.6452331 v 0.34794 H 10.44663 v 1.43719 H 9.9862992 v -1.43719 H 9.3932499 Z"
         style="font-style:normal;font-variant:normal;font-weight:bold;font-stretch:normal;font-size:2.4487195px;font-family:Waree;-inkscape-font-specification:'Waree Bold';fill:#cccccc;stroke-width:0.18365398"
         id="path958" />
      <path
         d="m 12.044037,233.99999 q -0.3862,0 -0.577506,-0.18413 -0.191306,-0.18533 -0.191306,-0.56555 v -1.07012 h 0.46033 v 1.07012 q 0,0.21044 0.06935,0.31087 0.06935,0.10044 0.239133,0.10044 0.174567,0 0.241524,-0.10283 0.06815,-0.10283 0.06815,-0.30848 v -1.07012 h 0.46033 v 1.07012 q 0,0.38142 -0.191306,0.56555 -0.191306,0.18413 -0.578701,0.18413 z"
         style="font-style:normal;font-variant:normal;font-weight:bold;font-stretch:normal;font-size:2.4487195px;font-family:Waree;-inkscape-font-specification:'Waree Bold';fill:#cccccc;stroke-width:0.18365398"
         id="path960" />
      <path
         d="m 13.264809,232.18019 h 0.514136 l 0.649245,1.22436 v -1.22436 h 0.436418 v 1.78513 h -0.514136 l -0.649245,-1.22436 v 1.22436 h -0.436418 z"
         style="font-style:normal;font-variant:normal;font-weight:bold;font-stretch:normal;font-size:2.4487195px;font-family:Waree;-inkscape-font-specification:'Waree Bold';fill:#cccccc;stroke-width:0.18365398"
         id="path962" />
      <path
         d="m 15.316568,232.18019 h 1.242295 v 0.34794 h -0.781964 v 0.33239 h 0.735333 v 0.34794 h -0.735333 v 0.40892 h 0.808269 v 0.34794 h -1.2686 z"
         style="font-style:normal;font-variant:normal;font-weight:bold;font-stretch:normal;font-size:2.4487195px;font-family:Waree;-inkscape-font-specification:'Waree Bold';fill:#cccccc;stroke-width:0.18365398"
         id="path964" />
    </g>
    <path
       style="display:inline;fill:none;stroke:#cccccc;stroke-width:0.52916664;stroke-miterlimit:4;stroke-dasharray:none;stroke-opacity:1"
       id="path8216"
       sodipodi:type="arc"
       sodipodi:cx="12.844255"
       sodipodi:cy="-223.96365"
       sodipodi:rx="6.0800848"
       sodipodi:ry="6.0800848"
       sodipodi:start="5.7595865"
       sodipodi:end="3.6651914"
       d="m 18.109763,-227.0037 a 6.0800848,6.0800848 0 0 1 -1.357304,7.69766 6.0800848,6.0800848 0 0 1 -7.8164066,0 6.0800848,6.0800848 0 0 1 -1.3573049,-7.69766"
       transform="scale(1,-1)"
       sodipodi:open="true" />
    <rect
       style="display:inline;fill:#333333;stroke:none;stroke-width:0.65775919;stroke-miterlimit:4;stroke-dasharray:none;stroke-opacity:1"
       id="rect9305-8"
       width="32.141556"
       height="18.439972"
       x="4"
       y="256.56003"
       rx="4.5635505" />
    <g
       aria-label="FEEDBACK"
       style="font-style:normal;font-weight:normal;font-size:7.34615898px;line-height:1.25;font-family:sans-serif;letter-spacing:0px;word-spacing:0px;display:inline;fill:#cccccc;fill-opacity:1;stroke:none;stroke-width:0.18365398"
       id="text9293-5">
      <path
         d="m 7.3113136,272.18021 h 1.2422947 v 0.34793 H 7.7716441 v 0.3324 h 0.7353333 v 0.34794 H 7.7716441 v 0.75685 H 7.3113136 Z"
         style="font-style:normal;font-variant:normal;font-weight:bold;font-stretch:normal;font-size:2.4487195px;font-family:Waree;-inkscape-font-specification:'Waree Bold';fill:#cccccc;stroke-width:0.18365398"
         id="path941" />
      <path
         d="m 8.9852429,272.18021 h 1.2422951 v 0.34793 H 9.4455735 v 0.3324 h 0.7353335 v 0.34794 H 9.4455735 v 0.40891 h 0.8082685 v 0.34794 H 8.9852429 Z"
         style="font-style:normal;font-variant:normal;font-weight:bold;font-stretch:normal;font-size:2.4487195px;font-family:Waree;-inkscape-font-specification:'Waree Bold';fill:#cccccc;stroke-width:0.18365398"
         id="path943" />
      <path
         d="m 10.659172,272.18021 h 1.242295 v 0.34793 h -0.781964 v 0.3324 h 0.735333 v 0.34794 h -0.735333 v 0.40891 h 0.808269 v 0.34794 h -1.2686 z"
         style="font-style:normal;font-variant:normal;font-weight:bold;font-stretch:normal;font-size:2.4487195px;font-family:Waree;-inkscape-font-specification:'Waree Bold';fill:#cccccc;stroke-width:0.18365398"
         id="path945" />
      <path
         d="m 13.538331,273.07098 q 0,-0.26783 -0.149458,-0.40533 -0.149458,-0.13751 -0.430439,-0.13751 h -0.165002 v 1.08925 h 0.165002 q 0.279785,0 0.429243,-0.13869 0.150654,-0.1387 0.150654,-0.40772 z m -1.205229,-0.89077 h 0.485439 q 0.178154,0 0.300112,0.01 0.121958,0.008 0.245111,0.0347 0.123153,0.0251 0.220002,0.0777 0.09804,0.0514 0.181741,0.13272 0.247502,0.23914 0.247502,0.6361 0,0.14587 -0.03348,0.27141 -0.03348,0.12555 -0.08967,0.21642 -0.0562,0.0897 -0.133914,0.16141 -0.07652,0.0717 -0.160219,0.11598 -0.0825,0.0442 -0.174567,0.0717 -0.200872,0.0574 -0.602615,0.0574 h -0.485439 z"
         style="font-style:normal;font-variant:normal;font-weight:bold;font-stretch:normal;font-size:2.4487195px;font-family:Waree;-inkscape-font-specification:'Waree Bold';fill:#cccccc;stroke-width:0.18365398"
         id="path947" />
      <path
         d="m 15.301935,272.68238 q 0,-0.0323 -0.0084,-0.0598 -0.0072,-0.0287 -0.0287,-0.0598 -0.02033,-0.0323 -0.06815,-0.0502 -0.04663,-0.0191 -0.11598,-0.0191 h -0.254676 v 0.37783 h 0.254676 q 0.221198,0 0.221198,-0.18892 z m 0.07293,0.73414 q 0,-0.23196 -0.278589,-0.23196 h -0.27022 v 0.46751 h 0.27022 q 0.278589,0 0.278589,-0.23555 z m 0.387396,-0.76403 q 0,0.13511 -0.06337,0.22479 -0.06217,0.0897 -0.174567,0.13272 0.144676,0.0418 0.227177,0.15663 0.0837,0.11478 0.0837,0.28696 0,0.11956 -0.03826,0.21043 -0.03707,0.0909 -0.118371,0.16022 -0.08011,0.0694 -0.218806,0.10522 -0.138697,0.0359 -0.330004,0.0359 H 14.36573 v -1.78512 h 0.691094 q 0.204458,0 0.344351,0.0335 0.141088,0.0323 0.218807,0.0981 0.07772,0.0646 0.110001,0.14707 0.03228,0.0813 0.03228,0.19369 z"
         style="font-style:normal;font-variant:normal;font-weight:bold;font-stretch:normal;font-size:2.4487195px;font-family:Waree;-inkscape-font-specification:'Waree Bold';fill:#cccccc;stroke-width:0.18365398"
         id="path949" />
      <path
         d="m 17.314237,273.64011 h -0.71979 l -0.113588,0.32522 h -0.462722 l 0.661202,-1.78512 h 0.54881 l 0.661202,1.78512 h -0.462722 z m -0.605006,-0.3312 h 0.489027 l -0.243916,-0.71022 z"
         style="font-style:normal;font-variant:normal;font-weight:bold;font-stretch:normal;font-size:2.4487195px;font-family:Waree;-inkscape-font-specification:'Waree Bold';fill:#cccccc;stroke-width:0.18365398"
         id="path951" />
      <path
         d="m 19.026427,273.66642 q 0.267829,0 0.514136,-0.16859 v 0.36946 q -0.254676,0.13272 -0.551201,0.13272 -0.448374,0 -0.707833,-0.24751 -0.259459,-0.24869 -0.259459,-0.67794 0,-0.42924 0.258263,-0.67794 0.259459,-0.2487 0.709029,-0.2487 0.296525,0 0.551201,0.13272 v 0.36946 q -0.248698,-0.16859 -0.514136,-0.16859 -0.251089,0 -0.389786,0.16022 -0.138697,0.15903 -0.138697,0.43283 0,0.27381 0.138697,0.43283 0.138697,0.15903 0.389786,0.15903 z"
         style="font-style:normal;font-variant:normal;font-weight:bold;font-stretch:normal;font-size:2.4487195px;font-family:Waree;-inkscape-font-specification:'Waree Bold';fill:#cccccc;stroke-width:0.18365398"
         id="path953" />
      <path
         d="m 19.923176,272.18021 h 0.46033 v 0.65163 l 0.663594,-0.65163 h 0.534461 l -0.859682,0.84533 0.948162,0.93979 h -0.57631 l -0.710225,-0.70305 v 0.70305 h -0.46033 z"
         style="font-style:normal;font-variant:normal;font-weight:bold;font-stretch:normal;font-size:2.4487195px;font-family:Waree;-inkscape-font-specification:'Waree Bold';fill:#cccccc;stroke-width:0.18365398"
         id="path955" />
    </g>
    <path
       style="display:inline;fill:none;stroke:#cccccc;stroke-width:0.52916664;stroke-miterlimit:4;stroke-dasharray:none;stroke-opacity:1"
       id="path8216-9"
       sodipodi:type="arc"
       sodipodi:cx="12.844255"
       sodipodi:cy="-263.96365"
       sodipodi:rx="6.0800848"
       sodipodi:ry="6.0800848"
       sodipodi:start="5.7595865"
       sodipodi:end="3.6651914"
       d="m 18.109763,-267.0037 a 6.0800848,6.0800848 0 0 1 -1.357304,7.69766 6.0800848,6.0800848 0 0 1 -7.8164066,0 6.0800848,6.0800848 0 0 1 -1.3573049,-7.69766"
       transform="scale(1,-1)"
       sodipodi:open="true" />
    <circle
       style="display:inline;fill:none;stroke:#cccccc;stroke-width:0.52916664;stroke-miterlimit:4;stroke-dasharray:none;stroke-opacity:1"
       id="path9488-2-9"
       cx="8.3925037"
       cy="268.80936"
       r="0.92604166" />
    <circle
       style="display:inline;fill:#cccccc;fill-opacity:1;stroke:#cccccc;stroke-width:0.52916664;stroke-miterlimit:4;stroke-dasharray:none;stroke-opacity:1"
       id="path9488-2-6-0"
       cx="17.304756"
       cy="268.68167"
       r="0.92604166" />
    <path
       style="display:inline;fill:none;stroke:#cccccc;stroke-width:0.26458335;stroke-miterlimit:4;stroke-dasharray:none;stroke-opacity:1"
       id="path8216-1-5-0-2"
       sodipodi:type="arc"
       sodipodi:cx="28.964056"
       sodipodi:cy="-242.1824"
       sodipodi:rx="2.8319817"
       sodipodi:ry="2.8319817"
       sodipodi:start="5.7595865"
       sodipodi:end="3.6651914"
       d="m 31.416624,-243.59839 a 2.8319817,2.8319817 0 0 1 -0.632205,3.58541 2.8319817,2.8319817 0 0 1 -3.640726,0 2.8319817,2.8319817 0 0 1 -0.632205,-3.58541 l 2.452568,1.41599 z"
       transform="scale(1,-1)" />
    <path
       style="display:inline;fill:#cccccc;fill-opacity:1;stroke:#cccccc;stroke-width:0.26458335;stroke-linecap:butt;stroke-linejoin:miter;stroke-miterlimit:4;stroke-dasharray:none;stroke-opacity:1"
       d="m 31.32398,243.89666 0.006,1.10261"
       id="path9630-2-6-1"
       inkscape:connector-curvature="0"
       sodipodi:nodetypes="cc" />
    <path
       style="display:inline;fill:#cccccc;fill-opacity:1;stroke:#cccccc;stroke-width:0.26458335;stroke-linecap:butt;stroke-linejoin:miter;stroke-miterlimit:4;stroke-dasharray:none;stroke-opacity:1"
       d="m 31.878281,244.44006 -1.102618,0.005"
       id="path9630-1-1-4-7"
       inkscape:connector-curvature="0"
       sodipodi:nodetypes="cc"
       inkscape:transform-center-x="-1.0162854"
       inkscape:transform-center-y="0.22178906" />
    <path
       style="display:inline;fill:#cccccc;fill-opacity:1;stroke:#cccccc;stroke-width:0.26458335;stroke-linecap:butt;stroke-linejoin:miter;stroke-miterlimit:4;stroke-dasharray:none;stroke-opacity:1"
       d="m 27.299935,244.40875 -1.102618,0.005"
       id="path9630-1-6-9-9-2"
       inkscape:connector-curvature="0"
       sodipodi:nodetypes="cc"
       inkscape:transform-center-x="-1.0162854"
       inkscape:transform-center-y="0.22178906" />
    <path
       style="fill:none;stroke:#cccccc;stroke-width:0.28634623;stroke-linecap:butt;stroke-linejoin:miter;stroke-miterlimit:4;stroke-dasharray:none;stroke-opacity:1"
       d="m 28.964045,242.18291 -0.0058,-3.32557"
       id="path9948-9-9-4"
       inkscape:connector-curvature="0" />
    <path
       style="display:inline;fill:none;stroke:#cccccc;stroke-width:0.26458335;stroke-miterlimit:4;stroke-dasharray:none;stroke-opacity:1"
       id="path8216-1-5-0-2-9"
       sodipodi:type="arc"
       sodipodi:cx="28.964056"
       sodipodi:cy="-262.1824"
       sodipodi:rx="2.8319817"
       sodipodi:ry="2.8319817"
       sodipodi:start="5.7595865"
       sodipodi:end="3.6651914"
       d="m 31.416624,-263.59839 a 2.8319817,2.8319817 0 0 1 -0.632205,3.58541 2.8319817,2.8319817 0 0 1 -3.640726,0 2.8319817,2.8319817 0 0 1 -0.632205,-3.58541 l 2.452568,1.41599 z"
       transform="scale(1,-1)" />
    <path
       style="display:inline;fill:#cccccc;fill-opacity:1;stroke:#cccccc;stroke-width:0.26458335;stroke-linecap:butt;stroke-linejoin:miter;stroke-miterlimit:4;stroke-dasharray:none;stroke-opacity:1"
       d="m 31.32398,263.89666 0.006,1.10261"
       id="path9630-2-6-1-7"
       inkscape:connector-curvature="0"
       sodipodi:nodetypes="cc" />
    <path
       style="display:inline;fill:#cccccc;fill-opacity:1;stroke:#cccccc;stroke-width:0.26458335;stroke-linecap:butt;stroke-linejoin:miter;stroke-miterlimit:4;stroke-dasharray:none;stroke-opacity:1"
       d="m 31.878281,264.44006 -1.102618,0.005"
       id="path9630-1-1-4-7-2"
       inkscape:connector-curvature="0"
       sodipodi:nodetypes="cc"
       inkscape:transform-center-x="-1.0162854"
       inkscape:transform-center-y="0.22178906" />
    <path
       style="display:inline;fill:#cccccc;fill-opacity:1;stroke:#cccccc;stroke-width:0.26458335;stroke-linecap:butt;stroke-linejoin:miter;stroke-miterlimit:4;stroke-dasharray:none;stroke-opacity:1"
       d="m 27.299935,264.40875 -1.102618,0.005"
       id="path9630-1-6-9-9-2-2"
       inkscape:connector-curvature="0"
       sodipodi:nodetypes="cc"
       inkscape:transform-center-x="-1.0162854"
       inkscape:transform-center-y="0.22178906" />
    <path
       style="fill:none;stroke:#cccccc;stroke-width:0.28911558;stroke-linecap:butt;stroke-linejoin:miter;stroke-miterlimit:4;stroke-dasharray:none;stroke-opacity:1"
       d="m 28.964044,262.18298 -0.0058,-3.39185"
       id="path9948-9-9-4-1"
       inkscape:connector-curvature="0" />
    <g
       aria-label="V/OCT"
       style="font-style:normal;font-weight:normal;font-size:7.34615898px;line-height:1.25;font-family:sans-serif;letter-spacing:0px;word-spacing:0px;display:inline;fill:#cccccc;fill-opacity:1;stroke:none;stroke-width:0.18365398"
       id="text9293-3">
      <path
         d="m 26.040324,228.92881 h 0.333313 l 0.341065,0.94912 0.340203,-0.94912 h 0.333313 l -0.476285,1.28588 h -0.395324 z"
         style="font-style:normal;font-variant:normal;font-weight:bold;font-stretch:normal;font-size:1.76388884px;font-family:Waree;-inkscape-font-specification:'Waree Bold';fill:#cccccc;stroke-width:0.18365398"
         id="path967" />
      <path
         d="m 27.848999,228.92881 h 0.191203 l -0.453891,1.44952 h -0.190342 z"
         style="font-style:normal;font-variant:normal;font-weight:bold;font-stretch:normal;font-size:1.76388884px;font-family:Waree;-inkscape-font-specification:'Waree Bold';fill:#cccccc;stroke-width:0.18365398"
         id="path969" />
      <path
         d="m 29.090095,229.74357 q 0.01895,-0.0767 0.01895,-0.17053 0,-0.0939 -0.01895,-0.17053 -0.01895,-0.0767 -0.05684,-0.13436 -0.0379,-0.0586 -0.09991,-0.0904 -0.06201,-0.0319 -0.143833,-0.0319 -0.107659,0 -0.180867,0.0568 -0.07235,0.056 -0.105076,0.14987 -0.03273,0.0939 -0.03273,0.22048 0,0.19379 0.07924,0.31006 0.0801,0.11627 0.239434,0.11627 0.08182,0 0.143833,-0.0319 0.06201,-0.0319 0.09991,-0.0896 0.0379,-0.0586 0.05684,-0.13436 z m -0.786343,0.3204 q -0.1757,-0.1757 -0.1757,-0.49093 0,-0.31522 0.1757,-0.49092 0.176561,-0.17657 0.485758,-0.17657 0.310059,0 0.485759,0.1757 0.1757,0.1757 0.1757,0.49179 0,0.31523 -0.176561,0.49093 -0.1757,0.1757 -0.484898,0.1757 -0.309197,0 -0.485758,-0.1757 z"
         style="font-style:normal;font-variant:normal;font-weight:bold;font-stretch:normal;font-size:1.76388884px;font-family:Waree;-inkscape-font-specification:'Waree Bold';fill:#cccccc;stroke-width:0.18365398"
         id="path971" />
      <path
         d="m 30.350139,229.99937 q 0.192925,0 0.370347,-0.12144 v 0.26614 q -0.183451,0.0956 -0.397047,0.0956 -0.322978,0 -0.509874,-0.17829 -0.186896,-0.17914 -0.186896,-0.48834 0,-0.3092 0.186035,-0.48834 0.186896,-0.17915 0.510735,-0.17915 0.213596,0 0.397047,0.0956 v 0.26613 q -0.179145,-0.12144 -0.370347,-0.12144 -0.180868,0 -0.280776,0.11541 -0.09991,0.11455 -0.09991,0.31178 0,0.19723 0.09991,0.31178 0.09991,0.11455 0.280776,0.11455 z"
         style="font-style:normal;font-variant:normal;font-weight:bold;font-stretch:normal;font-size:1.76388884px;font-family:Waree;-inkscape-font-specification:'Waree Bold';fill:#cccccc;stroke-width:0.18365398"
         id="path973" />
      <path
         d="M 30.842787,228.92881 H 32.0279 v 0.25063 h -0.42633 v 1.03525 h -0.331591 v -1.03525 h -0.427192 z"
         style="font-style:normal;font-variant:normal;font-weight:bold;font-stretch:normal;font-size:1.76388884px;font-family:Waree;-inkscape-font-specification:'Waree Bold';fill:#cccccc;stroke-width:0.18365398"
         id="path975" />
    </g>
    <path
       style="fill:none;stroke:#cccccc;stroke-width:0.55796188;stroke-linecap:butt;stroke-linejoin:miter;stroke-miterlimit:4;stroke-dasharray:none;stroke-opacity:1"
       d="m 12.838451,223.72104 -0.01232,-6.76835"
       id="path9948-3"
       inkscape:connector-curvature="0" />
    <path
       style="display:inline;fill:#cccccc;fill-opacity:1;stroke:#cccccc;stroke-width:0.52916664;stroke-linecap:butt;stroke-linejoin:miter;stroke-miterlimit:4;stroke-dasharray:none;stroke-opacity:1"
       d="m 18.005159,227.62002 0.0129,2.36724"
       id="path9630-3"
       inkscape:connector-curvature="0"
       sodipodi:nodetypes="cc" />
    <path
       style="display:inline;fill:#cccccc;fill-opacity:1;stroke:#cccccc;stroke-width:0.52916664;stroke-linecap:butt;stroke-linejoin:miter;stroke-miterlimit:4;stroke-dasharray:none;stroke-opacity:1"
       d="m 19.195209,228.78666 -2.367249,0.011"
       id="path9630-1-5"
       inkscape:connector-curvature="0"
       sodipodi:nodetypes="cc"
       inkscape:transform-center-x="-1.0162854"
       inkscape:transform-center-y="0.22178906" />
    <path
       style="display:inline;fill:#cccccc;fill-opacity:1;stroke:#cccccc;stroke-width:0.52916664;stroke-linecap:butt;stroke-linejoin:miter;stroke-miterlimit:4;stroke-dasharray:none;stroke-opacity:1"
       d="m 9.3657905,228.71944 -2.3672501,0.011"
       id="path9630-1-6-6"
       inkscape:connector-curvature="0"
       sodipodi:nodetypes="cc"
       inkscape:transform-center-x="-1.0162854"
       inkscape:transform-center-y="0.22178906" />
  </g>
</svg>
