<?xml version="1.0" encoding="UTF-8" standalone="no"?>
<!-- Created with Inkscape (http://www.inkscape.org/) -->

<svg
   xmlns:dc="http://purl.org/dc/elements/1.1/"
   xmlns:cc="http://creativecommons.org/ns#"
   xmlns:rdf="http://www.w3.org/1999/02/22-rdf-syntax-ns#"
   xmlns:svg="http://www.w3.org/2000/svg"
   xmlns="http://www.w3.org/2000/svg"
   xmlns:sodipodi="http://sodipodi.sourceforge.net/DTD/sodipodi-0.dtd"
   xmlns:inkscape="http://www.inkscape.org/namespaces/inkscape"
   width="149.88928"
   height="380"
   viewBox="0 0 39.658205 100.54167"
   version="1.1"
   id="svg9749"
   inkscape:version="0.92.2 5c3e80d, 2017-08-06"
   sodipodi:docname="Stabile.svg"
   inkscape:export-filename="/home/leonardo/Development/VultArtwork/Stabile-render.png"
   inkscape:export-xdpi="96"
   inkscape:export-ydpi="96">
  <defs
     id="defs9743">
    <clipPath
       id="clipPath6367"
       clipPathUnits="userSpaceOnUse">
      <path
         inkscape:connector-curvature="0"
         id="path6365"
         d="M 0,3193 H 2089 V 0 H 0 Z" />
    </clipPath>
  </defs>
  <sodipodi:namedview
     id="base"
     pagecolor="#ffffff"
     bordercolor="#666666"
     borderopacity="1.0"
     inkscape:pageopacity="0.0"
     inkscape:pageshadow="2"
     inkscape:zoom="2.0000001"
     inkscape:cx="-127.01096"
     inkscape:cy="191.44893"
     inkscape:document-units="mm"
     inkscape:current-layer="layer1"
     showgrid="false"
     units="px"
     inkscape:window-width="1680"
     inkscape:window-height="988"
     inkscape:window-x="0"
     inkscape:window-y="34"
     inkscape:window-maximized="1"
     showguides="true"
     inkscape:guide-bbox="true">
    <sodipodi:guide
       position="-42.33333,79.771874"
       orientation="0,1"
       id="guide971"
       inkscape:locked="false" />
    <sodipodi:guide
       position="-43.12708,11.90625"
       orientation="0,1"
       id="guide973"
       inkscape:locked="false" />
    <sodipodi:guide
       position="3.4882345,93.710767"
       orientation="1,0"
       id="guide975"
       inkscape:locked="false" />
    <sodipodi:guide
       position="36.78786,84.950103"
       orientation="1,0"
       id="guide977"
       inkscape:locked="false" />
  </sodipodi:namedview>
  <metadata
     id="metadata9746">
    <rdf:RDF>
      <cc:Work
         rdf:about="">
        <dc:format>image/svg+xml</dc:format>
        <dc:type
           rdf:resource="http://purl.org/dc/dcmitype/StillImage" />
        <dc:title></dc:title>
      </cc:Work>
    </rdf:RDF>
  </metadata>
  <g
     inkscape:label="Layer 1"
     inkscape:groupmode="layer"
     id="layer1"
     transform="translate(0,-196.45833)">
    <rect
       style="fill:#808080;fill-opacity:1;stroke:none;stroke-width:0.54256618;stroke-miterlimit:4;stroke-dasharray:none;stroke-opacity:1"
       id="rect9931"
       width="39.584042"
       height="100.45829"
       x="0.053925231"
       y="196.51166" />
    <rect
       style="fill:#333333;stroke-width:0.22742687"
       id="rect8093"
       width="33.299625"
       height="8.7606611"
       x="3.4882345"
       y="203.28923"
       rx="2.7123952" />
    <path
       inkscape:connector-curvature="0"
       style="fill:#757575;stroke:#353535;stroke-width:0.18644512;stroke-miterlimit:10"
       stroke-miterlimit="10"
       d="m 10.550962,207.88229 c 0,-1.37659 -1.1159508,-2.49253 -2.4925629,-2.49253 -1.3765572,0 -2.492519,1.11594 -2.492519,2.49253 0,1.37658 1.1159508,2.49253 2.492519,2.49253 1.3766121,0 2.4925629,-1.11595 2.4925629,-2.49253 z"
       id="path4" />
    <g
       transform="matrix(0.01096736,0,0,0.01096736,3.5635801,201.06668)"
       id="g40">
      <polygon
         style="fill:#2b2b2b"
         points="333.707,762.107 357.002,759.965 372.393,735.184 342.799,668.57 281.111,604.987 293.899,691.309 310.528,726.941 "
         id="polygon6" />
      <polygon
         style="fill:#262626"
         points="484.06,762.313 460.762,760.17 445.37,735.387 474.967,668.775 536.652,605.193 523.865,691.514 507.235,727.145 "
         id="polygon8" />
      <path
         style="fill:#017755"
         inkscape:connector-curvature="0"
         d="M 499.238,664.078"
         id="path10" />
      <polygon
         style="fill:#424242"
         points="257.223,571.1 255.625,549.52 287.596,491.973 337.948,452.81 409.884,434.427 409.884,808.75 372.316,734.951 342.799,668.57 314.328,652.395 "
         id="polygon12" />
      <polygon
         style="fill:#333333"
         points="562.451,571.234 564.05,549.655 532.081,492.108 481.727,452.944 409.795,434.562 409.795,808.887 447.359,735.086 476.877,668.707 505.35,652.529 "
         id="polygon14" />
      <polyline
         style="fill:#4c4c4c"
         points="361.886,616.429 409.846,569.542 409.846,603.771 361.886,651.598 361.886,616.429  "
         id="polyline16" />
      <polygon
         style="fill:#5b5b5b"
         points="372.393,735.184 409.884,808.75 409.881,603.732 361.924,651.559 "
         id="polygon18" />
      <polygon
         style="fill:#333333"
         points="409.884,808.75 372.393,735.184 409.878,717.512 "
         id="polygon20" />
      <polygon
         style="fill:#ffffff"
         points="361.924,651.559 361.924,616.39 327.158,572.432 286.039,539.303 285.996,565.237 307.578,615.989 "
         id="polygon22" />
      <polyline
         style="fill:#2d2d2d"
         points="457.816,616.448 409.859,569.561 409.859,603.79 457.816,651.616 457.816,616.448  "
         id="polyline24" />
      <polygon
         style="fill:#353535"
         points="447.289,735.184 409.801,808.75 409.804,603.732 457.758,651.559 "
         id="polygon26" />
      <polygon
         style="fill:#191919"
         points="409.801,808.75 447.289,735.184 409.807,717.512 "
         id="polygon28" />
      <polygon
         style="fill:#ffffff"
         points="457.758,651.559 457.758,616.391 492.523,572.433 533.645,539.303 533.686,565.238 512.108,615.991 "
         id="polygon30" />
      <polyline
         style="fill:#383838"
         points="338.399,452.22 409.824,569.549 409.67,434.003  "
         id="polyline32" />
      <polyline
         style="fill:#2d2d2d"
         points="481.271,452.232 409.846,569.561 410,434.016  "
         id="polyline34" />
      <polygon
         style="fill:#333333"
         points="342.815,668.578 361.958,651.596 372.406,735.27 "
         id="polygon36" />
      <polygon
         style="fill:#1c1c1c"
         points="476.975,668.989 457.831,652.007 447.383,735.682 "
         id="polygon38" />
    </g>
    <g
       aria-label="stabile"
       style="font-style:normal;font-weight:normal;font-size:3.96875095px;line-height:1.25;font-family:sans-serif;letter-spacing:0px;word-spacing:0px;fill:#666666;fill-opacity:1;stroke:none;stroke-width:0.09921876"
       id="text7967">
      <path
         d="m 20.276629,207.18938 q 0,0.30037 -0.23642,0.47865 -0.234482,0.17828 -0.592987,0.17828 -0.201538,0 -0.358505,-0.0484 -0.156968,-0.0485 -0.249985,-0.12209 -0.09302,-0.0736 -0.155029,-0.17441 -0.06201,-0.10077 -0.0872,-0.18991 -0.02326,-0.0891 -0.02907,-0.18603 h 0.42633 q 0.01938,0.16278 0.135651,0.24804 0.11821,0.0853 0.315872,0.0853 0.193787,0 0.298432,-0.0717 0.106582,-0.0736 0.106582,-0.16084 0,-0.0581 -0.01938,-0.10077 -0.01938,-0.0426 -0.04651,-0.0698 -0.02713,-0.0271 -0.08527,-0.0465 -0.0562,-0.0213 -0.104645,-0.0329 -0.04651,-0.0116 -0.135651,-0.0271 -0.120148,-0.0213 -0.201538,-0.0388 -0.07945,-0.0194 -0.176346,-0.0465 -0.09495,-0.0291 -0.156967,-0.0601 -0.06007,-0.0329 -0.122086,-0.0795 -0.06201,-0.0485 -0.09689,-0.10658 -0.03488,-0.0581 -0.05814,-0.13759 -0.02132,-0.0795 -0.02132,-0.17829 0,-0.27711 0.211227,-0.43989 0.213165,-0.16472 0.546478,-0.16472 0.164719,0 0.296494,0.0291 0.133713,0.0291 0.218979,0.0814 0.0872,0.0504 0.147278,0.11239 0.06201,0.0601 0.09302,0.13565 0.03101,0.0756 0.04457,0.14147 0.01356,0.0659 0.0155,0.13565 h -0.42633 q -0.01938,-0.24805 -0.364319,-0.24805 -0.186036,0 -0.271302,0.064 -0.08527,0.064 -0.08527,0.14728 0,0.0523 0.01938,0.093 0.02132,0.0407 0.05232,0.0678 0.03101,0.0252 0.08527,0.0465 0.0562,0.0213 0.106583,0.0329 0.05232,0.0116 0.131775,0.0271 0.465088,0.0853 0.647247,0.2151 0.18216,0.12984 0.18216,0.41083 z"
         style="font-style:normal;font-variant:normal;font-weight:bold;font-stretch:normal;font-family:Umpush;-inkscape-font-specification:Umpush;fill:#666666;stroke-width:0.09921876"
         id="path928" />
      <path
         d="m 21.452914,207.4413 0.05038,0.37401 q -0.139527,0.0291 -0.286805,0.0291 -0.08333,0 -0.151153,-0.0116 -0.06589,-0.01 -0.116272,-0.0252 -0.04845,-0.0155 -0.0872,-0.0485 -0.03876,-0.0329 -0.06395,-0.0581 -0.02325,-0.0271 -0.04069,-0.0775 -0.01744,-0.0523 -0.02713,-0.0853 -0.0078,-0.0349 -0.01163,-0.10077 -0.0039,-0.0678 -0.0058,-0.10464 0,-0.0388 0,-0.11627 v -1.06777 h -0.248047 v -0.38757 h 0.248047 v -0.71895 h 0.426331 v 0.71895 h 0.25386 v 0.38757 h -0.25386 v 1.0949 q 0,0.21316 0.209289,0.21316 l 0.01163,-0.002 q 0.01163,-0.002 0.03682,-0.006 0.02713,-0.004 0.0562,-0.008 z"
         style="font-style:normal;font-variant:normal;font-weight:bold;font-stretch:normal;font-family:Umpush;-inkscape-font-specification:Umpush;fill:#666666;stroke-width:0.09921876"
         id="path930" />
      <path
         d="m 23.458606,206.95683 q 0,0.43408 0.01744,0.5833 0.01938,0.14728 0.09302,0.27905 h -0.461212 q -0.03488,-0.0969 -0.04263,-0.18603 -0.147278,0.12402 -0.306183,0.16859 -0.156967,0.0426 -0.38176,0.0426 -0.197662,0 -0.343002,-0.0562 -0.14534,-0.0562 -0.220917,-0.14728 -0.07364,-0.0911 -0.106582,-0.18604 -0.03294,-0.0949 -0.03294,-0.19572 0,-0.29649 0.207352,-0.4554 0.207351,-0.16084 0.602676,-0.21123 0.323624,-0.0387 0.550354,-0.12014 -0.0097,-0.20542 -0.10852,-0.2965 -0.09883,-0.0911 -0.313935,-0.0911 -0.186035,0 -0.306183,0.0891 -0.120147,0.0872 -0.158905,0.21511 l -0.412765,-0.0581 q 0.06782,-0.32362 0.294555,-0.47865 0.226731,-0.15503 0.633683,-0.15503 0.213165,0 0.354629,0.0349 0.141465,0.0329 0.244172,0.12015 0.104644,0.0853 0.151153,0.23836 0.04651,0.15115 0.04651,0.38369 z m -1.358445,0.26549 q 0,0.0872 0.06589,0.1434 0.06589,0.0543 0.143402,0.0736 0.07945,0.0174 0.164719,0.0174 0.279053,0 0.418579,-0.11821 0.139526,-0.12015 0.139526,-0.37982 v -0.0988 q -0.112396,0.0407 -0.259674,0.0678 -0.147278,0.0252 -0.255798,0.0388 -0.108521,0.0136 -0.20929,0.0388 -0.100769,0.0232 -0.155029,0.0756 -0.05232,0.0523 -0.05232,0.14146 z"
         style="font-style:normal;font-variant:normal;font-weight:bold;font-stretch:normal;font-family:Umpush;-inkscape-font-specification:Umpush;fill:#666666;stroke-width:0.09921876"
         id="path932" />
      <path
         d="m 24.894565,207.84438 q -0.100769,0 -0.193787,-0.0233 -0.09108,-0.0233 -0.153091,-0.0601 -0.06201,-0.0368 -0.09496,-0.0601 -0.03101,-0.0233 -0.05232,-0.0446 v 0.16278 h -0.401138 v -2.84091 h 0.42633 v 0.92243 q 0.248047,-0.20348 0.486405,-0.20348 0.271301,0 0.470901,0.13953 0.199601,0.13952 0.30037,0.37594 0.100769,0.23642 0.100769,0.54067 0,0.32168 -0.100769,0.56585 -0.09883,0.24224 -0.302308,0.3837 -0.203476,0.14147 -0.486404,0.14147 z m -0.0097,-1.75959 q -0.205414,0 -0.333313,0.18991 -0.125962,0.18798 -0.125962,0.48059 0,0.16666 0.03101,0.2965 0.03101,0.1279 0.07558,0.20347 0.04651,0.0736 0.10852,0.12209 0.06201,0.0465 0.11821,0.064 0.0562,0.0155 0.112397,0.0155 0.228668,0 0.356567,-0.18216 0.129837,-0.18216 0.129837,-0.50578 0,-0.31975 -0.114334,-0.50191 -0.114334,-0.18216 -0.358505,-0.18216 z"
         style="font-style:normal;font-variant:normal;font-weight:bold;font-stretch:normal;font-family:Umpush;-inkscape-font-specification:Umpush;fill:#666666;stroke-width:0.09921876"
         id="path934" />
      <path
         d="m 26.183247,205.45499 v -0.47672 h 0.40889 v 0.47672 z m -0.0097,2.36419 v -2.05801 h 0.426331 v 2.05801 z"
         style="font-style:normal;font-variant:normal;font-weight:bold;font-stretch:normal;font-family:Umpush;-inkscape-font-specification:Umpush;fill:#666666;stroke-width:0.09921876"
         id="path936" />
      <path
         d="m 27.049473,207.81918 v -2.84091 h 0.426331 v 2.84091 z"
         style="font-style:normal;font-variant:normal;font-weight:bold;font-stretch:normal;font-family:Umpush;-inkscape-font-specification:Umpush;fill:#666666;stroke-width:0.09921876"
         id="path938" />
      <path
         d="m 28.843937,207.4568 q 0.106583,0 0.189911,-0.0213 0.08333,-0.0233 0.129837,-0.0543 0.04651,-0.0329 0.07945,-0.0756 0.03294,-0.0426 0.04457,-0.0717 0.01163,-0.0291 0.01744,-0.0601 h 0.441834 q -0.06201,0.31588 -0.298431,0.49416 -0.234482,0.17635 -0.606553,0.17635 -0.476715,0 -0.728638,-0.27324 -0.251922,-0.27324 -0.251922,-0.76934 0,-0.50966 0.249985,-0.80615 0.251922,-0.29843 0.711197,-0.29843 0.439895,0 0.687942,0.29068 0.249985,0.29068 0.249985,0.78677 0,0.0543 -0.0039,0.12403 h -1.457275 q 0.01744,0.24611 0.158905,0.40307 0.143402,0.15503 0.385635,0.15503 z m 0.478653,-0.94568 q -0.04263,-0.42633 -0.498031,-0.42633 -0.220917,0 -0.362382,0.12403 -0.139526,0.12208 -0.151153,0.3023 z"
         style="font-style:normal;font-variant:normal;font-weight:bold;font-stretch:normal;font-family:Umpush;-inkscape-font-specification:Umpush;fill:#666666;stroke-width:0.09921876"
         id="path940" />
    </g>
    <g
       id="g1906">
      <path
         style="fill:#666666;stroke-width:0.01764484"
         inkscape:connector-curvature="0"
         d="m 10.995869,205.68312 h 0.493138 l 0.459224,1.53414 0.474841,-1.53414 h 0.490632 l -0.638284,1.91782 c -0.05964,0.17682 -0.166497,0.26515 -0.32066,0.26515 -0.156228,0 -0.264161,-0.0893 -0.323695,-0.26787 z"
         id="path42" />
      <path
         style="fill:#666666;stroke-width:0.01764484"
         inkscape:connector-curvature="0"
         d="m 12.950652,207.30495 v -1.62183 h 0.462489 v 1.60641 c 0.0082,0.0576 0.06167,0.0863 0.160339,0.0863 h 0.314501 c 0.09452,0 0.146947,-0.0267 0.157251,-0.0802 l 0.0031,-0.0154 v -1.59716 h 0.462489 v 1.61874 c 0,0.14183 -0.0154,0.24257 -0.04625,0.30217 -0.08223,0.15831 -0.227142,0.23741 -0.434751,0.23741 h -0.59816 c -0.213821,0 -0.359743,-0.0812 -0.437839,-0.24359 -0.0288,-0.0596 -0.04316,-0.15723 -0.04316,-0.2929 z"
         id="path44" />
      <path
         style="fill:#666666;stroke-width:0.01764484"
         inkscape:connector-curvature="0"
         d="m 14.723553,207.31421 v -1.63107 h 0.462506 v 1.59407 c 0,0.0658 0.03901,0.0987 0.117162,0.0987 h 0.823255 l -0.0031,0.4656 h -0.860257 c -0.03083,0 -0.05757,-0.001 -0.08016,-0.003 -0.166515,-0.0144 -0.284735,-0.0632 -0.354591,-0.14645 -0.06991,-0.0833 -0.104828,-0.20917 -0.104828,-0.37773 z"
         id="path46" />
      <path
         style="fill:#666666;stroke-width:0.01764484"
         inkscape:connector-curvature="0"
         d="m 16.141845,206.1487 v -0.46558 h 1.387502 v 0.46558 H 17.06377 v 1.69276 h -0.462506 v -1.69276 z"
         id="path48" />
    </g>
    <g
       aria-label="state variable filter"
       style="font-style:normal;font-weight:normal;font-size:2.38262916px;line-height:1.25;font-family:sans-serif;letter-spacing:0px;word-spacing:0px;fill:#cccccc;fill-opacity:1;stroke:none;stroke-width:0.05956574"
       id="text7967-9-5">
      <path
         d="m 12.176995,209.62357 q 0,0.12099 -0.06166,0.20708 -0.0605,0.0861 -0.173346,0.13146 -0.111686,0.0454 -0.255946,0.0454 -0.382757,0 -0.521201,-0.21291 l 0.223372,-0.15705 q 0.05468,0.0745 0.125646,0.10005 0.07213,0.0244 0.153568,0.0244 0.214065,0 0.214065,-0.12448 0,-0.0547 -0.0605,-0.0838 -0.0605,-0.0303 -0.189633,-0.0617 -0.243149,-0.0535 -0.342037,-0.15124 -0.09889,-0.0977 -0.09889,-0.25362 0,-0.16171 0.12332,-0.26642 0.124483,-0.1047 0.365305,-0.1047 0.164039,0 0.288522,0.0524 0.125646,0.0523 0.193123,0.15706 l -0.224535,0.15938 q -0.08027,-0.12331 -0.261763,-0.12331 -0.09307,0 -0.140771,0.0326 -0.0477,0.0314 -0.0477,0.0814 0,0.0477 0.04305,0.0768 0.04304,0.0279 0.169855,0.0593 0.208247,0.0512 0.296665,0.10238 0.08958,0.05 0.134954,0.12565 0.04654,0.0745 0.04654,0.18382 z"
         style="font-style:normal;font-variant:normal;font-weight:bold;font-stretch:normal;font-family:Vemana2000;-inkscape-font-specification:Vemana2000;fill:#cccccc;stroke-width:0.05956574"
         id="path943" />
      <path
         d="m 13.092585,209.97142 q -0.120993,0.0361 -0.254783,0.0361 -0.211738,0 -0.304809,-0.0954 -0.09307,-0.0954 -0.09307,-0.30947 v -0.6131 H 12.28519 v -0.2385 h 0.154731 v -0.33971 h 0.300156 v 0.33971 h 0.283868 v 0.2385 h -0.283868 v 0.57471 q 0,0.11402 0.0349,0.15473 0.03607,0.0407 0.101215,0.0407 0.0826,0 0.164038,-0.0337 z"
         style="font-style:normal;font-variant:normal;font-weight:bold;font-stretch:normal;font-family:Vemana2000;-inkscape-font-specification:Vemana2000;fill:#cccccc;stroke-width:0.05956574"
         id="path945" />
      <path
         d="m 14.022136,209.97142 v -0.12681 q -0.177999,0.16288 -0.381593,0.16288 -0.20243,0 -0.305972,-0.10587 -0.103542,-0.10704 -0.103542,-0.2734 0,-0.1303 0.05235,-0.21523 0.05352,-0.0849 0.157058,-0.13263 0.104706,-0.0489 0.300156,-0.0686 l 0.25711,-0.0244 v -0.0547 q 0,-0.10237 -0.06166,-0.1396 -0.06166,-0.0384 -0.180326,-0.0384 -0.09772,0 -0.168692,0.0326 -0.0698,0.0326 -0.103542,0.0931 l -0.233842,-0.15008 q 0.06166,-0.10354 0.193123,-0.15822 0.131464,-0.0558 0.317607,-0.0558 0.285031,0 0.410677,0.10005 0.12681,0.0989 0.12681,0.32575 v 0.8295 z m -0.02443,-0.56657 -0.152405,0.014 q -0.161711,0.014 -0.233842,0.0617 -0.07097,0.0477 -0.07097,0.1431 0,0.0838 0.04654,0.11517 0.04654,0.0302 0.12332,0.0302 0.05468,0 0.132626,-0.0337 0.07911,-0.0349 0.154732,-0.0977 z"
         style="font-style:normal;font-variant:normal;font-weight:bold;font-stretch:normal;font-family:Vemana2000;-inkscape-font-specification:Vemana2000;fill:#cccccc;stroke-width:0.05956574"
         id="path947" />
      <path
         d="m 15.279764,209.97142 q -0.120993,0.0361 -0.254783,0.0361 -0.211738,0 -0.304809,-0.0954 -0.09307,-0.0954 -0.09307,-0.30947 v -0.6131 h -0.154732 v -0.2385 h 0.154732 v -0.33971 h 0.300155 v 0.33971 h 0.283868 v 0.2385 h -0.283868 v 0.57471 q 0,0.11402 0.0349,0.15473 0.03606,0.0407 0.101215,0.0407 0.0826,0 0.164038,-0.0337 z"
         style="font-style:normal;font-variant:normal;font-weight:bold;font-stretch:normal;font-family:Vemana2000;-inkscape-font-specification:Vemana2000;fill:#cccccc;stroke-width:0.05956574"
         id="path949" />
      <path
         d="m 15.690442,209.43975 q 0.0081,0.16287 0.07911,0.23384 0.07097,0.071 0.223371,0.071 0.08842,0 0.154731,-0.0221 0.06748,-0.0221 0.117503,-0.0849 l 0.223372,0.15938 q -0.07329,0.10587 -0.190797,0.15822 -0.116339,0.0524 -0.31877,0.0524 -0.301318,0 -0.450233,-0.15823 -0.147751,-0.15822 -0.147751,-0.47815 0,-0.65499 0.586351,-0.65499 0.2606,0 0.396717,0.14775 0.13728,0.14659 0.13728,0.42813 v 0.14775 z m 0.513056,-0.20708 q 0,-0.27806 -0.243149,-0.27806 -0.08027,0 -0.131463,0.0279 -0.05119,0.0267 -0.0826,0.0814 -0.03025,0.0535 -0.0477,0.1687 z"
         style="font-style:normal;font-variant:normal;font-weight:bold;font-stretch:normal;font-family:Vemana2000;-inkscape-font-specification:Vemana2000;fill:#cccccc;stroke-width:0.05956574"
         id="path951" />
      <path
         d="m 17.91834,209.97142 h -0.276888 l -0.432782,-1.2204 h 0.307136 l 0.27107,0.80391 0.269908,-0.80391 h 0.300155 z"
         style="font-style:normal;font-variant:normal;font-weight:bold;font-stretch:normal;font-family:Vemana2000;-inkscape-font-specification:Vemana2000;fill:#cccccc;stroke-width:0.05956574"
         id="path953" />
      <path
         d="m 19.252752,209.97142 v -0.12681 q -0.178,0.16288 -0.381593,0.16288 -0.202431,0 -0.305973,-0.10587 -0.103542,-0.10704 -0.103542,-0.2734 0,-0.1303 0.05235,-0.21523 0.05352,-0.0849 0.157058,-0.13263 0.104705,-0.0489 0.300155,-0.0686 l 0.25711,-0.0244 v -0.0547 q 0,-0.10237 -0.06166,-0.1396 -0.06166,-0.0384 -0.180326,-0.0384 -0.09773,0 -0.168692,0.0326 -0.0698,0.0326 -0.103542,0.0931 l -0.233842,-0.15008 q 0.06166,-0.10354 0.193123,-0.15822 0.131463,-0.0558 0.317606,-0.0558 0.285031,0 0.410678,0.10005 0.12681,0.0989 0.12681,0.32575 v 0.8295 z m -0.02443,-0.56657 -0.152404,0.014 q -0.161712,0.014 -0.233842,0.0617 -0.07097,0.0477 -0.07097,0.1431 0,0.0838 0.04654,0.11517 0.04653,0.0302 0.123319,0.0302 0.05468,0 0.132627,-0.0337 0.07911,-0.0349 0.154731,-0.0977 z"
         style="font-style:normal;font-variant:normal;font-weight:bold;font-stretch:normal;font-family:Vemana2000;-inkscape-font-specification:Vemana2000;fill:#cccccc;stroke-width:0.05956574"
         id="path955" />
      <path
         d="m 20.595307,209.0442 q -0.04653,-0.0233 -0.123319,-0.0233 -0.08376,0 -0.159385,0.0407 -0.07446,0.0396 -0.153568,0.11634 v 0.79343 h -0.300156 v -1.2204 h 0.300156 v 0.17451 q 0.07678,-0.0838 0.165202,-0.13844 0.08842,-0.0547 0.197777,-0.0547 0.09307,0 0.132626,0.0244 z"
         style="font-style:normal;font-variant:normal;font-weight:bold;font-stretch:normal;font-family:Vemana2000;-inkscape-font-specification:Vemana2000;fill:#cccccc;stroke-width:0.05956574"
         id="path957" />
      <path
         d="m 21.153736,208.41829 q 0,0.0849 -0.04188,0.11867 -0.04188,0.0337 -0.127974,0.0337 -0.0954,0 -0.1303,-0.0396 -0.03374,-0.0396 -0.03374,-0.11285 0,-0.0814 0.03723,-0.11634 0.03723,-0.0361 0.126809,-0.0361 0.09075,0 0.130301,0.0349 0.03956,0.0337 0.03956,0.1175 z m -0.317606,1.55313 v -1.2204 h 0.300155 v 1.2204 z"
         style="font-style:normal;font-variant:normal;font-weight:bold;font-stretch:normal;font-family:Vemana2000;-inkscape-font-specification:Vemana2000;fill:#cccccc;stroke-width:0.05956574"
         id="path959" />
      <path
         d="m 22.19381,209.97142 v -0.12681 q -0.177999,0.16288 -0.381593,0.16288 -0.202431,0 -0.305973,-0.10587 -0.103542,-0.10704 -0.103542,-0.2734 0,-0.1303 0.05235,-0.21523 0.05352,-0.0849 0.157058,-0.13263 0.104706,-0.0489 0.300156,-0.0686 l 0.25711,-0.0244 v -0.0547 q 0,-0.10237 -0.06166,-0.1396 -0.06166,-0.0384 -0.180326,-0.0384 -0.09772,0 -0.168692,0.0326 -0.0698,0.0326 -0.103542,0.0931 l -0.233842,-0.15008 q 0.06166,-0.10354 0.193123,-0.15822 0.131463,-0.0558 0.317606,-0.0558 0.285032,0 0.410678,0.10005 0.12681,0.0989 0.12681,0.32575 v 0.8295 z m -0.02443,-0.56657 -0.152405,0.014 q -0.161712,0.014 -0.233842,0.0617 -0.07097,0.0477 -0.07097,0.1431 0,0.0838 0.04654,0.11517 0.04654,0.0302 0.123319,0.0302 0.05468,0 0.132627,-0.0337 0.07911,-0.0349 0.154732,-0.0977 z"
         style="font-style:normal;font-variant:normal;font-weight:bold;font-stretch:normal;font-family:Vemana2000;-inkscape-font-specification:Vemana2000;fill:#cccccc;stroke-width:0.05956574"
         id="path961" />
      <path
         d="m 23.9389,209.3525 q 0,0.30364 -0.127974,0.47931 -0.12681,0.17568 -0.362978,0.17568 -0.09307,0 -0.203594,-0.0419 -0.109359,-0.043 -0.174509,-0.10819 l -0.04072,0.11401 h -0.229188 v -1.73229 h 0.300155 v 0.60962 q 0.165202,-0.13263 0.365305,-0.13263 0.245476,0 0.359489,0.16985 0.114013,0.1687 0.114013,0.46653 z m -0.309463,0.005 q 0,-0.18847 -0.05933,-0.28271 -0.05933,-0.0942 -0.190797,-0.0942 -0.07329,0 -0.148914,0.0349 -0.07446,0.0337 -0.1303,0.0838 v 0.53399 q 0.05003,0.043 0.120993,0.0768 0.07213,0.0326 0.139607,0.0326 0.129137,0 0.19894,-0.0977 0.0698,-0.0989 0.0698,-0.28736 z"
         style="font-style:normal;font-variant:normal;font-weight:bold;font-stretch:normal;font-family:Vemana2000;-inkscape-font-specification:Vemana2000;fill:#cccccc;stroke-width:0.05956574"
         id="path963" />
      <path
         d="m 24.214624,209.97142 v -1.73229 h 0.300155 v 1.73229 z"
         style="font-style:normal;font-variant:normal;font-weight:bold;font-stretch:normal;font-family:Vemana2000;-inkscape-font-specification:Vemana2000;fill:#cccccc;stroke-width:0.05956574"
         id="path965" />
      <path
         d="m 25.099965,209.43975 q 0.0081,0.16287 0.07911,0.23384 0.07097,0.071 0.223372,0.071 0.08842,0 0.154731,-0.0221 0.06748,-0.0221 0.117503,-0.0849 l 0.223371,0.15938 q -0.07329,0.10587 -0.190796,0.15822 -0.11634,0.0524 -0.31877,0.0524 -0.301319,0 -0.450233,-0.15823 -0.147751,-0.15822 -0.147751,-0.47815 0,-0.65499 0.58635,-0.65499 0.2606,0 0.396717,0.14775 0.13728,0.14659 0.13728,0.42813 v 0.14775 z m 0.513057,-0.20708 q 0,-0.27806 -0.243149,-0.27806 -0.08027,0 -0.131464,0.0279 -0.05119,0.0267 -0.0826,0.0814 -0.03025,0.0535 -0.0477,0.1687 z"
         style="font-style:normal;font-variant:normal;font-weight:bold;font-stretch:normal;font-family:Vemana2000;-inkscape-font-specification:Vemana2000;fill:#cccccc;stroke-width:0.05956574"
         id="path967" />
      <path
         d="m 27.398831,208.49391 q -0.08376,-0.0279 -0.161712,-0.0279 -0.08842,0 -0.122156,0.0372 -0.03257,0.0361 -0.03257,0.12913 v 0.11867 h 0.247803 v 0.2385 h -0.247803 v 0.9819 h -0.300155 v -0.9819 h -0.154732 v -0.2385 h 0.154732 v -0.11867 q 0,-0.22686 0.111685,-0.32807 0.112849,-0.10122 0.338548,-0.10122 0.105868,0 0.224535,0.0291 z m 0.440926,-0.0756 q 0,0.0849 -0.04188,0.11867 -0.04188,0.0337 -0.127974,0.0337 -0.0954,0 -0.1303,-0.0396 -0.03374,-0.0396 -0.03374,-0.11285 0,-0.0814 0.03723,-0.11634 0.03723,-0.0361 0.126809,-0.0361 0.09075,0 0.130301,0.0349 0.03956,0.0337 0.03956,0.1175 z m -0.317606,1.55313 v -1.2204 h 0.300155 v 1.2204 z"
         style="font-style:normal;font-variant:normal;font-weight:bold;font-stretch:normal;font-family:Vemana2000;-inkscape-font-specification:Vemana2000;fill:#cccccc;stroke-width:0.05956574"
         id="path969" />
      <path
         d="m 28.160854,209.97142 v -1.73229 h 0.300155 v 1.73229 z"
         style="font-style:normal;font-variant:normal;font-weight:bold;font-stretch:normal;font-family:Vemana2000;-inkscape-font-specification:Vemana2000;fill:#cccccc;stroke-width:0.05956574"
         id="path971" />
      <path
         d="m 29.473161,209.97142 q -0.120993,0.0361 -0.254783,0.0361 -0.211738,0 -0.304809,-0.0954 -0.09307,-0.0954 -0.09307,-0.30947 v -0.6131 h -0.154731 v -0.2385 h 0.154731 v -0.33971 h 0.300156 v 0.33971 h 0.283867 v 0.2385 h -0.283867 v 0.57471 q 0,0.11402 0.0349,0.15473 0.03607,0.0407 0.101216,0.0407 0.0826,0 0.164038,-0.0337 z"
         style="font-style:normal;font-variant:normal;font-weight:bold;font-stretch:normal;font-family:Vemana2000;-inkscape-font-specification:Vemana2000;fill:#cccccc;stroke-width:0.05956574"
         id="path973" />
      <path
         d="m 29.883838,209.43975 q 0.0081,0.16287 0.07911,0.23384 0.07097,0.071 0.223371,0.071 0.08842,0 0.154732,-0.0221 0.06748,-0.0221 0.117502,-0.0849 l 0.223372,0.15938 q -0.07329,0.10587 -0.190797,0.15822 -0.116339,0.0524 -0.318769,0.0524 -0.301319,0 -0.450234,-0.15823 -0.147751,-0.15822 -0.147751,-0.47815 0,-0.65499 0.586351,-0.65499 0.2606,0 0.396717,0.14775 0.13728,0.14659 0.13728,0.42813 v 0.14775 z m 0.513056,-0.20708 q 0,-0.27806 -0.243149,-0.27806 -0.08027,0 -0.131463,0.0279 -0.05119,0.0267 -0.0826,0.0814 -0.03025,0.0535 -0.0477,0.1687 z"
         style="font-style:normal;font-variant:normal;font-weight:bold;font-stretch:normal;font-family:Vemana2000;-inkscape-font-specification:Vemana2000;fill:#cccccc;stroke-width:0.05956574"
         id="path975" />
      <path
         d="m 31.703384,209.0442 q -0.04653,-0.0233 -0.123319,-0.0233 -0.08376,0 -0.159385,0.0407 -0.07446,0.0396 -0.153568,0.11634 v 0.79343 h -0.300155 v -1.2204 h 0.300155 v 0.17451 q 0.07678,-0.0838 0.165202,-0.13844 0.08842,-0.0547 0.197777,-0.0547 0.09307,0 0.132626,0.0244 z"
         style="font-style:normal;font-variant:normal;font-weight:bold;font-stretch:normal;font-family:Vemana2000;-inkscape-font-specification:Vemana2000;fill:#cccccc;stroke-width:0.05956574"
         id="path977" />
    </g>
    <g
       aria-label="INPUT"
       style="font-style:normal;font-weight:normal;font-size:7.3461585px;line-height:1.25;font-family:sans-serif;letter-spacing:0px;word-spacing:0px;display:inline;fill:#1a1a1a;fill-opacity:1;stroke:none;stroke-width:0.18365398"
       id="text9293-3-6">
      <path
         d="m 15.772382,289.18021 h 0.46033 v 1.78512 h -0.46033 z"
         style="font-style:normal;font-variant:normal;font-weight:bold;font-stretch:normal;font-size:2.4487195px;font-family:Waree;-inkscape-font-specification:'Waree Bold';fill:#1a1a1a;stroke-width:0.18365398"
         id="path1027" />
      <path
         d="m 16.685869,289.18021 h 0.514135 l 0.649246,1.22436 v -1.22436 h 0.436417 v 1.78512 h -0.514135 l -0.649246,-1.22436 v 1.22436 h -0.436417 z"
         style="font-style:normal;font-variant:normal;font-weight:bold;font-stretch:normal;font-size:2.4487195px;font-family:Waree;-inkscape-font-specification:'Waree Bold';fill:#1a1a1a;stroke-width:0.18365398"
         id="path1029" />
      <path
         d="m 20.01938,289.32608 q 0.187719,0.14587 0.187719,0.43641 0,0.29055 -0.187719,0.43762 -0.18772,0.14587 -0.517723,0.14587 h -0.303698 v 0.61935 h -0.460331 v -1.78512 h 0.764029 q 0.331199,0 0.517723,0.14587 z m -0.28696,0.43641 q 0,-0.12195 -0.07413,-0.18532 -0.07294,-0.0634 -0.205654,-0.0634 h -0.254676 v 0.49859 h 0.254676 q 0.132719,0 0.205654,-0.0634 0.07413,-0.0646 0.07413,-0.18653 z"
         style="font-style:normal;font-variant:normal;font-weight:bold;font-stretch:normal;font-size:2.4487195px;font-family:Waree;-inkscape-font-specification:'Waree Bold';fill:#1a1a1a;stroke-width:0.18365398"
         id="path1031" />
      <path
         d="m 21.299935,291.00001 q -0.386199,0 -0.577505,-0.18414 -0.191306,-0.18532 -0.191306,-0.56554 v -1.07012 h 0.46033 v 1.07012 q 0,0.21043 0.06935,0.31087 0.06935,0.10043 0.239132,0.10043 0.174567,0 0.241525,-0.10282 0.06815,-0.10283 0.06815,-0.30848 v -1.07012 h 0.460331 v 1.07012 q 0,0.38141 -0.191306,0.56554 -0.191307,0.18414 -0.578702,0.18414 z"
         style="font-style:normal;font-variant:normal;font-weight:bold;font-stretch:normal;font-size:2.4487195px;font-family:Waree;-inkscape-font-specification:'Waree Bold';fill:#1a1a1a;stroke-width:0.18365398"
         id="path1033" />
      <path
         d="m 22.30788,289.18021 h 1.645233 v 0.34793 H 23.36126 v 1.43719 h -0.460331 v -1.43719 H 22.30788 Z"
         style="font-style:normal;font-variant:normal;font-weight:bold;font-stretch:normal;font-size:2.4487195px;font-family:Waree;-inkscape-font-specification:'Waree Bold';fill:#1a1a1a;stroke-width:0.18365398"
         id="path1035" />
    </g>
    <rect
       style="display:inline;fill:#333333;stroke:none;stroke-width:0.65775913;stroke-miterlimit:4;stroke-dasharray:none;stroke-opacity:1"
       id="rect9305-9"
       width="32.141556"
       height="18.439972"
       x="4"
       y="242.90994"
       rx="4.56355" />
    <g
       aria-label="RESONANCE"
       style="font-style:normal;font-weight:normal;font-size:7.34615898px;line-height:1.25;font-family:sans-serif;letter-spacing:0px;word-spacing:0px;display:inline;fill:#cccccc;fill-opacity:1;stroke:none;stroke-width:0.18365398"
       id="text9293-4">
      <path
         d="m 8.1774248,259.09101 q 0,-0.12555 -0.065762,-0.17576 -0.065762,-0.0514 -0.2044586,-0.0514 H 7.7135072 v 0.45794 h 0.1936975 q 0.149458,0 0.2092412,-0.0562 0.060979,-0.0562 0.060979,-0.17457 z m 0.4603305,-0.0682 q 0,0.35033 -0.3431555,0.45794 0.1040228,0.0239 0.1769583,0.10641 0.074131,0.0825 0.1434796,0.2212 l 0.2498938,0.50696 H 8.3747093 l -0.2176108,-0.44359 q -0.060979,-0.12555 -0.1291317,-0.17816 -0.066957,-0.0538 -0.1841322,-0.0538 H 7.7135072 v 0.67555 H 7.2531766 v -1.78513 H 7.956227 q 0.1925018,0 0.3276118,0.0347 0.1351101,0.0347 0.2116325,0.10163 0.076522,0.067 0.1088055,0.15424 0.033479,0.0861 0.033479,0.20207 z"
         style="font-style:normal;font-variant:normal;font-weight:bold;font-stretch:normal;font-size:2.4487195px;font-family:Waree;-inkscape-font-specification:'Waree Bold';fill:#cccccc;stroke-width:0.18365398"
         id="path993" />
      <path
         d="m 9.1375428,258.53024 h 1.2422942 v 0.34794 H 9.5978734 v 0.3324 h 0.7353336 v 0.34793 H 9.5978734 v 0.40892 h 0.8082686 v 0.34794 H 9.1375428 Z"
         style="font-style:normal;font-variant:normal;font-weight:bold;font-stretch:normal;font-size:2.4487195px;font-family:Waree;-inkscape-font-specification:'Waree Bold';fill:#cccccc;stroke-width:0.18365398"
         id="path995" />
      <path
         d="m 11.42963,258.49796 q 0.296525,0 0.624137,0.0885 v 0.37783 q -0.296525,-0.13272 -0.551201,-0.13272 -0.174567,0 -0.248698,0.049 -0.07413,0.0478 -0.07413,0.1375 0,0.0753 0.05739,0.11479 0.05739,0.0383 0.188915,0.0658 l 0.196089,0.0395 q 0.28696,0.0574 0.417287,0.17815 0.131523,0.11957 0.131523,0.35033 0,0.30609 -0.181741,0.44479 -0.181741,0.13869 -0.528483,0.13869 -0.338373,0 -0.682724,-0.12793 v -0.38859 q 0.346742,0.18293 0.638484,0.18293 0.09446,0 0.159023,-0.0179 0.06576,-0.0191 0.09685,-0.0502 0.03109,-0.0323 0.04304,-0.0622 0.01196,-0.0299 0.01196,-0.0634 0,-0.0897 -0.06217,-0.13392 -0.06098,-0.0442 -0.209241,-0.0765 l -0.178154,-0.0395 q -0.254676,-0.0562 -0.385004,-0.17696 -0.130327,-0.12076 -0.130327,-0.34435 0,-0.2762 0.176958,-0.41489 0.176958,-0.1387 0.490222,-0.1387 z"
         style="font-style:normal;font-variant:normal;font-weight:bold;font-stretch:normal;font-size:2.4487195px;font-family:Waree;-inkscape-font-specification:'Waree Bold';fill:#cccccc;stroke-width:0.18365398"
         id="path997" />
      <path
         d="m 13.809001,259.66134 q 0.0263,-0.10641 0.0263,-0.23674 0,-0.13033 -0.0263,-0.23674 -0.0263,-0.10642 -0.07891,-0.18653 -0.05261,-0.0813 -0.138697,-0.12554 -0.08609,-0.0442 -0.199676,-0.0442 -0.149458,0 -0.25109,0.0789 -0.100435,0.0777 -0.145871,0.20805 -0.04544,0.13033 -0.04544,0.30609 0,0.26902 0.110001,0.43044 0.111197,0.16141 0.332395,0.16141 0.113588,0 0.199676,-0.0442 0.08609,-0.0442 0.138697,-0.12435 0.05261,-0.0813 0.07891,-0.18652 z m -1.091641,0.44479 q -0.243915,-0.24392 -0.243915,-0.68153 0,-0.43761 0.243915,-0.68153 0.245111,-0.24511 0.674355,-0.24511 0.430439,0 0.674354,0.24392 0.243915,0.24391 0.243915,0.68272 0,0.43761 -0.245111,0.68153 -0.243915,0.24391 -0.673158,0.24391 -0.429244,0 -0.674355,-0.24391 z"
         style="font-style:normal;font-variant:normal;font-weight:bold;font-stretch:normal;font-size:2.4487195px;font-family:Waree;-inkscape-font-specification:'Waree Bold';fill:#cccccc;stroke-width:0.18365398"
         id="path999" />
      <path
         d="m 14.656727,258.53024 h 0.514135 l 0.649246,1.22436 v -1.22436 h 0.436417 v 1.78513 H 15.74239 l -0.649246,-1.22436 v 1.22436 h -0.436417 z"
         style="font-style:normal;font-variant:normal;font-weight:bold;font-stretch:normal;font-size:2.4487195px;font-family:Waree;-inkscape-font-specification:'Waree Bold';fill:#cccccc;stroke-width:0.18365398"
         id="path1001" />
      <path
         d="m 17.791757,259.99015 h -0.71979 l -0.113588,0.32522 h -0.462722 l 0.661202,-1.78513 h 0.54881 l 0.661202,1.78513 h -0.462722 z m -0.605006,-0.3312 h 0.489027 l -0.243916,-0.71023 z"
         style="font-style:normal;font-variant:normal;font-weight:bold;font-stretch:normal;font-size:2.4487195px;font-family:Waree;-inkscape-font-specification:'Waree Bold';fill:#cccccc;stroke-width:0.18365398"
         id="path1003" />
      <path
         d="m 18.602418,258.53024 h 0.514135 l 0.649246,1.22436 v -1.22436 h 0.436417 v 1.78513 h -0.514135 l -0.649246,-1.22436 v 1.22436 h -0.436417 z"
         style="font-style:normal;font-variant:normal;font-weight:bold;font-stretch:normal;font-size:2.4487195px;font-family:Waree;-inkscape-font-specification:'Waree Bold';fill:#cccccc;stroke-width:0.18365398"
         id="path1005" />
      <path
         d="m 21.555707,260.01645 q 0.267829,0 0.514136,-0.16859 v 0.36946 q -0.254677,0.13272 -0.551201,0.13272 -0.448374,0 -0.707833,-0.2475 -0.259459,-0.2487 -0.259459,-0.67794 0,-0.42924 0.258263,-0.67794 0.259459,-0.2487 0.709029,-0.2487 0.296524,0 0.551201,0.13272 v 0.36946 q -0.248698,-0.16859 -0.514136,-0.16859 -0.251089,0 -0.389786,0.16022 -0.138697,0.15902 -0.138697,0.43283 0,0.27381 0.138697,0.43283 0.138697,0.15902 0.389786,0.15902 z"
         style="font-style:normal;font-variant:normal;font-weight:bold;font-stretch:normal;font-size:2.4487195px;font-family:Waree;-inkscape-font-specification:'Waree Bold';fill:#cccccc;stroke-width:0.18365398"
         id="path1007" />
      <path
         d="m 22.452455,258.53024 h 1.242294 v 0.34794 h -0.781964 v 0.3324 h 0.735333 v 0.34793 h -0.735333 v 0.40892 h 0.808269 v 0.34794 h -1.268599 z"
         style="font-style:normal;font-variant:normal;font-weight:bold;font-stretch:normal;font-size:2.4487195px;font-family:Waree;-inkscape-font-specification:'Waree Bold';fill:#cccccc;stroke-width:0.18365398"
         id="path1009" />
    </g>
    <path
       style="display:inline;fill:none;stroke:#cccccc;stroke-width:0.52916664;stroke-miterlimit:4;stroke-dasharray:none;stroke-opacity:1"
       id="path8216-1"
       sodipodi:type="arc"
       sodipodi:cx="12.844255"
       sodipodi:cy="-250.30083"
       sodipodi:rx="6.0800848"
       sodipodi:ry="6.0800848"
       sodipodi:start="5.7595865"
       sodipodi:end="3.6651914"
       d="m 18.109763,-253.34087 a 6.0800848,6.0800848 0 0 1 -1.357304,7.69766 6.0800848,6.0800848 0 0 1 -7.8164066,0 6.0800848,6.0800848 0 0 1 -1.3573049,-7.69766"
       transform="scale(1,-1)"
       sodipodi:open="true" />
    <rect
       style="display:inline;fill:#333333;stroke:none;stroke-width:0.73348248;stroke-miterlimit:4;stroke-dasharray:none;stroke-opacity:1"
       id="rect9305"
       width="32.141556"
       height="22.930099"
       x="4"
       y="217.39915"
       rx="4.56355" />
    <g
       aria-label="CUTOFF"
       style="font-style:normal;font-weight:normal;font-size:7.34615898px;line-height:1.25;font-family:sans-serif;letter-spacing:0px;word-spacing:0px;display:inline;fill:#cccccc;fill-opacity:1;stroke:none;stroke-width:0.18365398"
       id="text9293">
      <path
         d="m 9.3850767,238.43439 q 0.2678287,0 0.5141355,-0.16859 v 0.36946 q -0.2546764,0.13272 -0.5512011,0.13272 -0.4483739,0 -0.7078329,-0.2475 -0.2594591,-0.2487 -0.2594591,-0.67794 0,-0.42925 0.2582634,-0.67794 0.259459,-0.2487 0.7090286,-0.2487 0.2965247,0 0.5512011,0.13272 v 0.36946 q -0.2486981,-0.16859 -0.5141355,-0.16859 -0.2510894,0 -0.3897864,0.16022 -0.138697,0.15902 -0.138697,0.43283 0,0.2738 0.138697,0.43283 0.138697,0.15902 0.3897864,0.15902 z"
         style="font-style:normal;font-variant:normal;font-weight:bold;font-stretch:normal;font-size:2.4487195px;font-family:Waree;-inkscape-font-specification:'Waree Bold';fill:#cccccc;stroke-width:0.18365398"
         id="path980" />
      <path
         d="m 11.050636,238.76798 q -0.386199,0 -0.577505,-0.18413 -0.191306,-0.18533 -0.191306,-0.56555 v -1.07012 h 0.46033 v 1.07012 q 0,0.21044 0.06935,0.31087 0.06935,0.10044 0.239132,0.10044 0.174567,0 0.241524,-0.10283 0.06815,-0.10283 0.06815,-0.30848 v -1.07012 h 0.460331 v 1.07012 q 0,0.38142 -0.191306,0.56555 -0.191307,0.18413 -0.578702,0.18413 z"
         style="font-style:normal;font-variant:normal;font-weight:bold;font-stretch:normal;font-size:2.4487195px;font-family:Waree;-inkscape-font-specification:'Waree Bold';fill:#cccccc;stroke-width:0.18365398"
         id="path982" />
      <path
         d="m 12.058581,236.94818 h 1.645233 v 0.34794 h -0.591853 v 1.43719 H 12.65163 v -1.43719 h -0.593049 z"
         style="font-style:normal;font-variant:normal;font-weight:bold;font-stretch:normal;font-size:2.4487195px;font-family:Waree;-inkscape-font-specification:'Waree Bold';fill:#cccccc;stroke-width:0.18365398"
         id="path984" />
      <path
         d="m 15.130241,238.07928 q 0.02631,-0.10642 0.02631,-0.23674 0,-0.13033 -0.02631,-0.23674 -0.0263,-0.10642 -0.07891,-0.18653 -0.05261,-0.0813 -0.138697,-0.12554 -0.08609,-0.0442 -0.199675,-0.0442 -0.149458,0 -0.25109,0.0789 -0.100436,0.0777 -0.145871,0.20805 -0.04543,0.13032 -0.04543,0.30609 0,0.26902 0.110001,0.43044 0.111197,0.16141 0.332395,0.16141 0.113588,0 0.199675,-0.0442 0.08609,-0.0442 0.138697,-0.12435 0.05261,-0.0813 0.07891,-0.18652 z m -1.091641,0.44479 q -0.243915,-0.24392 -0.243915,-0.68153 0,-0.43762 0.243915,-0.68153 0.245111,-0.24511 0.674355,-0.24511 0.430439,0 0.674354,0.24391 0.243915,0.24392 0.243915,0.68273 0,0.43761 -0.245111,0.68153 -0.243915,0.24391 -0.673158,0.24391 -0.429244,0 -0.674355,-0.24391 z"
         style="font-style:normal;font-variant:normal;font-weight:bold;font-stretch:normal;font-size:2.4487195px;font-family:Waree;-inkscape-font-specification:'Waree Bold';fill:#cccccc;stroke-width:0.18365398"
         id="path986" />
      <path
         d="m 15.977967,236.94818 h 1.242295 v 0.34794 h -0.781964 v 0.33239 h 0.735333 v 0.34794 h -0.735333 v 0.75686 h -0.460331 z"
         style="font-style:normal;font-variant:normal;font-weight:bold;font-stretch:normal;font-size:2.4487195px;font-family:Waree;-inkscape-font-specification:'Waree Bold';fill:#cccccc;stroke-width:0.18365398"
         id="path988" />
      <path
         d="m 17.651896,236.94818 h 1.242295 v 0.34794 h -0.781964 v 0.33239 h 0.735333 v 0.34794 h -0.735333 v 0.75686 h -0.460331 z"
         style="font-style:normal;font-variant:normal;font-weight:bold;font-stretch:normal;font-size:2.4487195px;font-family:Waree;-inkscape-font-specification:'Waree Bold';fill:#cccccc;stroke-width:0.18365398"
         id="path990" />
    </g>
    <path
       style="display:inline;fill:none;stroke:#cccccc;stroke-width:0.26458335;stroke-miterlimit:4;stroke-dasharray:none;stroke-opacity:1"
       id="path8216-1-5-0-2"
       sodipodi:type="arc"
       sodipodi:cx="28.964056"
       sodipodi:cy="-248.53232"
       sodipodi:rx="2.8319817"
       sodipodi:ry="2.8319817"
       sodipodi:start="5.7595865"
       sodipodi:end="3.6651914"
       d="m 31.416624,-249.94831 a 2.8319817,2.8319817 0 0 1 -0.632205,3.58542 2.8319817,2.8319817 0 0 1 -3.640726,0 2.8319817,2.8319817 0 0 1 -0.632205,-3.58542 l 2.452568,1.41599 z"
       transform="scale(1,-1)" />
    <path
       style="display:inline;fill:#cccccc;fill-opacity:1;stroke:#cccccc;stroke-width:0.26458335;stroke-linecap:butt;stroke-linejoin:miter;stroke-miterlimit:4;stroke-dasharray:none;stroke-opacity:1"
       d="m 31.32398,250.2467 0.006,1.10261"
       id="path9630-2-6-1"
       inkscape:connector-curvature="0"
       sodipodi:nodetypes="cc" />
    <path
       style="display:inline;fill:#cccccc;fill-opacity:1;stroke:#cccccc;stroke-width:0.26458335;stroke-linecap:butt;stroke-linejoin:miter;stroke-miterlimit:4;stroke-dasharray:none;stroke-opacity:1"
       d="m 31.878281,250.7901 -1.102618,0.005"
       id="path9630-1-1-4-7"
       inkscape:connector-curvature="0"
       sodipodi:nodetypes="cc"
       inkscape:transform-center-x="-1.0162854"
       inkscape:transform-center-y="0.22178906" />
    <path
       style="display:inline;fill:#cccccc;fill-opacity:1;stroke:#cccccc;stroke-width:0.26458335;stroke-linecap:butt;stroke-linejoin:miter;stroke-miterlimit:4;stroke-dasharray:none;stroke-opacity:1"
       d="m 27.299935,250.75879 -1.102618,0.005"
       id="path9630-1-6-9-9-2"
       inkscape:connector-curvature="0"
       sodipodi:nodetypes="cc"
       inkscape:transform-center-x="-1.0162854"
       inkscape:transform-center-y="0.22178906" />
    <path
       style="fill:none;stroke:#cccccc;stroke-width:0.28634623;stroke-linecap:butt;stroke-linejoin:miter;stroke-miterlimit:4;stroke-dasharray:none;stroke-opacity:1"
       d="m 28.964045,248.53295 -0.0058,-3.32557"
       id="path9948-9-9-4"
       inkscape:connector-curvature="0" />
    <path
       style="display:inline;fill:none;stroke:#cccccc;stroke-width:0.52916664;stroke-miterlimit:10;stroke-dasharray:none;stroke-opacity:1"
       id="path8216"
       sodipodi:type="arc"
       sodipodi:cx="14.562861"
       sodipodi:cy="-228.20558"
       sodipodi:rx="8.741394"
       sodipodi:ry="8.741394"
       sodipodi:start="5.7595865"
       sodipodi:end="3.6651914"
       d="m 22.133131,-232.57628 a 8.741394,8.741394 0 0 1 -1.95141,11.06699 8.741394,8.741394 0 0 1 -11.2377191,0 8.741394,8.741394 0 0 1 -1.9514099,-11.06699"
       transform="scale(1,-1)"
       sodipodi:open="true" />
    <path
       style="display:inline;fill:none;stroke:#cccccc;stroke-width:0.26458338;stroke-miterlimit:4;stroke-dasharray:none;stroke-opacity:1"
       id="path8216-1-5-0-2-2"
       sodipodi:type="arc"
       sodipodi:cx="29.051502"
       sodipodi:cy="-225.26526"
       sodipodi:rx="2.8319819"
       sodipodi:ry="2.8319819"
       sodipodi:start="5.7595865"
       sodipodi:end="3.6651914"
       d="m 31.50407,-226.68125 a 2.8319819,2.8319819 0 0 1 -0.632205,3.58542 2.8319819,2.8319819 0 0 1 -3.640726,0 2.8319819,2.8319819 0 0 1 -0.632205,-3.58542 l 2.452568,1.41599 z"
       transform="scale(1,-1)" />
    <path
       style="display:inline;fill:#cccccc;fill-opacity:1;stroke:#cccccc;stroke-width:0.26458338;stroke-linecap:butt;stroke-linejoin:miter;stroke-miterlimit:4;stroke-dasharray:none;stroke-opacity:1"
       d="m 31.411426,226.97976 0.006,1.10261"
       id="path9630-2-6-1-7"
       inkscape:connector-curvature="0"
       sodipodi:nodetypes="cc" />
    <path
       style="display:inline;fill:#cccccc;fill-opacity:1;stroke:#cccccc;stroke-width:0.26458338;stroke-linecap:butt;stroke-linejoin:miter;stroke-miterlimit:4;stroke-dasharray:none;stroke-opacity:1"
       d="m 31.965727,227.52316 -1.102618,0.005"
       id="path9630-1-1-4-7-0"
       inkscape:connector-curvature="0"
       sodipodi:nodetypes="cc"
       inkscape:transform-center-x="-1.0162854"
       inkscape:transform-center-y="0.22178906" />
    <path
       style="display:inline;fill:#cccccc;fill-opacity:1;stroke:#cccccc;stroke-width:0.26458338;stroke-linecap:butt;stroke-linejoin:miter;stroke-miterlimit:4;stroke-dasharray:none;stroke-opacity:1"
       d="m 27.387381,227.49185 -1.102618,0.005"
       id="path9630-1-6-9-9-2-9"
       inkscape:connector-curvature="0"
       sodipodi:nodetypes="cc"
       inkscape:transform-center-x="-1.0162854"
       inkscape:transform-center-y="0.22178906" />
    <path
       style="fill:none;stroke:#cccccc;stroke-width:0.28634623;stroke-linecap:butt;stroke-linejoin:miter;stroke-miterlimit:4;stroke-dasharray:none;stroke-opacity:1"
       d="m 29.051491,225.26601 -0.0058,-3.32557"
       id="path9948-9-9-4-3"
       inkscape:connector-curvature="0" />
    <rect
       style="display:inline;fill:#333333;stroke:none;stroke-width:0.59325039;stroke-miterlimit:4;stroke-dasharray:none;stroke-opacity:1"
       id="rect9305-9-8"
       width="32.141556"
       height="15.000389"
       x="4"
       y="263.99582"
       rx="4.5635505" />
    <g
       aria-label="BP"
       style="font-style:normal;font-weight:normal;font-size:7.34615898px;line-height:1.25;font-family:sans-serif;letter-spacing:0px;word-spacing:0px;display:inline;fill:#cccccc;fill-opacity:1;stroke:none;stroke-width:0.18365398"
       id="text9293-4-2">
      <path
         d="m 19.425182,275.17839 q 0,-0.0323 -0.0084,-0.0598 -0.0072,-0.0287 -0.0287,-0.0598 -0.02033,-0.0323 -0.06815,-0.0502 -0.04663,-0.0191 -0.11598,-0.0191 h -0.254676 v 0.37783 h 0.254676 q 0.221198,0 0.221198,-0.18891 z m 0.07294,0.73413 q 0,-0.23195 -0.27859,-0.23195 h -0.27022 v 0.4675 h 0.27022 q 0.27859,0 0.27859,-0.23555 z m 0.387395,-0.76402 q 0,0.13511 -0.06337,0.22478 -0.06217,0.0897 -0.174567,0.13272 0.144675,0.0419 0.227176,0.15663 0.0837,0.11478 0.0837,0.28696 0,0.11957 -0.03826,0.21044 -0.03707,0.0909 -0.118371,0.16022 -0.08011,0.0693 -0.218806,0.10521 -0.138697,0.0359 -0.330003,0.0359 h -0.76403 v -1.78512 h 0.691094 q 0.204459,0 0.344351,0.0335 0.141089,0.0323 0.218807,0.098 0.07772,0.0646 0.110001,0.14707 0.03228,0.0813 0.03228,0.1937 z"
         style="font-style:normal;font-variant:normal;font-weight:bold;font-stretch:normal;font-size:2.4487195px;font-family:Waree;-inkscape-font-specification:'Waree Bold';fill:#cccccc;stroke-width:0.18365398"
         id="path1017" />
      <path
         d="m 21.635965,274.82208 q 0.187719,0.14587 0.187719,0.43642 0,0.29054 -0.187719,0.43761 -0.18772,0.14587 -0.517723,0.14587 h -0.303698 v 0.61935 h -0.460331 v -1.78512 h 0.764029 q 0.331199,0 0.517723,0.14587 z m -0.28696,0.43642 q 0,-0.12196 -0.07413,-0.18533 -0.07294,-0.0634 -0.205654,-0.0634 h -0.254676 v 0.49859 h 0.254676 q 0.132719,0 0.205654,-0.0634 0.07413,-0.0646 0.07413,-0.18652 z"
         style="font-style:normal;font-variant:normal;font-weight:bold;font-stretch:normal;font-size:2.4487195px;font-family:Waree;-inkscape-font-specification:'Waree Bold';fill:#cccccc;stroke-width:0.18365398"
         id="path1019" />
    </g>
    <g
       aria-label="LP"
       style="font-style:normal;font-weight:normal;font-size:7.34615898px;line-height:1.25;font-family:sans-serif;letter-spacing:0px;word-spacing:0px;display:inline;fill:#cccccc;fill-opacity:1;stroke:none;stroke-width:0.18365398"
       id="text9293-4-2-2">
      <path
         d="m 7.4815263,274.67621 h 0.4603306 v 1.43719 h 0.8082687 v 0.34793 H 7.4815263 Z"
         style="font-style:normal;font-variant:normal;font-weight:bold;font-stretch:normal;font-size:2.4487195px;font-family:Waree;-inkscape-font-specification:'Waree Bold';fill:#cccccc;stroke-width:0.18365398"
         id="path1012" />
      <path
         d="m 10.322424,274.82208 q 0.187719,0.14587 0.187719,0.43642 0,0.29054 -0.187719,0.43761 -0.18772,0.14587 -0.5177229,0.14587 H 9.5010025 v 0.61935 H 9.0406719 v -1.78512 h 0.7640292 q 0.3311989,0 0.5177229,0.14587 z m -0.28696,0.43642 q 0,-0.12196 -0.074131,-0.18533 -0.072935,-0.0634 -0.2056541,-0.0634 H 9.5010025 v 0.49859 h 0.2546764 q 0.1327186,0 0.2056541,-0.0634 0.074131,-0.0646 0.074131,-0.18652 z"
         style="font-style:normal;font-variant:normal;font-weight:bold;font-stretch:normal;font-size:2.4487195px;font-family:Waree;-inkscape-font-specification:'Waree Bold';fill:#cccccc;stroke-width:0.18365398"
         id="path1014" />
    </g>
    <g
       aria-label="HP"
       style="font-style:normal;font-weight:normal;font-size:7.34615898px;line-height:1.25;font-family:sans-serif;letter-spacing:0px;word-spacing:0px;display:inline;fill:#cccccc;fill-opacity:1;stroke:none;stroke-width:0.18365398"
       id="text9293-4-2-7">
      <path
         d="m 29.838819,274.67621 h 0.460331 v 0.68033 h 0.679137 v -0.68033 h 0.460331 v 1.78512 h -0.460331 v -0.75685 H 30.29915 v 0.75685 h -0.460331 z"
         style="font-style:normal;font-variant:normal;font-weight:bold;font-stretch:normal;font-size:2.4487195px;font-family:Waree;-inkscape-font-specification:'Waree Bold';fill:#cccccc;stroke-width:0.18365398"
         id="path1022" />
      <path
         d="m 33.17233,274.82208 q 0.187719,0.14587 0.187719,0.43642 0,0.29054 -0.187719,0.43761 -0.187719,0.14587 -0.517722,0.14587 h -0.303699 v 0.61935 h -0.460331 v -1.78512 h 0.76403 q 0.331199,0 0.517722,0.14587 z m -0.286959,0.43642 q 0,-0.12196 -0.07413,-0.18533 -0.07294,-0.0634 -0.205655,-0.0634 h -0.254676 v 0.49859 h 0.254676 q 0.132719,0 0.205655,-0.0634 0.07413,-0.0646 0.07413,-0.18652 z"
         style="font-style:normal;font-variant:normal;font-weight:bold;font-stretch:normal;font-size:2.4487195px;font-family:Waree;-inkscape-font-specification:'Waree Bold';fill:#cccccc;stroke-width:0.18365398"
         id="path1024" />
    </g>
    <circle
       style="display:inline;fill:none;stroke:#cccccc;stroke-width:0.52916664;stroke-miterlimit:4;stroke-dasharray:none;stroke-opacity:1"
       id="path9488-2-9"
       cx="8.2438736"
       cy="255.65654"
       r="0.92604166" />
    <circle
       style="display:inline;fill:#cccccc;fill-opacity:1;stroke:#cccccc;stroke-width:0.52916664;stroke-miterlimit:4;stroke-dasharray:none;stroke-opacity:1"
       id="path9488-2-6-0"
       cx="17.685291"
       cy="255.52885"
       r="0.92604166" />
    <circle
       style="display:inline;fill:none;stroke:#cccccc;stroke-width:0.52916664;stroke-miterlimit:4;stroke-dasharray:none;stroke-opacity:1"
       id="path9488-2-9-7"
       cx="8.0237808"
       cy="234.79543"
       r="0.92604166" />
    <circle
       style="display:inline;fill:#cccccc;fill-opacity:1;stroke:#cccccc;stroke-width:0.52916664;stroke-miterlimit:4;stroke-dasharray:none;stroke-opacity:1"
       id="path9488-2-6-0-8"
       cx="21.698536"
       cy="234.66774"
       r="0.92604166" />
  </g>
</svg>
