<?xml version="1.0" encoding="UTF-8" standalone="no"?>
<!DOCTYPE svg PUBLIC "-//W3C//DTD SVG 1.1//EN" "http://www.w3.org/Graphics/SVG/1.1/DTD/svg11.dtd">
<svg width="150px" height="50px" version="1.1" xmlns="http://www.w3.org/2000/svg" xmlns:xlink="http://www.w3.org/1999/xlink" xml:space="preserve" xmlns:serif="http://www.serif.com/" style="fill-rule:evenodd;clip-rule:evenodd;stroke-linejoin:round;stroke-miterlimit:1.41421;">
    <g transform="matrix(1,0,0,1,8,-1)">
        <g transform="matrix(1.46853,0,0,1.55544,-19.8643,-5.86856)">
            <path d="M103.806,13.857c0,-3.609 -3.104,-6.539 -6.927,-6.539l-75.589,0c-3.822,0 -6.926,2.93 -6.926,6.539l0,13.08c0,3.609 3.104,6.539 6.926,6.539l75.589,0c3.823,0 6.927,-2.93 6.927,-6.539l0,-13.08Z" style="fill:rgb(204,204,204);"/>
        </g>
        <g transform="matrix(1.33192,0,0,1.33192,25.1765,30.9588)">
            <g id="text7967">
                <path d="M2.012,-7.121l1.719,4.335l1.728,-4.335l2.012,0l-3.004,7.121l-1.473,0l-2.994,-7.121l2.012,0Z" style="fill:rgb(64,64,64);fill-rule:nonzero;"/>
                <path d="M9.388,-4.845l0,2.729c0,0.599 0.29,0.898 0.869,0.898c0.579,0 0.869,-0.299 0.869,-0.898l0,-2.729l1.71,0l0,3.06c0,0.655 -0.216,1.146 -0.647,1.473c-0.432,0.328 -1.076,0.491 -1.932,0.491c-0.856,0 -1.5,-0.163 -1.931,-0.491c-0.432,-0.327 -0.647,-0.818 -0.647,-1.473l0,-3.06l1.709,0Z" style="fill:rgb(64,64,64);fill-rule:nonzero;"/>
                <rect x="13.997" y="-7.839" width="1.71" height="7.839" style="fill:rgb(64,64,64);fill-rule:nonzero;"/>
                <path d="M18.786,-3.419l0,3.419l-1.71,0l0,-3.419l-0.566,0l0,-1.426l0.566,0l0,-1.455l1.71,0l0,1.455l0.973,0l0,1.426l-0.973,0Z" style="fill:rgb(64,64,64);fill-rule:nonzero;"/>
                <path d="M20.24,0l1.209,-7.121l1.833,0l1.426,3.796l1.417,-3.796l1.832,0l1.209,7.121l-1.842,0l-0.614,-4.099l-1.681,4.099l-0.737,0l-1.596,-4.099l-0.614,4.099l-1.842,0Z" style="fill:rgb(64,64,64);fill-rule:nonzero;"/>
                <path d="M31.792,-2.446c0,0.163 0.029,0.313 0.089,0.448c0.06,0.136 0.139,0.254 0.236,0.355c0.098,0.1 0.214,0.179 0.35,0.236c0.135,0.056 0.278,0.085 0.43,0.085c0.151,0 0.294,-0.029 0.429,-0.085c0.136,-0.057 0.252,-0.136 0.35,-0.236c0.097,-0.101 0.176,-0.219 0.236,-0.355c0.06,-0.135 0.09,-0.281 0.09,-0.439c0,-0.151 -0.03,-0.294 -0.09,-0.43c-0.06,-0.135 -0.139,-0.253 -0.236,-0.354c-0.098,-0.1 -0.214,-0.179 -0.35,-0.236c-0.135,-0.057 -0.278,-0.085 -0.429,-0.085c-0.152,0 -0.295,0.028 -0.43,0.085c-0.136,0.057 -0.252,0.136 -0.35,0.236c-0.097,0.101 -0.176,0.218 -0.236,0.35c-0.06,0.132 -0.089,0.274 -0.089,0.425Zm-1.804,-0.019c0,-0.359 0.072,-0.694 0.217,-1.006c0.145,-0.312 0.346,-0.582 0.604,-0.812c0.258,-0.23 0.565,-0.411 0.921,-0.543c0.356,-0.133 0.745,-0.199 1.167,-0.199c0.415,0 0.801,0.065 1.157,0.194c0.355,0.129 0.664,0.308 0.925,0.538c0.261,0.23 0.465,0.504 0.609,0.822c0.145,0.318 0.218,0.669 0.218,1.053c0,0.384 -0.074,0.735 -0.222,1.053c-0.148,0.318 -0.351,0.592 -0.61,0.822c-0.258,0.23 -0.568,0.408 -0.93,0.534c-0.362,0.125 -0.754,0.188 -1.176,0.188c-0.415,0 -0.799,-0.063 -1.152,-0.188c-0.353,-0.126 -0.656,-0.306 -0.911,-0.539c-0.255,-0.233 -0.455,-0.511 -0.6,-0.836c-0.145,-0.324 -0.217,-0.684 -0.217,-1.081Z" style="fill:rgb(64,64,64);fill-rule:nonzero;"/>
                <path d="M38.375,-2.437c0,0.158 0.028,0.304 0.085,0.439c0.056,0.136 0.133,0.254 0.231,0.355c0.098,0.1 0.214,0.179 0.349,0.236c0.136,0.056 0.282,0.085 0.44,0.085c0.151,0 0.294,-0.029 0.429,-0.085c0.136,-0.057 0.252,-0.136 0.35,-0.236c0.097,-0.101 0.176,-0.218 0.236,-0.35c0.06,-0.132 0.09,-0.274 0.09,-0.425c0,-0.151 -0.03,-0.294 -0.09,-0.43c-0.06,-0.135 -0.139,-0.253 -0.236,-0.354c-0.098,-0.101 -0.214,-0.179 -0.35,-0.236c-0.135,-0.057 -0.278,-0.085 -0.429,-0.085c-0.151,0 -0.295,0.028 -0.43,0.085c-0.135,0.057 -0.252,0.135 -0.35,0.236c-0.097,0.101 -0.176,0.216 -0.236,0.345c-0.059,0.129 -0.089,0.269 -0.089,0.42Zm2.153,-5.402l1.719,0l0,7.839l-1.719,0l0,-0.538c-0.365,0.459 -0.859,0.689 -1.483,0.689c-0.352,0 -0.677,-0.066 -0.973,-0.198c-0.296,-0.132 -0.554,-0.315 -0.774,-0.548c-0.22,-0.233 -0.392,-0.507 -0.515,-0.822c-0.123,-0.315 -0.184,-0.655 -0.184,-1.02c0,-0.346 0.058,-0.675 0.175,-0.987c0.116,-0.311 0.281,-0.584 0.496,-0.817c0.214,-0.233 0.47,-0.417 0.769,-0.552c0.299,-0.136 0.628,-0.203 0.987,-0.203c0.605,0 1.105,0.211 1.502,0.632l0,-3.475Z" style="fill:rgb(64,64,64);fill-rule:nonzero;"/>
                <path d="M45.118,-4.845l0,2.729c0,0.599 0.29,0.898 0.869,0.898c0.579,0 0.869,-0.299 0.869,-0.898l0,-2.729l1.71,0l0,3.06c0,0.655 -0.216,1.146 -0.647,1.473c-0.432,0.328 -1.075,0.491 -1.932,0.491c-0.856,0 -1.5,-0.163 -1.931,-0.491c-0.432,-0.327 -0.647,-0.818 -0.647,-1.473l0,-3.06l1.709,0Z" style="fill:rgb(64,64,64);fill-rule:nonzero;"/>
                <rect x="49.727" y="-7.839" width="1.71" height="7.839" style="fill:rgb(64,64,64);fill-rule:nonzero;"/>
                <path d="M56.15,-3.126c-0.057,-0.24 -0.173,-0.432 -0.35,-0.576c-0.176,-0.145 -0.39,-0.218 -0.642,-0.218c-0.264,0 -0.48,0.07 -0.647,0.208c-0.167,0.139 -0.272,0.334 -0.316,0.586l1.955,0Zm-2.002,0.991c0,0.737 0.346,1.106 1.039,1.106c0.371,0 0.651,-0.152 0.84,-0.454l1.653,0c-0.334,1.108 -1.168,1.662 -2.503,1.662c-0.409,0 -0.784,-0.061 -1.124,-0.184c-0.34,-0.123 -0.631,-0.297 -0.874,-0.524c-0.242,-0.227 -0.429,-0.497 -0.561,-0.812c-0.133,-0.315 -0.199,-0.668 -0.199,-1.058c0,-0.403 0.063,-0.767 0.189,-1.091c0.126,-0.324 0.305,-0.6 0.538,-0.826c0.233,-0.227 0.515,-0.402 0.846,-0.525c0.33,-0.122 0.703,-0.184 1.119,-0.184c0.409,0 0.778,0.062 1.105,0.184c0.327,0.123 0.605,0.301 0.831,0.534c0.227,0.233 0.4,0.518 0.52,0.855c0.119,0.337 0.179,0.716 0.179,1.138l0,0.179l-3.598,0Z" style="fill:rgb(64,64,64);fill-rule:nonzero;"/>
                <path d="M61.93,-3.599c-0.315,-0.163 -0.623,-0.245 -0.925,-0.245c-0.158,0 -0.285,0.031 -0.383,0.094c-0.098,0.063 -0.146,0.148 -0.146,0.255c0,0.057 0.008,0.103 0.023,0.137c0.016,0.035 0.051,0.068 0.104,0.1c0.054,0.031 0.132,0.059 0.236,0.085c0.104,0.025 0.241,0.056 0.411,0.094c0.472,0.094 0.825,0.263 1.058,0.505c0.233,0.243 0.349,0.553 0.349,0.931c0,0.283 -0.056,0.538 -0.17,0.765c-0.113,0.226 -0.27,0.417 -0.472,0.571c-0.201,0.154 -0.444,0.274 -0.727,0.359c-0.283,0.085 -0.595,0.127 -0.935,0.127c-0.655,0 -1.3,-0.185 -1.936,-0.557l0.623,-1.209c0.479,0.328 0.932,0.491 1.36,0.491c0.158,0 0.287,-0.034 0.387,-0.104c0.101,-0.069 0.151,-0.157 0.151,-0.264c0,-0.063 -0.007,-0.115 -0.023,-0.156c-0.016,-0.041 -0.049,-0.079 -0.099,-0.113c-0.051,-0.035 -0.125,-0.066 -0.222,-0.095c-0.098,-0.028 -0.225,-0.058 -0.383,-0.089c-0.529,-0.107 -0.899,-0.266 -1.11,-0.477c-0.21,-0.211 -0.316,-0.502 -0.316,-0.874c0,-0.271 0.05,-0.515 0.151,-0.732c0.101,-0.217 0.246,-0.401 0.435,-0.552c0.189,-0.152 0.417,-0.268 0.684,-0.35c0.268,-0.082 0.566,-0.123 0.893,-0.123c0.535,0 1.055,0.104 1.558,0.312l-0.576,1.114Z" style="fill:rgb(64,64,64);fill-rule:nonzero;"/>
            </g>
        </g>
    </g>
</svg>
