<?xml version="1.0" encoding="UTF-8" standalone="no"?>
<!DOCTYPE svg PUBLIC "-//W3C//DTD SVG 1.1//EN" "http://www.w3.org/Graphics/SVG/1.1/DTD/svg11.dtd">
<svg width="150px" height="50px" version="1.1" xmlns="http://www.w3.org/2000/svg" xmlns:xlink="http://www.w3.org/1999/xlink" xml:space="preserve" xmlns:serif="http://www.serif.com/" style="fill-rule:evenodd;clip-rule:evenodd;stroke-linejoin:round;stroke-miterlimit:1.41421;">
    <g transform="matrix(1.46853,0,0,1.55544,-11.3522,-6.86856)">
        <path d="M103.806,13.857c0,-3.609 -3.104,-6.539 -6.927,-6.539l-75.589,0c-3.822,0 -6.926,2.93 -6.926,6.539l0,13.08c0,3.609 3.104,6.539 6.926,6.539l75.589,0c3.823,0 6.927,-2.93 6.927,-6.539l0,-13.08Z" style="fill:rgb(204,204,204);"/>
    </g>
    <g transform="matrix(1.33192,0,0,1.33192,29.9775,29.9588)">
        <g id="text7967">
            <path d="M2.012,-7.121l1.719,4.335l1.728,-4.335l2.012,0l-3.004,7.121l-1.473,0l-2.994,-7.121l2.012,0Z" style="fill:rgb(64,64,64);fill-rule:nonzero;"/>
            <path d="M9.388,-4.845l0,2.729c0,0.599 0.29,0.898 0.869,0.898c0.579,0 0.869,-0.299 0.869,-0.898l0,-2.729l1.71,0l0,3.06c0,0.655 -0.216,1.146 -0.647,1.473c-0.432,0.328 -1.076,0.491 -1.932,0.491c-0.856,0 -1.5,-0.163 -1.931,-0.491c-0.432,-0.327 -0.647,-0.818 -0.647,-1.473l0,-3.06l1.709,0Z" style="fill:rgb(64,64,64);fill-rule:nonzero;"/>
            <rect x="13.997" y="-7.839" width="1.71" height="7.839" style="fill:rgb(64,64,64);fill-rule:nonzero;"/>
            <path d="M18.786,-3.419l0,3.419l-1.71,0l0,-3.419l-0.566,0l0,-1.426l0.566,0l0,-1.455l1.71,0l0,1.455l0.973,0l0,1.426l-0.973,0Z" style="fill:rgb(64,64,64);fill-rule:nonzero;"/>
            <path d="M25.69,-4.741c-0.428,-0.523 -0.957,-0.784 -1.587,-0.784c-0.277,0 -0.533,0.05 -0.769,0.151c-0.237,0.101 -0.44,0.238 -0.61,0.411c-0.17,0.173 -0.303,0.379 -0.401,0.618c-0.098,0.24 -0.146,0.498 -0.146,0.775c0,0.283 0.048,0.544 0.146,0.784c0.098,0.239 0.233,0.447 0.406,0.623c0.173,0.176 0.376,0.315 0.609,0.416c0.233,0.1 0.485,0.151 0.756,0.151c0.592,0 1.124,-0.252 1.596,-0.756l0,2.191l-0.189,0.067c-0.283,0.1 -0.548,0.174 -0.793,0.222c-0.246,0.047 -0.488,0.07 -0.727,0.07c-0.492,0 -0.962,-0.093 -1.412,-0.278c-0.451,-0.186 -0.847,-0.447 -1.19,-0.784c-0.344,-0.337 -0.619,-0.737 -0.827,-1.2c-0.208,-0.463 -0.312,-0.968 -0.312,-1.516c0,-0.547 0.103,-1.05 0.307,-1.506c0.205,-0.457 0.479,-0.85 0.822,-1.181c0.343,-0.33 0.742,-0.588 1.195,-0.774c0.453,-0.186 0.929,-0.279 1.426,-0.279c0.283,0 0.562,0.03 0.836,0.09c0.274,0.06 0.562,0.153 0.864,0.279l0,2.21Z" style="fill:rgb(64,64,64);fill-rule:nonzero;"/>
            <path d="M28.316,-2.446c0,0.163 0.03,0.313 0.09,0.448c0.059,0.136 0.138,0.254 0.236,0.355c0.097,0.1 0.214,0.179 0.349,0.236c0.135,0.056 0.279,0.085 0.43,0.085c0.151,0 0.294,-0.029 0.43,-0.085c0.135,-0.057 0.251,-0.136 0.349,-0.236c0.098,-0.101 0.176,-0.219 0.236,-0.355c0.06,-0.135 0.09,-0.281 0.09,-0.439c0,-0.151 -0.03,-0.294 -0.09,-0.43c-0.06,-0.135 -0.138,-0.253 -0.236,-0.354c-0.098,-0.1 -0.214,-0.179 -0.349,-0.236c-0.136,-0.057 -0.279,-0.085 -0.43,-0.085c-0.151,0 -0.295,0.028 -0.43,0.085c-0.135,0.057 -0.252,0.136 -0.349,0.236c-0.098,0.101 -0.177,0.218 -0.236,0.35c-0.06,0.132 -0.09,0.274 -0.09,0.425Zm-1.804,-0.019c0,-0.359 0.072,-0.694 0.217,-1.006c0.145,-0.312 0.346,-0.582 0.605,-0.812c0.258,-0.23 0.565,-0.411 0.92,-0.543c0.356,-0.133 0.745,-0.199 1.167,-0.199c0.415,0 0.801,0.065 1.157,0.194c0.356,0.129 0.664,0.308 0.925,0.538c0.262,0.23 0.465,0.504 0.61,0.822c0.144,0.318 0.217,0.669 0.217,1.053c0,0.384 -0.074,0.735 -0.222,1.053c-0.148,0.318 -0.351,0.592 -0.609,0.822c-0.258,0.23 -0.569,0.408 -0.931,0.534c-0.362,0.125 -0.754,0.188 -1.175,0.188c-0.416,0 -0.8,-0.063 -1.153,-0.188c-0.352,-0.126 -0.656,-0.306 -0.911,-0.539c-0.255,-0.233 -0.455,-0.511 -0.6,-0.836c-0.145,-0.324 -0.217,-0.684 -0.217,-1.081Z" style="fill:rgb(64,64,64);fill-rule:nonzero;"/>
            <path d="M33.312,-4.845l1.71,0l0,0.595c0.466,-0.447 0.988,-0.671 1.568,-0.671c0.717,0 1.265,0.302 1.643,0.907c0.384,-0.611 0.932,-0.916 1.643,-0.916c0.227,0 0.441,0.033 0.643,0.099c0.201,0.066 0.374,0.17 0.519,0.312c0.145,0.141 0.26,0.325 0.345,0.552c0.085,0.227 0.127,0.501 0.127,0.822l0,3.145l-1.709,0l0,-2.39c0,-0.245 -0.018,-0.447 -0.052,-0.604c-0.035,-0.157 -0.085,-0.28 -0.151,-0.368c-0.066,-0.089 -0.144,-0.148 -0.232,-0.18c-0.088,-0.031 -0.182,-0.047 -0.283,-0.047c-0.548,0 -0.822,0.4 -0.822,1.199l0,2.39l-1.709,0l0,-2.39c0,-0.245 -0.016,-0.448 -0.047,-0.609c-0.032,-0.16 -0.078,-0.288 -0.137,-0.382c-0.06,-0.095 -0.137,-0.159 -0.232,-0.194c-0.094,-0.035 -0.204,-0.052 -0.33,-0.052c-0.107,0 -0.208,0.016 -0.303,0.047c-0.094,0.032 -0.178,0.093 -0.25,0.185c-0.072,0.091 -0.129,0.217 -0.17,0.377c-0.041,0.161 -0.061,0.37 -0.061,0.628l0,2.39l-1.71,0l0,-4.845Z" style="fill:rgb(64,64,64);fill-rule:nonzero;"/>
            <path d="M46.714,-2.408c0,-0.152 -0.026,-0.295 -0.08,-0.43c-0.053,-0.136 -0.13,-0.254 -0.231,-0.354c-0.101,-0.101 -0.219,-0.181 -0.354,-0.241c-0.136,-0.06 -0.282,-0.09 -0.44,-0.09c-0.151,0 -0.292,0.028 -0.425,0.085c-0.132,0.057 -0.247,0.135 -0.344,0.236c-0.098,0.101 -0.177,0.219 -0.236,0.354c-0.06,0.136 -0.09,0.279 -0.09,0.43c0,0.151 0.028,0.293 0.085,0.425c0.056,0.132 0.135,0.247 0.236,0.345c0.101,0.097 0.219,0.176 0.354,0.236c0.135,0.06 0.279,0.09 0.43,0.09c0.151,0 0.293,-0.029 0.425,-0.085c0.132,-0.057 0.247,-0.136 0.345,-0.236c0.097,-0.101 0.176,-0.218 0.236,-0.35c0.06,-0.132 0.089,-0.271 0.089,-0.415Zm-2.153,4.826l-1.709,0l0,-7.263l1.709,0l0,0.538c0.365,-0.46 0.863,-0.689 1.492,-0.689c0.347,0 0.669,0.067 0.968,0.203c0.3,0.135 0.559,0.319 0.78,0.552c0.22,0.233 0.392,0.507 0.514,0.822c0.123,0.315 0.185,0.652 0.185,1.011c0,0.358 -0.062,0.692 -0.185,1.001c-0.122,0.308 -0.292,0.579 -0.51,0.812c-0.217,0.233 -0.473,0.416 -0.769,0.548c-0.296,0.132 -0.617,0.198 -0.964,0.198c-0.604,0 -1.108,-0.208 -1.511,-0.623l0,2.89Z" style="fill:rgb(64,64,64);fill-rule:nonzero;"/>
            <path d="M51.059,-2.437c0,0.158 0.028,0.304 0.085,0.439c0.057,0.136 0.134,0.254 0.232,0.355c0.097,0.1 0.214,0.179 0.349,0.236c0.135,0.056 0.282,0.085 0.439,0.085c0.151,0 0.295,-0.029 0.43,-0.085c0.135,-0.057 0.252,-0.136 0.349,-0.236c0.098,-0.101 0.177,-0.218 0.236,-0.35c0.06,-0.132 0.09,-0.274 0.09,-0.425c0,-0.151 -0.03,-0.294 -0.09,-0.43c-0.059,-0.135 -0.138,-0.253 -0.236,-0.354c-0.097,-0.101 -0.214,-0.179 -0.349,-0.236c-0.135,-0.057 -0.279,-0.085 -0.43,-0.085c-0.157,0 -0.304,0.028 -0.439,0.085c-0.135,0.057 -0.252,0.135 -0.349,0.236c-0.098,0.101 -0.175,0.216 -0.232,0.345c-0.057,0.129 -0.085,0.269 -0.085,0.42Zm2.154,-2.408l1.719,0l0,4.845l-1.719,0l0,-0.538c-0.366,0.459 -0.86,0.689 -1.483,0.689c-0.353,0 -0.677,-0.064 -0.973,-0.194c-0.296,-0.129 -0.554,-0.31 -0.775,-0.543c-0.22,-0.233 -0.392,-0.506 -0.514,-0.821c-0.123,-0.315 -0.185,-0.658 -0.185,-1.03c0,-0.346 0.06,-0.675 0.18,-0.987c0.12,-0.311 0.286,-0.584 0.501,-0.817c0.214,-0.233 0.469,-0.417 0.765,-0.552c0.295,-0.136 0.623,-0.203 0.982,-0.203c0.604,0 1.105,0.211 1.502,0.632l0,-0.481Z" style="fill:rgb(64,64,64);fill-rule:nonzero;"/>
            <path d="M59.748,-3.277c-0.296,-0.202 -0.595,-0.303 -0.897,-0.303c-0.164,0 -0.316,0.029 -0.458,0.085c-0.142,0.057 -0.266,0.137 -0.373,0.241c-0.107,0.104 -0.19,0.227 -0.25,0.369c-0.06,0.141 -0.09,0.3 -0.09,0.477c0,0.17 0.03,0.325 0.09,0.467c0.06,0.142 0.141,0.265 0.245,0.368c0.104,0.104 0.229,0.185 0.373,0.241c0.145,0.057 0.299,0.085 0.463,0.085c0.321,0 0.62,-0.11 0.897,-0.33l0,1.454c-0.421,0.183 -0.821,0.274 -1.199,0.274c-0.353,0 -0.688,-0.06 -1.006,-0.179c-0.318,-0.12 -0.598,-0.292 -0.841,-0.515c-0.242,-0.224 -0.436,-0.491 -0.58,-0.803c-0.145,-0.312 -0.218,-0.659 -0.218,-1.044c0,-0.384 0.07,-0.735 0.208,-1.053c0.139,-0.318 0.328,-0.592 0.567,-0.821c0.239,-0.23 0.524,-0.41 0.855,-0.539c0.33,-0.129 0.684,-0.193 1.062,-0.193c0.416,0 0.8,0.088 1.152,0.264l0,1.455Z" style="fill:rgb(64,64,64);fill-rule:nonzero;"/>
            <path d="M62.629,-3.419l0,3.419l-1.709,0l0,-3.419l-0.567,0l0,-1.426l0.567,0l0,-1.455l1.709,0l0,1.455l0.973,0l0,1.426l-0.973,0Z" style="fill:rgb(64,64,64);fill-rule:nonzero;"/>
            <path d="M67.503,-3.599c-0.315,-0.163 -0.624,-0.245 -0.926,-0.245c-0.157,0 -0.285,0.031 -0.382,0.094c-0.098,0.063 -0.147,0.148 -0.147,0.255c0,0.057 0.008,0.103 0.024,0.137c0.016,0.035 0.05,0.068 0.104,0.1c0.053,0.031 0.132,0.059 0.236,0.085c0.104,0.025 0.241,0.056 0.411,0.094c0.472,0.094 0.825,0.263 1.057,0.505c0.233,0.243 0.35,0.553 0.35,0.931c0,0.283 -0.057,0.538 -0.17,0.765c-0.113,0.226 -0.271,0.417 -0.472,0.571c-0.202,0.154 -0.444,0.274 -0.728,0.359c-0.283,0.085 -0.595,0.127 -0.935,0.127c-0.654,0 -1.3,-0.185 -1.936,-0.557l0.624,-1.209c0.478,0.328 0.931,0.491 1.36,0.491c0.157,0 0.286,-0.034 0.387,-0.104c0.101,-0.069 0.151,-0.157 0.151,-0.264c0,-0.063 -0.008,-0.115 -0.024,-0.156c-0.015,-0.041 -0.048,-0.079 -0.099,-0.113c-0.05,-0.035 -0.124,-0.066 -0.222,-0.095c-0.097,-0.028 -0.225,-0.058 -0.382,-0.089c-0.529,-0.107 -0.899,-0.266 -1.11,-0.477c-0.211,-0.211 -0.316,-0.502 -0.316,-0.874c0,-0.271 0.05,-0.515 0.151,-0.732c0.1,-0.217 0.245,-0.401 0.434,-0.552c0.189,-0.152 0.417,-0.268 0.685,-0.35c0.267,-0.082 0.565,-0.123 0.892,-0.123c0.536,0 1.055,0.104 1.559,0.312l-0.576,1.114Z" style="fill:rgb(64,64,64);fill-rule:nonzero;"/>
        </g>
    </g>
</svg>
